<svg width="13" height="12" viewBox="0 0 13 12" fill="none" xmlns="http://www.w3.org/2000/svg">
<path d="M11.8698 5.68502L7.30272 1.13025C7.12858 0.956582 6.84929 0.956582 6.67515 1.13025C6.50101 1.30392 6.50101 1.58245 6.67515 1.75612L10.4865 5.55722H1.44357C1.19714 5.55722 1 5.75383 1 5.99959C1 6.24535 1.19714 6.44196 1.44357 6.44196H10.4865L6.67515 10.2431C6.50101 10.4167 6.50101 10.6953 6.67515 10.8689C6.76058 10.9541 6.87558 11 6.98729 11C7.099 11 7.214 10.9574 7.29943 10.8689L11.8665 6.31416C12.0439 6.13722 12.0439 5.85541 11.8698 5.68502Z" fill="#253858" stroke="#253858" stroke-width="0.5"/>
</svg>
