<svg width="90" height="72" viewBox="0 0 90 72" fill="none" xmlns="http://www.w3.org/2000/svg">
<path d="M0.37891 19.8463C0.417732 18.5522 0.644188 17.1977 1.47785 16.2159C5.89454 11.0141 11.673 17.7281 11.8626 17.7853C12.0691 17.8489 14.9046 15.0509 18.8689 15.9742C20.5039 16.3558 21.8467 17.7026 22.4987 19.2638C23.5802 21.8513 22.5743 24.8364 21.2415 27.3018C21.1962 27.3836 21.1514 27.4656 21.1061 27.5479C19.4885 27.0589 17.2523 27.0678 15.9229 28.2474C15.6293 29.0346 14.3815 29.2458 17.4156 30.7911C16.8964 30.4095 15.1778 31.109 15.2859 31.5541C15.0415 32.5716 15.467 33.1796 16.8979 33.6285C15.2376 35.6285 13.4224 37.5074 11.5699 39.3282C8.85194 36.6078 0.142996 27.7285 0.37891 19.8463Z" fill="#C7B0E3"/>
<path d="M58.0629 15.2468L58.9003 17.3644L53.8756 21.5997L50.5258 24.9879L47.5947 28.3761L45.5011 26.2584L44.6637 30.4937L43.4075 31.7643V34.7289L42.9887 38.1171L42.1513 41.0818V43.1995L40.4764 42.3524L37.5453 41.0818L35.033 38.1171L32.1019 36.8466H29.5895L27.9146 39.3877L22.8899 43.1995L23.3086 45.3171L24.1461 48.2818L26.6584 50.8229L28.7521 52.517L30.427 53.3641L33.7768 55.9052L37.1266 57.5993H40.4764L42.1513 59.2934L42.9887 58.4464L44.6637 57.5993L47.5947 56.7523L48.8509 57.5993L49.6884 60.1405L50.9445 62.6816V65.2228V67.3404L51.782 71.5757H89.8861L89.0486 67.3404L86.5363 62.6816V58.4464L84.4426 54.2111L84.8614 52.517L86.5363 49.9759V46.1641L87.3737 40.6583V36.8466L86.5363 35.1525L84.4426 33.0348L80.6741 29.6466L77.3243 27.529L74.3932 23.7173L69.7872 19.9055L66.8561 18.2114H62.6689L59.3191 14.8232L58.0629 15.2468Z" fill="#E0CDF8"/>
<path d="M11.5714 39.7011C11.6694 39.7006 11.7635 39.6618 11.8342 39.5928C14.044 37.4236 15.7452 35.6037 17.188 33.8651C17.2283 33.8169 17.2557 33.7595 17.2687 33.6979C17.2811 33.6364 17.2786 33.5726 17.2612 33.5122C17.2438 33.4519 17.2119 33.3968 17.1681 33.352C17.1248 33.3071 17.0706 33.2739 17.0113 33.2552C15.6466 32.8266 15.4814 32.3554 15.6541 31.6355C15.6606 31.6069 15.6645 31.5777 15.6645 31.5484C15.7686 31.4301 16.1677 31.198 16.6405 31.0969C16.9083 31.0397 17.0706 31.0537 17.1477 31.074L17.2478 31.1249C17.3324 31.1677 17.4299 31.1767 17.521 31.1501C17.6121 31.1236 17.6897 31.0634 17.7385 30.9816C17.7878 30.8998 17.8047 30.8023 17.7863 30.7085C17.7674 30.6147 17.7146 30.5313 17.6385 30.475C17.5777 30.4311 17.512 30.3954 17.4419 30.3688C16.0383 29.6419 15.8253 29.3151 15.7999 29.2063C15.7865 29.1497 15.8785 29.0251 15.9671 28.9042C16.0717 28.7715 16.1617 28.6278 16.2364 28.4756C17.4533 27.4582 19.4944 27.4582 20.9995 27.9129C21.0821 27.9384 21.1707 27.9345 21.2508 27.9017C21.331 27.8689 21.3977 27.8094 21.4395 27.7329L21.4748 27.6693C21.5092 27.6057 21.543 27.5466 21.5763 27.4849C23.3616 24.182 23.7897 21.3661 22.8495 19.115C22.1054 17.3344 20.6133 15.9875 18.9569 15.6022C15.5924 14.8206 13.0212 16.5758 12.0526 17.2365L11.9227 17.3249L11.8964 17.2988C11.5002 16.9141 10.5759 16.013 9.38143 15.241C7.87237 14.2636 6.431 13.8013 5.09664 13.8655C3.63138 13.9367 2.31841 14.6438 1.19508 15.9672C0.197668 17.1417 0.0383987 18.7366 0.00505066 19.8349C-0.0994682 23.2815 1.43348 27.2878 4.5606 31.743C6.91229 35.0949 9.53871 37.8294 11.3096 39.5908C11.3792 39.6603 11.4733 39.7001 11.5714 39.7011ZM16.2583 33.7945C14.9677 35.3169 13.4617 36.9202 11.5734 38.7843C2.44633 29.6063 0.648594 23.4322 0.759085 19.8571C0.806368 18.2966 1.12639 17.218 1.76546 16.4638C2.74843 15.3058 3.88073 14.6877 5.13148 14.6273C6.97997 14.5377 9.08031 15.6213 11.3713 17.8482C11.6007 18.0714 11.6485 18.1179 11.7555 18.1503C11.966 18.2139 12.1044 18.1204 12.4727 17.8686C13.3666 17.2587 15.7422 15.6378 18.7857 16.3456C20.2111 16.6769 21.5012 17.8514 22.1522 19.4113C22.9973 21.4329 22.5832 24.0198 20.9219 27.1002C19.2247 26.6665 17.0238 26.765 15.676 27.9561C15.6297 27.9976 15.5939 28.05 15.5715 28.1087C15.5172 28.2308 15.447 28.3451 15.3629 28.4483C15.1887 28.6849 14.9717 28.9793 15.0663 29.3825C15.138 29.6871 15.3629 30.0069 16.0771 30.4674C15.8308 30.5519 15.5949 30.6664 15.3754 30.8082C14.9901 31.0708 14.8976 31.3284 14.906 31.5242C14.6293 32.8158 15.3893 33.4326 16.2613 33.7945H16.2583Z" fill="#C7B0E3"/>
<path d="M12.7496 33.7597C13.5922 33.7597 15.04 33.2026 15.4745 32.0065C15.4934 31.9591 15.5024 31.9082 15.5019 31.8571C15.5009 31.8059 15.49 31.7555 15.4696 31.7087C15.4492 31.662 15.4193 31.6198 15.3825 31.5848C15.3456 31.5499 15.3018 31.5228 15.2545 31.5052C15.2073 31.4876 15.1565 31.4798 15.1062 31.4823C15.0555 31.4848 15.0062 31.4976 14.9604 31.5199C14.9151 31.5421 14.8743 31.5735 14.8409 31.6119C14.8076 31.6504 14.7822 31.6953 14.7663 31.7439C14.4483 32.6182 13.2771 32.9966 12.7496 32.9966C11.248 32.9966 10.0271 31.5194 10.0271 29.7038C10.0271 27.8883 11.248 26.4111 12.7496 26.4111C13.6624 26.4111 15.0604 27.0343 15.3133 28.4199C15.3332 28.5179 15.3899 28.6041 15.472 28.66C15.5537 28.716 15.6542 28.7372 15.7513 28.7191C15.8483 28.701 15.9349 28.6451 15.9917 28.5633C16.0484 28.4816 16.0713 28.3805 16.0554 28.2819C15.7408 26.5713 14.1193 25.6479 12.7496 25.6479C10.8324 25.6479 9.27256 27.4679 9.27256 29.7038C9.27256 31.9397 10.8324 33.7597 12.7496 33.7597Z" fill="white"/>
<path d="M53.2386 10.2016C53.3196 10.2015 53.3984 10.1751 53.4634 10.1262C53.5284 10.0773 53.5761 10.0085 53.5995 9.93008C54.0818 8.31522 54.389 6.65204 54.5155 4.96992C54.5381 4.66853 54.5463 4.34926 54.3778 4.05229C54.2426 3.81448 54.0257 3.66441 53.8818 3.56459C50.2135 1.02843 45.821 -0.213854 41.3841 0.0301514C41.3015 0.0347828 41.2224 0.0670014 41.1592 0.121723C41.0964 0.176444 41.0531 0.250648 41.0357 0.332855C40.7386 1.77222 40.5549 3.23334 40.4877 4.70221C40.4853 4.7523 40.4927 4.80239 40.5097 4.84956C40.5266 4.89673 40.5525 4.94007 40.5858 4.97712C40.6196 5.01417 40.66 5.04423 40.7048 5.06552C40.7495 5.08681 40.7983 5.09895 40.8476 5.10126C40.8974 5.10353 40.9466 5.09598 40.9934 5.07891C41.0402 5.06185 41.083 5.03567 41.1193 5.00184C41.1562 4.96806 41.186 4.92728 41.2069 4.88187C41.2278 4.83647 41.2398 4.78728 41.2423 4.73719C41.3035 3.40712 41.4628 2.08354 41.7181 0.777322C45.8914 0.611195 50.0066 1.80786 53.4555 4.19028C53.575 4.2736 53.678 4.34866 53.7233 4.4294C53.7862 4.53814 53.7774 4.71811 53.7635 4.90891C53.6413 6.53605 53.344 8.14487 52.8771 9.70687C52.8481 9.80367 52.8583 9.90818 52.9054 9.99734C52.9526 10.0865 53.0329 10.1531 53.1286 10.1825C53.1642 10.1942 53.2012 10.2007 53.2386 10.2016Z" fill="#C7B0E3"/>
<path d="M42.6597 3.77875C42.7477 3.77865 42.8329 3.74754 42.9005 3.69076C42.9682 3.63397 43.014 3.55513 43.0299 3.46779L43.3251 1.878C43.3355 1.82827 43.336 1.77697 43.3261 1.72708C43.3166 1.67719 43.2977 1.62977 43.2698 1.58748C43.242 1.54525 43.2056 1.50905 43.1638 1.48101C43.122 1.45302 43.0752 1.43374 43.0255 1.42433C42.9762 1.41491 42.9254 1.41557 42.8767 1.42629C42.8274 1.43696 42.7811 1.45745 42.7398 1.48655C42.6985 1.5157 42.6636 1.5528 42.6368 1.59579C42.6099 1.63873 42.592 1.68671 42.584 1.7368L42.2889 3.32658C42.2789 3.38171 42.2809 3.43839 42.2948 3.49261C42.3088 3.54683 42.3341 3.59732 42.3695 3.64041C42.4048 3.68351 42.4496 3.71819 42.4994 3.742C42.5497 3.76576 42.6044 3.7781 42.6597 3.7781V3.77875Z" fill="#C7B0E3"/>
<path d="M43.7903 3.22928C43.8813 3.22878 43.9694 3.19485 44.0376 3.13378C44.1063 3.07272 44.1501 2.98865 44.1621 2.89718C44.174 2.80566 44.1526 2.71293 44.1018 2.63616C44.0516 2.55939 43.9749 2.50376 43.8868 2.47955C43.4513 2.36064 42.4012 2.08784 42.0637 2.12282C42.0144 2.12786 41.9666 2.14266 41.9228 2.16642C41.8795 2.19018 41.8407 2.2224 41.8094 2.26121C41.778 2.30003 41.7546 2.34473 41.7402 2.39271C41.7263 2.44068 41.7213 2.49107 41.7263 2.54091C41.7312 2.59075 41.7462 2.63913 41.7696 2.68328C41.7929 2.72738 41.8248 2.76639 41.8631 2.79811C41.9014 2.82977 41.9457 2.85348 41.993 2.86793C42.0408 2.88233 42.0906 2.88716 42.1398 2.88208C42.3006 2.87256 43.0716 3.04745 43.6907 3.2166C43.7231 3.2252 43.7564 3.22948 43.7903 3.22928Z" fill="#C7B0E3"/>
<path d="M47.2696 29.1406C47.3227 29.1404 47.3751 29.1292 47.4236 29.1075C47.5147 29.0658 47.5857 28.9894 47.6211 28.8948C47.6565 28.8002 47.6533 28.6954 47.6123 28.6032C46.4988 26.0945 44.2718 23.2068 41.9147 20.1493C40.7505 18.6397 39.5466 17.0779 38.474 15.5504C37.4681 14.1209 37.1536 12.9025 37.5801 12.1164C37.8837 11.5607 38.4914 11.3355 38.8294 11.3534C38.8821 11.3563 38.9354 11.3478 38.9851 11.3285C39.0344 11.3093 39.0797 11.2796 39.117 11.2414L40.6166 9.71524C40.652 9.67985 40.6804 9.63772 40.6993 9.59125C40.7187 9.54484 40.7286 9.495 40.7286 9.44461C40.7291 9.39427 40.7192 9.34438 40.7003 9.29786C40.6808 9.2513 40.653 9.20906 40.6176 9.17352C40.5823 9.13798 40.5405 9.10984 40.4947 9.09076C40.4484 9.07163 40.3991 9.06196 40.3494 9.06226C40.2996 9.06251 40.2503 9.07278 40.2045 9.09242C40.1587 9.11205 40.1169 9.14064 40.0821 9.17664L38.6915 10.5903C38.3257 10.6219 37.9728 10.7436 37.6642 10.9447C37.3551 11.1457 37.0998 11.4201 36.9196 11.7438C36.513 12.4897 36.3453 13.8315 37.8583 15.9866C38.9414 17.5281 40.1508 19.0962 41.3199 20.6129C43.6462 23.6329 45.8468 26.4856 46.9238 28.9097C46.9529 28.9781 47.0011 29.0364 47.0626 29.0774C47.1241 29.1185 47.196 29.1404 47.2696 29.1406Z" fill="#3A3A3A"/>
<path d="M43.7821 11.2781C43.8717 11.278 43.9588 11.2454 44.027 11.1862C44.0947 11.1271 44.14 11.0453 44.1539 10.9555C44.1678 10.8658 44.1494 10.774 44.1026 10.6966C44.0554 10.6192 43.9827 10.5614 43.8971 10.5335L42.9061 10.2111C42.8589 10.1947 42.8086 10.1881 42.7588 10.1916C42.7086 10.195 42.6598 10.2085 42.615 10.2312C42.5707 10.2539 42.5304 10.2855 42.498 10.3239C42.4657 10.3624 42.4408 10.407 42.4254 10.4552C42.4099 10.5034 42.4044 10.5542 42.4084 10.6047C42.4129 10.6552 42.4268 10.7042 42.4502 10.7492C42.4736 10.794 42.505 10.8338 42.5438 10.866C42.5821 10.8984 42.6269 10.9226 42.6747 10.9373L43.6661 11.2597C43.7035 11.2721 43.7428 11.2782 43.7821 11.2781Z" fill="#3A3A3A"/>
<path d="M40.8066 10.2897C40.8987 10.2894 40.9878 10.2548 41.057 10.1925C41.1257 10.1302 41.1695 10.0445 41.1804 9.95161C41.1909 9.85878 41.1675 9.76519 41.1142 9.68872C41.061 9.61225 40.9818 9.55814 40.8922 9.53669L40.1531 9.36186C40.0556 9.3385 39.9531 9.35526 39.868 9.40842C39.7829 9.46163 39.7216 9.54686 39.6987 9.64543C39.6758 9.74405 39.6923 9.84785 39.745 9.93409C39.7973 10.0203 39.8819 10.0818 39.979 10.1052L40.718 10.2795C40.7469 10.2864 40.7768 10.2899 40.8066 10.2897Z" fill="#3A3A3A"/>
<path d="M42.1008 16.3476C42.1556 16.3476 42.2098 16.3356 42.2596 16.3123C42.3094 16.289 42.3532 16.2551 42.3885 16.2128C42.5025 16.0879 42.6533 16.0042 42.819 15.9748C42.9843 15.9454 43.1545 15.9718 43.3033 16.05C43.3904 16.1006 43.4934 16.1142 43.5905 16.0879C43.687 16.0615 43.7697 15.9974 43.8194 15.9095C43.8697 15.8216 43.8831 15.7173 43.8573 15.6193C43.8309 15.5214 43.7677 15.438 43.6806 15.3874C43.3785 15.2209 43.0296 15.1631 42.6906 15.2235C42.3517 15.2838 42.0431 15.4585 41.8151 15.7193C41.7689 15.7748 41.739 15.8427 41.729 15.9149C41.7196 15.987 41.7305 16.0605 41.7609 16.1265C41.7913 16.1926 41.8395 16.2485 41.9002 16.2877C41.961 16.3268 42.0311 16.3476 42.1033 16.3476H42.1008Z" fill="#3A3A3A"/>
<path d="M59.1199 17.5748C59.201 17.5751 59.2801 17.549 59.3454 17.5002C59.4107 17.4514 59.4587 17.3827 59.4823 17.3041C59.5058 17.2256 59.5037 17.1414 59.4763 17.0642C59.4488 16.9869 59.3975 16.9207 59.3298 16.8753C58.1284 16.0632 56.9458 15.1901 55.8141 14.2814C55.5626 14.0811 55.3507 13.8998 55.2615 13.6766C55.1477 13.3949 55.2269 13.0573 55.3193 12.6662C55.3985 12.3304 55.4803 11.9825 55.4513 11.6131C55.3771 10.6719 54.5139 9.85415 53.4866 9.75049C52.6693 9.66849 51.7923 9.98579 51.0126 10.6408C50.9746 10.6729 50.9432 10.7123 50.9201 10.7567C50.8971 10.8011 50.883 10.8496 50.8785 10.8995C50.874 10.9495 50.8793 10.9998 50.8941 11.0476C50.9089 11.0955 50.9328 11.14 50.9646 11.1784C50.9963 11.2169 51.0352 11.2488 51.0791 11.272C51.123 11.2953 51.171 11.3096 51.2204 11.3141C51.2697 11.3186 51.3195 11.3133 51.3668 11.2983C51.4141 11.2834 51.458 11.2592 51.4961 11.2271C51.857 10.9225 52.5851 10.4239 53.4118 10.5072C54.0764 10.5746 54.6541 11.0961 54.6994 11.671C54.7189 11.9203 54.6541 12.1956 54.5856 12.4869C54.4787 12.9402 54.3574 13.4547 54.5636 13.9634C54.7346 14.3863 55.0873 14.6699 55.3451 14.8766C56.4925 15.7987 57.692 16.6832 58.9105 17.5068C58.972 17.55 59.0449 17.5737 59.1199 17.5748Z" fill="#3A3A3A"/>
<path d="M49.3522 11.5441C48.6178 11.3648 48.0268 10.8089 47.578 10.1947C47.18 10.8128 46.2935 10.8942 45.5994 10.6678C44.9053 10.4414 44.3029 9.98863 43.617 9.73999C43.073 9.54285 42.4932 9.47927 41.9193 9.40356C41.0498 9.28913 40.1848 9.14223 39.3198 8.99594C38.4548 8.8497 37.5046 8.65382 36.9686 7.95115C36.4475 7.26816 36.5207 6.19347 37.1298 5.58998C37.739 4.98648 38.6952 4.9083 39.5437 5.01764C40.3923 5.12704 41.2345 5.38584 42.0866 5.31526C42.6594 5.26759 43.2099 5.07236 43.7783 4.98462C45.4976 4.71816 47.3359 5.53405 48.3048 6.99411C48.6751 7.55114 48.9643 8.22521 49.5622 8.52031C50.023 8.7473 50.5681 8.69198 51.061 8.83827C51.3722 8.93573 51.6538 9.11162 51.8792 9.34949C52.1047 9.5873 52.2666 9.87923 52.3499 10.1978C52.3209 10.084 51.4778 10.4866 51.4068 10.5412C51.2062 10.6932 51.1635 10.9597 50.9774 11.1402C50.5599 11.5466 49.9092 11.6802 49.3522 11.5441Z" fill="#3A3A3A"/>
<path d="M49.784 11.9778C50.3297 11.9778 50.8659 11.7781 51.2388 11.4163C51.3468 11.3053 51.4366 11.1776 51.5047 11.038C51.5356 10.9709 51.5763 10.9089 51.6255 10.8542C51.8341 10.7441 52.0506 10.6497 52.273 10.5718C52.3293 10.5841 52.3876 10.583 52.4434 10.5686C52.5403 10.5439 52.6236 10.4812 52.6749 10.3944C52.7261 10.3076 52.7413 10.2037 52.7169 10.1057C52.6174 9.72323 52.4232 9.37276 52.1526 9.08737C51.882 8.80198 51.5439 8.59105 51.1702 8.47456C50.9421 8.41184 50.7091 8.36925 50.4736 8.34735C50.1995 8.31367 49.9405 8.28377 49.7293 8.1782C49.3634 7.99763 49.1226 7.59952 48.8673 7.17731C48.7887 7.0501 48.7076 6.91276 48.6215 6.78364C47.564 5.19385 45.5955 4.31886 43.7227 4.60943C43.4709 4.6489 43.2196 4.7074 42.9812 4.76464C42.678 4.84443 42.37 4.90157 42.0584 4.9357C41.5214 4.9802 40.9804 4.88037 40.407 4.77481C40.1422 4.72582 39.8685 4.67558 39.5937 4.63999C38.4127 4.48801 37.47 4.722 36.8688 5.31789C36.1202 6.05998 36.0321 7.3458 36.6722 8.18459C37.2784 8.97949 38.2828 9.20713 39.2598 9.37311C40.1133 9.51744 40.9958 9.6669 41.8728 9.78264L42.0251 9.80298C42.5437 9.87038 43.0309 9.93397 43.4908 10.0993C43.7964 10.2192 44.093 10.3609 44.3787 10.5235C44.7272 10.7098 45.0881 10.905 45.4848 11.0322C46.1362 11.2433 46.9849 11.223 47.5558 10.7778C48.0776 11.3845 48.651 11.7673 49.2647 11.9174C49.4348 11.958 49.6091 11.9783 49.784 11.9778ZM51.8335 9.9162C51.6082 10.0048 51.39 10.1111 51.1809 10.2342C51.038 10.3516 50.9227 10.4998 50.8433 10.6678C50.8105 10.7385 50.7682 10.8042 50.7176 10.8631C50.412 11.1594 49.9002 11.2834 49.4419 11.1715C48.8937 11.0379 48.3687 10.6322 47.8821 9.96321C47.8459 9.91373 47.7984 9.87381 47.7437 9.84692C47.6889 9.81999 47.6285 9.8069 47.5677 9.80872C47.5068 9.81053 47.4474 9.82719 47.3943 9.8573C47.3412 9.88745 47.2961 9.93009 47.2628 9.98169C46.9755 10.4268 46.2669 10.4796 45.7156 10.2996C45.3824 10.1915 45.0661 10.0224 44.7317 9.84305C44.4141 9.66368 44.0846 9.50747 43.7451 9.37563C43.2106 9.18488 42.6571 9.10982 42.1211 9.0399L41.9708 9.02016C41.1073 8.90634 40.2313 8.75819 39.3847 8.61446C38.5207 8.46822 37.7089 8.28885 37.2694 7.71274C36.8623 7.17917 36.9205 6.32895 37.3953 5.85715C37.9398 5.31789 38.8412 5.30641 39.4972 5.39099C39.7515 5.42406 40.0153 5.47304 40.2701 5.5182C40.8664 5.6282 41.4825 5.74202 42.1186 5.68926C42.468 5.65191 42.8139 5.58813 43.1534 5.49847C43.3888 5.44249 43.6113 5.38973 43.8357 5.35474C45.4012 5.11184 47.1113 5.8711 47.9946 7.19891C48.072 7.31464 48.1456 7.43672 48.2228 7.56519C48.5095 8.03896 48.8346 8.5763 49.3985 8.85419C49.7236 9.01443 50.0587 9.05515 50.3825 9.09457C50.5756 9.11239 50.7669 9.14622 50.9546 9.19571C51.3267 9.31562 51.6404 9.57287 51.8335 9.9162Z" fill="#3A3A3A"/>
<path d="M45.7708 9.10792C46.2606 9.10792 46.7315 8.98071 47.0754 8.57627C47.1078 8.53831 47.1324 8.49431 47.148 8.44669C47.1635 8.39911 47.1696 8.34887 47.166 8.29888C47.1623 8.24889 47.149 8.20011 47.1267 8.15536C47.1044 8.1106 47.0736 8.07068 47.0361 8.03796C46.9986 8.00524 46.955 7.98032 46.908 7.96456C46.861 7.94886 46.8113 7.94267 46.7619 7.94634C46.7124 7.95007 46.6642 7.96356 46.62 7.98611C46.5757 8.00861 46.5362 8.03977 46.5039 8.07773C46.243 8.38421 45.7362 8.42494 44.8617 8.20998C44.7651 8.18788 44.6639 8.2051 44.5797 8.25791C44.4956 8.31066 44.4354 8.39483 44.412 8.49214C44.3886 8.58945 44.404 8.6922 44.4548 8.77813C44.5055 8.86407 44.5882 8.92634 44.6838 8.95146C45.0388 9.04635 45.4037 9.09886 45.7708 9.10792Z" fill="white"/>
<path d="M40.3437 7.64863C40.5941 7.64964 40.8414 7.59471 41.0679 7.48774C41.1565 7.44329 41.2242 7.36556 41.2565 7.27127C41.2889 7.17698 41.2834 7.07358 41.2411 6.98331C41.1988 6.89305 41.1236 6.82308 41.0311 6.78839C40.9385 6.75371 40.8364 6.75708 40.7464 6.79776C40.5333 6.89169 40.2954 6.91092 40.0705 6.85253C39.845 6.79413 39.6459 6.66138 39.5041 6.47537C39.4762 6.43207 39.4399 6.39492 39.3976 6.36618C39.3548 6.33743 39.3075 6.3177 39.2572 6.30818C39.2069 6.29867 39.1552 6.29952 39.1054 6.31075C39.0556 6.32198 39.0089 6.34327 38.967 6.37343C38.9257 6.40358 38.8909 6.44194 38.8645 6.48619C38.8381 6.53039 38.8207 6.57958 38.8137 6.63072C38.8068 6.68187 38.8103 6.73392 38.8237 6.78371C38.8371 6.83355 38.8605 6.88006 38.8919 6.92049C39.0611 7.14808 39.2806 7.33248 39.5324 7.45894C39.7848 7.58535 40.0625 7.65034 40.3437 7.64863Z" fill="white"/>
<path d="M47.0922 29.7582C47.1503 29.7582 47.2075 29.7447 47.2596 29.7186C47.3116 29.6926 47.3569 29.6548 47.3921 29.6081C50.9444 24.9008 55.1388 20.7268 59.85 17.211C59.9305 17.1509 59.9842 17.0609 59.9992 16.9609C60.0141 16.8608 59.9892 16.7589 59.9298 16.6774C59.8705 16.5959 59.7816 16.5417 59.6826 16.5265C59.5837 16.5114 59.4829 16.5366 59.4024 16.5966C54.6338 20.1557 50.3882 24.3806 46.7924 29.1452C46.7497 29.2017 46.7235 29.2692 46.7168 29.34C46.71 29.4108 46.7229 29.4821 46.7541 29.5459C46.7853 29.6096 46.8335 29.6633 46.8932 29.7008C46.953 29.7383 47.0219 29.7582 47.0922 29.7582Z" fill="#3A3A3A"/>
<path d="M48.9447 35.3309H48.9604C49.0316 35.328 49.1005 35.3046 49.1592 35.2636C49.2178 35.2227 49.2638 35.1657 49.2917 35.0994C50.082 33.2254 50.9773 31.1008 52.5504 29.6554C53.0628 29.1848 53.6323 28.795 54.2347 28.3835C54.8722 27.9479 55.5304 27.4971 56.1094 26.9445C57.1827 25.9206 57.9151 24.6418 58.6243 23.4049C58.882 22.9547 59.1486 22.4892 59.4271 22.0441C60.3073 20.6451 61.8382 19.0248 63.5087 18.6877C63.5781 18.6743 63.6424 18.6416 63.6943 18.5931C63.7461 18.5446 63.7835 18.4823 63.8021 18.4134C63.8207 18.3445 63.8198 18.2717 63.7995 18.2032C63.7792 18.1348 63.7404 18.0736 63.6873 18.0264C63.1416 17.5374 62.5311 16.9956 61.9407 16.4722C61.3504 15.9488 60.7393 15.407 60.1942 14.9187C59.9346 14.6853 59.6107 14.3953 59.1882 14.2827C58.723 14.1594 58.1031 14.3113 57.868 14.836C57.8477 14.8819 57.8366 14.9314 57.8352 14.9817C57.8339 15.032 57.8423 15.0821 57.8601 15.129C57.8779 15.176 57.9046 15.219 57.9388 15.2555C57.973 15.292 58.014 15.3213 58.0594 15.3419C58.1048 15.3624 58.1538 15.3736 58.2035 15.375C58.2532 15.3764 58.3027 15.3678 58.3491 15.3498C58.3956 15.3318 58.438 15.3048 58.4742 15.2702C58.5103 15.2356 58.5393 15.1941 58.5595 15.1482C58.6098 15.0344 58.8179 14.974 58.9997 15.0211C59.2511 15.0846 59.4875 15.3008 59.6975 15.4897C60.2438 15.9794 60.8556 16.5218 61.4472 17.0464C61.8571 17.4096 62.2765 17.7815 62.6769 18.1383C61.0555 18.7532 59.639 20.2864 58.7959 21.6358C58.5093 22.0937 58.2383 22.5655 57.9786 23.0228C57.2663 24.2666 56.5955 25.4392 55.6002 26.3893C55.0658 26.898 54.461 27.3133 53.8203 27.7521C53.2224 28.161 52.6038 28.5845 52.0512 29.0919C50.5642 30.4579 49.6658 32.3237 48.9139 34.075C48.6913 33.6648 48.4738 33.2807 48.2638 32.9049C47.94 32.3326 47.6056 31.7336 47.2535 31.0607C47.2198 30.9962 47.1685 30.9427 47.1057 30.9067C47.0428 30.8707 46.9711 30.8537 46.8991 30.8577C46.8269 30.8617 46.7575 30.8866 46.699 30.9294C46.6404 30.9721 46.5953 31.0309 46.5688 31.0989C46.4041 31.5212 46.2343 31.9097 46.0709 32.2849C45.9369 32.5914 45.8062 32.8909 45.6823 33.1987C45.6345 32.9252 45.5874 32.6588 45.5403 32.3955C45.4145 31.6801 45.2812 30.9405 45.158 30.1132C45.0322 29.2541 45.0058 28.1508 45.3221 27.6331C45.3744 27.5469 45.3907 27.4431 45.3675 27.3447C45.3442 27.2462 45.2832 27.1612 45.1979 27.1082C45.1126 27.0553 45.01 27.0388 44.9127 27.0623C44.8153 27.0858 44.7313 27.1475 44.6789 27.2338C44.181 28.0541 44.2979 29.4627 44.4124 30.229C44.5383 31.0677 44.6695 31.813 44.7977 32.5335C44.926 33.254 45.0568 33.9885 45.1806 34.8158C45.1937 34.9023 45.2357 34.9816 45.2997 35.0404C45.3637 35.0992 45.4456 35.1341 45.532 35.1391C45.6183 35.1441 45.7037 35.1189 45.7739 35.0678C45.8441 35.0167 45.8947 34.9428 45.9175 34.8584C46.1419 34.0146 46.4425 33.3253 46.7612 32.5959C46.8278 32.442 46.8957 32.2868 46.9636 32.1278C47.1849 32.5335 47.3987 32.9144 47.608 33.2864C47.9319 33.8626 48.267 34.4585 48.619 35.1306C48.6508 35.1902 48.6978 35.2402 48.755 35.2754C48.8123 35.3106 48.8777 35.3298 48.9447 35.3309Z" fill="#3A3A3A"/>
<path d="M42.1401 43.1457C42.1978 43.1457 42.255 43.1321 42.3068 43.1065C42.3591 43.0803 42.4043 43.0425 42.4397 42.9962C42.4745 42.9494 42.4989 42.8955 42.5099 42.8376C42.5213 42.7803 42.5193 42.7208 42.5039 42.6645C42.2739 41.8016 42.5188 40.8456 42.7552 39.9208L42.7946 39.7678C43.2549 37.96 43.5864 36.1216 43.7855 34.2658C43.8149 33.9885 43.8333 33.7043 43.8482 33.4289C43.9184 32.3294 43.9846 31.2903 44.7378 30.7155C44.7787 30.6859 44.8134 30.6483 44.8398 30.6049C44.8662 30.5615 44.8837 30.5133 44.8914 30.4629C44.899 30.4126 44.8966 30.3612 44.8843 30.3118C44.8721 30.2624 44.8501 30.216 44.8198 30.1753C44.7895 30.1346 44.7514 30.1005 44.7079 30.075C44.6643 30.0494 44.6161 30.0329 44.5664 30.0265C44.5161 30.0201 44.4654 30.0238 44.4171 30.0375C44.3683 30.0512 44.323 30.0746 44.2837 30.1063C43.2539 30.8923 43.1733 32.1571 43.0957 33.38C43.0787 33.6471 43.0608 33.923 43.0325 34.1838C42.8374 36.0028 42.5128 37.8055 42.0614 39.5775L42.0221 39.7295C41.7608 40.747 41.4901 41.8046 41.7708 42.8633C41.7927 42.9454 41.8409 43.0174 41.9076 43.0687C41.9743 43.1196 42.0559 43.1467 42.1401 43.1457Z" fill="#3A3A3A"/>
<path d="M43.5302 45.6487C43.591 45.6487 43.6512 45.6341 43.7049 45.6054C43.7587 45.5772 43.805 45.536 43.8398 45.4856C43.8746 45.4353 43.8965 45.3774 43.9045 45.3165C43.9125 45.2556 43.9055 45.1936 43.8846 45.1357C43.6691 44.5427 43.4008 43.9708 43.0823 43.4277C42.9161 43.1447 42.7224 42.8553 42.4333 42.6544C42.056 42.3911 41.5822 42.3549 41.2308 42.5618C41.1502 42.6151 41.0929 42.6977 41.0705 42.7923C41.0486 42.8875 41.0631 42.9872 41.1114 43.0717C41.1596 43.1558 41.2378 43.2182 41.3304 43.2459C41.4224 43.2741 41.522 43.2651 41.6081 43.2213C41.7041 43.1644 41.8699 43.1911 42.0037 43.2847C42.1814 43.4075 42.3183 43.624 42.4308 43.8173C42.7264 44.3207 42.9763 44.8498 43.1764 45.399C43.2032 45.4725 43.2515 45.5355 43.3147 45.5803C43.3779 45.6251 43.4531 45.6487 43.5302 45.6487Z" fill="#3A3A3A"/>
<path d="M42.4097 47.2902C42.4266 47.2912 42.444 47.2912 42.4609 47.2902C42.56 47.2766 42.6495 47.2238 42.7103 47.1437C42.771 47.0632 42.7974 46.9615 42.7839 46.8613C42.6262 45.6707 42.4569 44.6055 41.9781 43.6178C41.4038 42.4328 40.4263 41.5971 39.3617 41.3826C39.2527 41.361 39.1457 41.3459 39.0426 41.3313C38.8814 41.3147 38.7226 41.282 38.5678 41.2341C38.1109 41.0725 37.7944 40.6139 37.4594 40.1296C37.4221 40.0758 37.3858 40.0224 37.3489 39.9701C36.4939 38.7543 35.4143 37.7178 34.17 36.9173C33.1094 36.2382 31.5357 35.5546 30.0594 36.1542C30.0132 36.1728 29.9709 36.2 29.935 36.2352C29.8992 36.27 29.8703 36.3117 29.8509 36.358C29.831 36.4044 29.8205 36.4542 29.8195 36.5045C29.819 36.5549 29.828 36.6047 29.8469 36.6515C29.8653 36.6984 29.8927 36.7406 29.9276 36.7769C29.9624 36.8126 30.0042 36.8413 30.05 36.861C30.0958 36.8806 30.1451 36.8907 30.1948 36.8912C30.2446 36.8917 30.2939 36.8816 30.3397 36.863C31.5824 36.3586 33.0198 37.0855 33.7664 37.5622C34.9281 38.3098 35.9354 39.2779 36.7333 40.4131L36.8418 40.5606C37.213 41.0972 37.6331 41.7053 38.32 41.949C38.521 42.0139 38.7286 42.0582 38.9386 42.0809C39.0362 42.095 39.1272 42.1076 39.2158 42.1257C40.051 42.2933 40.8304 42.9744 41.3012 43.9481C41.7308 44.8346 41.8885 45.8369 42.0379 46.96C42.0498 47.0511 42.0941 47.1347 42.1628 47.1956C42.231 47.2565 42.3186 47.2902 42.4097 47.2902Z" fill="#3A3A3A"/>
<path d="M42.4019 59.6786C42.4273 59.6786 42.4547 59.6786 42.482 59.6786C42.9135 59.6414 43.152 59.297 43.3252 59.0488C43.3779 58.9688 43.4356 58.8928 43.4974 58.8203C43.6581 58.6456 43.9224 58.5449 44.1777 58.4478L47.8451 57.0498C47.8926 57.0332 47.9362 57.007 47.9735 56.9728C48.0109 56.9385 48.0411 56.8972 48.0624 56.8514C48.0837 56.8051 48.0957 56.7553 48.0976 56.7044C48.0996 56.6536 48.0915 56.6032 48.0738 56.5554C48.0561 56.5081 48.0292 56.4643 47.9946 56.4276C47.9601 56.3903 47.9185 56.3611 47.8725 56.3405C47.8265 56.3198 47.7769 56.3093 47.7266 56.3082C47.6763 56.3072 47.6264 56.3168 47.5798 56.3359L43.913 57.7299C43.6069 57.8462 43.2266 57.9912 42.9449 58.2983C42.8593 58.3954 42.7807 58.4986 42.7085 58.6068C42.6104 58.7478 42.499 58.9079 42.4188 58.9149C42.3138 58.925 42.1759 58.6662 42.0654 58.4598C42.0007 58.334 41.9296 58.2117 41.8524 58.0934C41.3801 57.4002 40.5444 57.2466 39.7292 57.1484C38.2201 56.9662 36.6275 56.7251 35.2513 55.972C34.7486 55.6961 34.2862 55.3603 33.798 55.0049C33.4013 54.7159 32.9912 54.4174 32.5582 54.1556C31.9982 53.8173 31.4045 53.5435 30.8296 53.2787C30.6002 53.173 30.3618 53.0627 30.1318 52.9515C28.03 51.9341 26.3885 50.6705 25.2518 49.195C23.9184 47.4647 23.2784 45.3796 23.4959 43.4797C23.5018 43.4294 23.4983 43.379 23.4849 43.3302C23.4715 43.2818 23.4486 43.2365 23.4182 43.1968C23.3873 43.157 23.349 43.1243 23.3057 43.0996C23.2619 43.0749 23.2141 43.0593 23.1649 43.0533C23.1156 43.0478 23.0653 43.0518 23.0176 43.0659C22.9698 43.0795 22.925 43.1031 22.8862 43.1344C22.8468 43.1661 22.8145 43.2048 22.7906 43.2491C22.7667 43.2929 22.7518 43.3418 22.7463 43.3916C22.5064 45.4903 23.2027 47.7794 24.6565 49.6637C25.8655 51.2333 27.598 52.5714 29.8063 53.6396C30.0427 53.7544 30.2841 53.8652 30.5171 53.9734C31.0725 54.2276 31.6489 54.4939 32.1714 54.8111C32.5761 55.0557 32.9728 55.3442 33.357 55.6241C33.8433 55.9785 34.346 56.344 34.8924 56.6415C36.3856 57.4591 38.1261 57.7228 39.6396 57.9046C40.2836 57.9821 40.9376 58.0954 41.2313 58.5253C41.2875 58.6084 41.3428 58.7121 41.402 58.8218C41.5961 59.1868 41.8599 59.6786 42.4019 59.6786Z" fill="#3A3A3A"/>
<path d="M25.8043 46.677C25.8795 46.6765 25.9526 46.6539 26.0154 46.6111C26.0776 46.5688 26.1259 46.5079 26.1537 46.4374C26.1821 46.3669 26.1886 46.2894 26.1726 46.2149C26.1567 46.1404 26.1194 46.0724 26.0651 46.0201C25.1583 45.1346 24.6183 43.9339 24.5531 42.6608C24.5506 42.6109 24.5386 42.5616 24.5172 42.5163C24.4963 42.471 24.4665 42.4302 24.4297 42.3965C24.3933 42.3628 24.35 42.3366 24.3037 42.3195C24.2569 42.3029 24.2072 42.2953 24.1579 42.2973C24.1081 42.2998 24.0598 42.3119 24.0151 42.3336C23.9698 42.3547 23.9295 42.3849 23.8961 42.4222C23.8628 42.4594 23.8374 42.5027 23.8205 42.55C23.8035 42.5968 23.7961 42.6472 23.7986 42.697C23.8737 44.1645 24.4968 45.5484 25.542 46.5688C25.6122 46.6378 25.7063 46.6765 25.8043 46.677Z" fill="#3A3A3A"/>
<path d="M26.1656 44.2309C26.2422 44.2309 26.3169 44.2072 26.3801 44.1634C26.4433 44.1196 26.4916 44.0577 26.5189 43.9852C26.5458 43.9132 26.5508 43.8342 26.5329 43.7587C26.5145 43.6837 26.4742 43.6157 26.4174 43.5644C25.8958 43.0942 25.5096 42.4901 25.3005 41.8155C25.2702 41.7198 25.2035 41.6403 25.1149 41.594C25.0268 41.5477 24.9238 41.5386 24.8287 41.5688C24.7337 41.5985 24.6545 41.6655 24.6082 41.7546C24.5614 41.8437 24.552 41.9474 24.5809 42.044C24.8307 42.85 25.2921 43.5724 25.9157 44.1342C25.9844 44.1961 26.0735 44.2304 26.1656 44.2309Z" fill="#3A3A3A"/>
<path d="M22.436 43.7306C22.5699 43.7301 22.7037 43.7135 22.8336 43.6807C23.2985 43.5639 23.6758 43.2845 24.0082 43.0389C26.0061 41.5603 28.0721 40.0315 29.5751 37.9393C30.0022 37.3447 30.905 35.8356 30.0679 34.656C30.0395 34.6137 30.0032 34.5775 29.9609 34.5496C29.9186 34.5217 29.8713 34.5027 29.8215 34.4936C29.7717 34.4846 29.7205 34.4858 29.6712 34.4971C29.6219 34.5084 29.5756 34.5296 29.5348 34.5594C29.4935 34.5892 29.4592 34.627 29.4328 34.6706C29.4064 34.7143 29.389 34.7628 29.3815 34.8133C29.3741 34.8639 29.3771 34.9154 29.3895 34.9648C29.4024 35.0143 29.4243 35.0606 29.4552 35.1012C30.0211 35.898 29.2233 37.1318 28.9649 37.4902C27.531 39.4863 25.5133 40.9794 23.5623 42.4232C23.2726 42.6377 22.9725 42.8592 22.6515 42.9402C22.42 42.9986 22.1025 42.9704 21.9527 42.7721C21.9233 42.7308 21.886 42.6955 21.8432 42.6689C21.7999 42.6422 21.7521 42.6246 21.7023 42.617C21.6521 42.609 21.6013 42.612 21.5525 42.6246C21.5033 42.6371 21.4575 42.6598 21.4172 42.6905C21.3773 42.7217 21.3435 42.7605 21.3186 42.8048C21.2932 42.8491 21.2773 42.8979 21.2713 42.9488C21.2654 42.9996 21.2693 43.051 21.2838 43.1003C21.2977 43.1491 21.3211 43.1949 21.353 43.2347C21.5914 43.5539 21.9995 43.7306 22.436 43.7306Z" fill="#3A3A3A"/>
<path d="M20.6756 41.9706H20.7139C22.0075 41.8392 23.4519 40.9809 25.1286 39.3463C26.0678 38.4311 29.1098 35.3058 28.8087 33.5157C28.7903 33.4175 28.7346 33.3305 28.6534 33.2734C28.5723 33.2162 28.4723 33.1935 28.3747 33.2102C28.2777 33.2268 28.1906 33.2815 28.1323 33.3625C28.0746 33.4434 28.0502 33.544 28.0646 33.6429C28.2413 34.6954 26.3953 37.0522 24.607 38.7941C23.0776 40.2837 21.7432 41.0957 20.6388 41.2105C20.5388 41.2155 20.4452 41.2603 20.378 41.3353C20.3108 41.4108 20.2755 41.5095 20.2804 41.6107C20.2859 41.7124 20.3302 41.807 20.4044 41.875C20.479 41.9429 20.5766 41.9787 20.6766 41.9736L20.6756 41.9706Z" fill="#3A3A3A"/>
<path d="M27.8957 34.685C28.1864 34.381 28.376 33.9929 28.4387 33.5747L27.2208 33.9709L27.84 34.666L27.8957 34.685Z" fill="#3A3A3A"/>
<path d="M27.8926 35.0722C27.9429 35.0722 27.9926 35.062 28.0389 35.0422C28.0852 35.0225 28.127 34.9935 28.1624 34.9571C28.5088 34.596 28.7347 34.1341 28.8084 33.6363C28.8178 33.5722 28.8109 33.5067 28.7885 33.446C28.7656 33.3853 28.7283 33.3315 28.6795 33.2895C28.6302 33.2476 28.5715 33.219 28.5088 33.2063C28.4461 33.1936 28.3809 33.1974 28.3201 33.2173L27.1022 33.614C27.042 33.6336 26.9883 33.6681 26.9445 33.7142C26.9012 33.7604 26.8698 33.8168 26.8539 33.8783C26.8375 33.9398 26.8365 34.0045 26.8514 34.0664C26.8658 34.1283 26.8957 34.1855 26.938 34.2328L27.5566 34.9272C27.6487 35.0136 27.7672 35.0651 27.8926 35.0728V35.0722Z" fill="#3A3A3A"/>
<path d="M22.5549 40.7068C21.9537 40.949 21.3191 41.5234 20.6751 41.5883C20.8423 40.7889 21.3803 40.3766 21.4834 39.9985C21.9238 40.3101 21.9358 40.5573 22.4668 40.65L22.5549 40.7068Z" fill="#3A3A3A"/>
<path d="M20.678 41.9735H20.7158C21.1996 41.9241 21.6361 41.6634 22.0571 41.4112C22.2622 41.2808 22.4762 41.1655 22.6977 41.0663C22.7659 41.0386 22.8246 40.9913 22.8669 40.9304C22.9087 40.8695 22.9321 40.7975 22.9341 40.723C22.9366 40.649 22.9172 40.5755 22.8784 40.5121C22.84 40.4491 22.7838 40.3983 22.7176 40.3671C22.6658 40.3208 22.6021 40.2906 22.5345 40.279C22.307 40.2392 22.2503 40.1823 22.0995 40.0323C21.978 39.9064 21.8451 39.7917 21.7028 39.6905C21.653 39.6552 21.5958 39.6331 21.536 39.625C21.4763 39.617 21.4151 39.6235 21.3584 39.6447C21.3016 39.6653 21.2504 39.6995 21.2095 39.7443C21.1687 39.7897 21.1389 39.8435 21.1229 39.9029C21.1005 39.9865 21.0055 40.1219 20.9054 40.2659C20.7039 40.5559 20.4271 40.9525 20.3097 41.5154C20.2977 41.5707 20.2987 41.6281 20.3117 41.6835C20.3251 41.7389 20.35 41.7902 20.3853 41.8345C20.4207 41.8783 20.465 41.9141 20.5157 41.9382C20.5665 41.9629 20.6218 41.9755 20.678 41.976V41.9735ZM21.7252 40.721L21.6729 40.7522C21.5719 40.8161 21.4694 40.8745 21.3668 40.9324C21.4186 40.8524 21.4713 40.7763 21.5221 40.7034C21.547 40.6676 21.5714 40.6334 21.5948 40.5986C21.6366 40.6399 21.6789 40.6812 21.7252 40.721Z" fill="#3A3A3A"/>
<path d="M32.0165 68.5904C33.3275 68.5924 34.632 68.4082 35.8922 68.0432C37.1713 67.6696 38.0776 67.1808 38.7421 66.5047C39.1342 66.1086 39.4334 65.6283 39.617 65.0992C39.7529 65.15 39.8928 65.1883 40.0351 65.2145C41.8931 65.5669 43.6112 64.3592 44.4896 63.0065C45.4508 61.528 45.7231 59.7449 45.8627 58.1964C46.0726 55.8726 45.7916 52.3215 45.5433 49.1872C45.3006 46.13 45.0504 42.968 45.3842 42.0684C45.4194 41.9738 45.4159 41.8686 45.3746 41.7764C45.3331 41.6843 45.2572 41.6123 45.1635 41.5766C45.0698 41.5413 44.966 41.5449 44.8748 41.5866C44.7837 41.6284 44.7127 41.7055 44.6776 41.8001C44.2851 42.8603 44.52 45.8204 44.7913 49.2486C45.0372 52.3517 45.3157 55.8686 45.1114 58.1274C44.98 59.5813 44.7285 61.2496 43.8595 62.5877C42.9826 63.9373 41.4705 64.7096 40.174 64.4649C40.0391 64.4407 39.9077 64.3995 39.7833 64.3421C39.8186 63.9897 39.7872 63.6332 39.6907 63.2929C39.6743 63.2371 39.6459 63.1862 39.6076 63.1434C39.5688 63.1006 39.521 63.0674 39.4677 63.0463C39.4145 63.0246 39.3572 63.0161 39.3005 63.0206C39.2432 63.0246 39.188 63.0422 39.1387 63.0714C39.0302 63.1369 38.9367 63.2245 38.8645 63.3287C38.7918 63.4329 38.7416 63.5517 38.7172 63.677C38.6853 63.8286 38.6838 63.9851 38.7137 64.1372C38.7435 64.2892 38.8038 64.4337 38.8909 64.5616C38.9143 64.5953 38.9386 64.625 38.9645 64.6582C38.8301 65.1536 38.5703 65.6046 38.21 65.9666C37.6391 66.5465 36.8368 66.9734 35.6851 67.3097C33.1896 68.0286 30.5413 67.9984 28.0622 67.2231C26.3102 66.6694 24.9455 65.8206 24.0063 64.702C23.3354 63.9121 22.9004 62.9456 22.7526 61.9151C22.8671 61.9045 22.981 61.8909 23.0945 61.8753C24.5209 61.6724 25.7095 61.0381 26.4401 60.0897C26.912 59.4765 27.0553 58.8176 26.8328 58.2824C26.5705 57.6507 25.9001 57.3864 25.3596 57.3486C23.7181 57.2363 22.455 58.6907 22.0996 60.1169C22.014 60.4653 21.9672 60.8222 21.9597 61.1806C20.4123 61.1519 18.9257 60.5664 17.766 59.5294C16.6068 58.4919 15.8503 57.0712 15.6328 55.5212C15.4213 54.017 15.7304 52.4866 16.0613 51.1878C16.6671 48.8076 17.5361 46.504 18.6514 44.3202C18.749 44.1294 18.8465 43.9411 18.9431 43.7559C19.7643 42.1782 20.5398 40.6881 20.373 38.7625C20.3641 38.6613 20.3158 38.5677 20.2391 38.5022C20.162 38.4368 20.0629 38.4051 19.9629 38.4141C19.8629 38.4232 19.7703 38.4715 19.7056 38.5495C19.6409 38.6271 19.6095 38.7277 19.6185 38.8289C19.7663 40.5315 19.074 41.861 18.2732 43.4005C18.1751 43.5877 18.0771 43.7785 17.978 43.9728C16.8373 46.2075 15.9484 48.5645 15.3282 51C14.9793 52.3713 14.6528 53.9943 14.8838 55.6309C15.1286 57.3687 15.9802 58.9605 17.2842 60.1184C18.5887 61.2763 20.2595 61.9242 21.9951 61.9438C22.1509 63.1454 22.6491 64.2746 23.4285 65.1948C24.4612 66.4257 25.9434 67.353 27.8342 67.9516C29.1885 68.3769 30.5985 68.5924 32.0165 68.5904ZM25.1834 58.1062C25.2242 58.1062 25.264 58.1062 25.3088 58.1108C25.6099 58.1309 26.0081 58.2663 26.138 58.5779C26.3042 58.9772 25.9559 59.477 25.8454 59.621C25.2362 60.4119 24.2218 60.9445 22.99 61.1197C22.8984 61.1323 22.8068 61.1434 22.7148 61.1524C22.7242 60.866 22.763 60.581 22.8317 60.3032C23.1035 59.2002 24.0491 58.1062 25.1834 58.1062Z" fill="#3A3A3A"/>
<path d="M51.5912 71.9991C51.6359 71.9996 51.6802 71.991 51.722 71.9749C51.8157 71.9402 51.8919 71.8687 51.9336 71.7766C51.9753 71.6844 51.9793 71.5797 51.9445 71.4851C51.29 69.7 51.2831 67.9697 51.2756 66.1373C51.2686 64.5173 51.2617 62.8414 50.7726 61.1107C50.6003 60.4995 50.0867 59.6352 49.59 58.7995C49.192 58.13 48.7802 57.4368 48.6237 56.9963C47.7743 54.6055 47.7624 51.9395 47.8183 49.6273V49.5593C47.8566 47.9912 47.8957 46.3692 47.1267 44.9666C47.0769 44.8806 46.9956 44.8176 46.9005 44.7909C46.8053 44.7648 46.7037 44.7774 46.6175 44.8262C46.5313 44.8745 46.4674 44.9556 46.4394 45.0512C46.4114 45.1469 46.4216 45.2496 46.4678 45.3377C47.1387 46.5584 47.1022 48.0722 47.067 49.5402V49.6086C47.0098 51.9898 47.023 54.74 47.9164 57.2545C48.0987 57.763 48.5105 58.4587 48.9468 59.1927C49.4184 59.9855 49.9056 60.8061 50.0502 61.3196C50.5098 62.9497 50.5167 64.5717 50.523 66.1408C50.5305 67.9587 50.5381 69.8379 51.2391 71.7499C51.2658 71.8229 51.3137 71.8858 51.3766 71.9301C51.4396 71.9749 51.5144 71.9991 51.5912 71.9991Z" fill="#3A3A3A"/>
<path d="M47.4029 48.8111C47.4391 48.8111 47.4752 48.806 47.5098 48.7954C47.5573 48.7808 47.6016 48.7577 47.6401 48.726C47.6787 48.6943 47.7107 48.6555 47.7343 48.6117C47.758 48.5674 47.7728 48.5191 47.778 48.4692C47.7831 48.4194 47.7786 48.3691 47.7644 48.3207C47.6198 47.8329 47.294 47.4201 46.8553 47.1699C46.7682 47.1226 46.6661 47.1115 46.5711 47.1397C46.4761 47.1674 46.3957 47.2323 46.3474 47.3194C46.2991 47.407 46.2866 47.5097 46.3127 47.6064C46.3388 47.703 46.4013 47.7856 46.4869 47.8359C46.7529 47.989 46.9512 48.2392 47.0415 48.5352C47.064 48.6147 47.1115 48.6842 47.1767 48.734C47.2419 48.7839 47.3213 48.8111 47.4029 48.8111Z" fill="#3A3A3A"/>
<path d="M66.0002 60.8091C69.2512 63.3372 75.2422 65.9892 78.0186 67.1259C78.312 67.2478 78.6401 67.2533 78.9374 67.1416C79.2347 67.0293 79.4793 66.8083 79.6224 66.5219L80.5127 64.6909C75.6611 62.8288 71.0868 60.2981 66.9194 57.1709L65.7003 59.2279C65.5495 59.4826 65.4968 59.7846 65.552 60.0761C65.6073 60.3681 65.7669 60.6289 66.0002 60.8091Z" fill="#3A3A3A"/>
<path d="M78.5015 67.5993C78.8055 67.6008 79.1038 67.5162 79.3628 67.3551C79.6218 67.194 79.831 66.9629 79.967 66.6881L80.8573 64.8546C80.8804 64.8068 80.8934 64.755 80.8955 64.7021C80.8975 64.6487 80.8886 64.5959 80.8694 64.5465C80.8501 64.4972 80.8208 64.4524 80.7834 64.4152C80.746 64.3779 80.7014 64.3487 80.6523 64.3301C75.8326 62.4815 71.2889 59.9675 67.1502 56.8599C67.1079 56.8282 67.0595 56.806 67.0082 56.7939C66.9568 56.7824 66.9036 56.7819 66.8519 56.7919C66.8003 56.8025 66.7514 56.8236 66.7083 56.8544C66.6652 56.8851 66.629 56.9243 66.6019 56.9701L65.3847 59.0296C65.1864 59.3649 65.1169 59.7621 65.1895 60.1452C65.2621 60.5288 65.4717 60.8721 65.7783 61.1092C69.323 63.8659 75.9414 66.6805 77.8853 67.4774C78.081 67.558 78.2902 67.5993 78.5015 67.5993ZM79.9978 64.8954L79.2899 66.3513C79.1894 66.5517 79.0177 66.7062 78.8092 66.7837C78.6007 66.8618 78.3709 66.8567 78.1658 66.7701C76.2444 65.9823 69.7052 63.2019 66.236 60.5046C66.0764 60.3813 65.9671 60.2031 65.9291 60.0037C65.8911 59.8044 65.9269 59.598 66.0298 59.4233L67.0357 57.7253C71.0285 60.6778 75.3862 63.0882 79.9978 64.8954Z" fill="#3A3A3A"/>
<path d="M69.5284 59.355C69.6051 59.3555 69.68 59.3318 69.7428 59.287C69.825 59.2296 69.8811 59.141 69.8991 59.0418C69.917 58.9422 69.8951 58.84 69.8384 58.7564C69.4662 58.2127 69.3719 57.0609 69.6498 56.4739C69.8076 56.1422 70.0635 55.8507 70.3351 55.5416C70.7123 55.1122 71.1021 54.6682 71.2662 54.0691C71.4485 53.4071 71.2995 52.7683 71.1555 52.1496C71.0638 51.7569 70.9776 51.3864 70.977 51.0249C70.977 50.1268 71.495 49.3224 72.0458 48.4701C72.633 47.5599 73.2403 46.619 73.2353 45.4904C73.235 45.4365 73.2236 45.3837 73.2017 45.3348C73.1798 45.286 73.148 45.2422 73.1083 45.2065C73.0686 45.1712 73.022 45.144 72.9713 45.1279C72.9208 45.1118 72.8674 45.1068 72.8147 45.1133C72.6739 45.1294 72.5004 45.0147 72.3658 44.8198C72.2143 44.5968 72.1658 44.332 72.2463 44.1775C72.2742 44.1246 72.2892 44.0652 72.2902 44.0053C72.2912 43.9449 72.278 43.8855 72.2518 43.8311C72.2256 43.7773 72.1871 43.7299 72.1396 43.6937C72.0919 43.6579 72.0365 43.6333 71.9779 43.6232C70.0766 43.2879 68.4722 42.3123 67.4587 40.8771C67.128 40.4084 66.8571 39.9075 66.5691 39.3769C66.2723 38.8297 65.9656 38.2638 65.5896 37.7408C64.8722 36.7455 63.9335 35.9476 63.0251 35.1756C61.9638 34.2733 60.961 33.4218 60.2927 32.2873C59.5452 31.0094 59.3037 29.4926 59.6168 28.0419C59.6291 27.9924 59.6315 27.941 59.6239 27.8906C59.6162 27.8401 59.5986 27.7918 59.5721 27.7484C59.5456 27.7049 59.5108 27.6673 59.4697 27.6377C59.4286 27.6082 59.382 27.5872 59.3328 27.5762C59.2836 27.5651 59.2326 27.5642 59.183 27.5734C59.1334 27.5826 59.0861 27.6017 59.044 27.6297C59.0018 27.6578 58.9656 27.694 58.9376 27.7364C58.9095 27.7788 58.8901 27.8265 58.8806 27.8766C58.5265 29.5177 58.7999 31.2335 59.6458 32.679C60.3801 33.9235 61.4784 34.8577 62.5378 35.7607C63.4117 36.5029 64.3152 37.2701 64.9778 38.1903C65.3255 38.6736 65.6066 39.1942 65.9058 39.7449C66.1912 40.271 66.4861 40.8157 66.8432 41.3211C67.9007 42.8198 69.5278 43.8648 71.4548 44.2978C71.4469 44.6386 71.5471 44.9729 71.7408 45.2518C71.9107 45.5171 72.1625 45.7184 72.4569 45.8241C72.3532 46.5944 71.8942 47.3057 71.4121 48.0497C70.8261 48.9579 70.2175 49.8938 70.2219 51.0234C70.2219 51.4725 70.3231 51.9039 70.4206 52.3217C70.5463 52.87 70.6689 53.3885 70.5388 53.8622C70.4212 54.2906 70.105 54.6505 69.7705 55.0316C69.4763 55.3659 69.1726 55.7117 68.9695 56.1386C68.5734 56.9653 68.691 58.4216 69.2147 59.1909C69.2498 59.2422 69.2967 59.284 69.3514 59.3127C69.4061 59.3409 69.4669 59.3555 69.5284 59.355Z" fill="#3A3A3A"/>
<path d="M71.9099 44.3809C71.9635 44.3814 72.0165 44.3703 72.0655 44.3482C72.1145 44.3265 72.1583 44.2938 72.194 44.2535L73.3483 42.924C73.3843 42.8868 73.4123 42.843 73.4309 42.7946C73.4494 42.7463 73.4579 42.6944 73.456 42.6426C73.4542 42.5907 73.4418 42.5399 73.4198 42.4931C73.3978 42.4463 73.3666 42.4045 73.3281 42.3702C73.2896 42.336 73.2446 42.3098 73.1958 42.2937C73.1471 42.2781 73.0955 42.2721 73.0445 42.2766C72.9935 42.2816 72.9439 42.2968 72.8989 42.3214C72.8538 42.3466 72.8142 42.3803 72.7825 42.4211L71.6276 43.7506C71.5789 43.8055 71.5471 43.8739 71.536 43.9464C71.5248 44.0194 71.5348 44.0944 71.5647 44.1614C71.5947 44.2289 71.6433 44.2857 71.7046 44.326C71.766 44.3658 71.8375 44.3869 71.9105 44.3864L71.9099 44.3809Z" fill="#3A3A3A"/>
<path d="M72.8616 45.8754C72.9031 45.8754 72.9443 45.8683 72.9836 45.8548C73.2288 45.7702 73.5274 45.6448 73.8166 45.523C74.0957 45.4067 74.3825 45.2859 74.6069 45.2053C74.6538 45.1887 74.697 45.1636 74.7341 45.1303C74.7712 45.0971 74.8015 45.0568 74.8233 45.012C74.8672 44.9209 74.8736 44.8162 74.8411 44.7206C74.8086 44.6249 74.7398 44.5459 74.6499 44.5016C74.56 44.4573 74.4563 44.4507 74.3617 44.4835C74.1165 44.5685 73.8172 44.6939 73.5281 44.8152C73.2495 44.932 72.9622 45.0528 72.739 45.1298C72.6543 45.1585 72.5826 45.2174 72.5368 45.295C72.4909 45.3725 72.4737 45.4646 72.4885 45.5537C72.5032 45.6428 72.5488 45.7239 72.6171 45.7823C72.6855 45.8407 72.7721 45.8724 72.8616 45.8724V45.8754Z" fill="#3A3A3A"/>
<path d="M78.2996 64.1736C78.348 64.1736 78.3961 64.164 78.441 64.1459C79.2285 63.8197 79.9447 63.3399 80.5489 62.7343C81.153 62.1282 81.6331 61.4078 81.9618 60.6139C82.2912 59.8125 82.4541 58.9602 82.6119 58.1406C82.7665 57.3337 82.9124 56.5715 83.2029 55.8516C83.548 54.9948 84.0831 54.2427 84.642 53.4463C85.1229 52.7652 85.6209 52.0614 85.9918 51.2841C87.2316 48.6905 87.2222 45.9424 87.214 43.2878C87.2071 41.2576 87.2002 39.1588 87.7446 37.1195C87.9333 36.4006 87.8842 35.7959 87.59 35.3215C87.2241 34.732 86.6199 34.5769 86.4432 34.5432C85.7667 34.416 85.3323 33.7432 84.8714 33.0329C84.7677 32.8732 84.6608 32.7086 84.5521 32.5521C83.5996 31.1836 82.2158 30.259 80.8779 29.3655C80.0266 28.797 79.1471 28.2101 78.4026 27.5214C77.6262 26.8015 76.9566 25.9316 76.3097 25.0928C75.9746 24.6572 75.6276 24.2076 75.2667 23.7777C73.5965 21.798 71.5602 20.1672 69.2719 18.9772C67.0161 17.809 65.0149 17.4631 63.3243 17.9495C63.2757 17.9624 63.2301 17.9849 63.1902 18.0157C63.1503 18.0467 63.1169 18.0853 63.092 18.1294C63.067 18.1735 63.051 18.2222 63.045 18.2726C63.0389 18.3231 63.0428 18.3742 63.0566 18.4231C63.0703 18.472 63.0935 18.5176 63.125 18.5573C63.1564 18.5969 63.1953 18.6299 63.2394 18.6541C63.2836 18.6783 63.3321 18.6934 63.3821 18.6985C63.432 18.7035 63.4826 18.6984 63.5305 18.6834C65.0319 18.2523 66.8476 18.5791 68.928 19.6564C71.1281 20.8006 73.0861 22.3684 74.692 24.2718C75.0422 24.689 75.3836 25.1329 75.7143 25.5615C76.3845 26.4232 77.0761 27.3173 77.8972 28.0803C78.6856 28.811 79.5909 29.4158 80.4661 29.9995C81.8046 30.8936 83.0696 31.7381 83.9397 32.9883C84.0416 33.1346 84.1403 33.2872 84.2446 33.4487C84.7476 34.2233 85.3134 35.1021 86.3068 35.2929C86.5709 35.3454 86.8038 35.5016 86.9544 35.7272C87.1323 36.014 87.1543 36.4152 87.0172 36.9201C86.4463 39.0612 86.4514 41.2128 86.4602 43.2929C86.469 45.9806 86.4772 48.5193 85.3134 50.9544C84.9701 51.6732 84.4917 52.3534 84.029 53.0053C83.4631 53.8017 82.8835 54.6258 82.505 55.5657C82.1869 56.355 82.0265 57.1902 81.8719 57.9982C81.7141 58.8187 81.5657 59.594 81.2658 60.3229C80.9753 61.0237 80.5511 61.6595 80.0174 62.1941C79.4837 62.7288 78.851 63.1521 78.1556 63.4391C78.0741 63.4723 78.0066 63.5327 77.9646 63.6107C77.9226 63.6888 77.9088 63.7789 77.9255 63.866C77.9423 63.9536 77.9885 64.0316 78.0563 64.088C78.1242 64.1444 78.2093 64.1751 78.297 64.1751L78.2996 64.1736Z" fill="#3A3A3A"/>
<path d="M89.5956 71.9992C89.6895 71.9997 89.7802 71.9649 89.85 71.901C89.9198 71.8376 89.9636 71.75 89.9728 71.6553C90.1514 69.8491 89.4208 67.0269 88.6525 65.6244C88.5098 65.3636 88.3545 65.1054 88.2049 64.8562C87.7705 64.1318 87.3605 63.4481 87.2084 62.6819C87.0826 62.0376 87.1455 61.368 87.2084 60.6597C87.2801 59.8965 87.3542 59.1127 87.1807 58.3309C86.9871 57.458 86.508 56.6852 86.0452 55.9387C85.4442 54.9681 84.8759 54.0524 85.0154 53.0476C85.0293 52.9474 85.0032 52.8457 84.9429 52.7651C84.8825 52.6841 84.793 52.6307 84.6939 52.6171C84.5947 52.603 84.4942 52.6292 84.4143 52.6901C84.3344 52.7515 84.2818 52.8422 84.2679 52.9423C84.0906 54.2225 84.7596 55.3008 85.4059 56.3439C85.8366 57.0351 86.2804 57.7525 86.4464 58.4975C86.5935 59.16 86.5287 59.8532 86.4596 60.5867C86.3904 61.3197 86.3187 62.0763 86.4684 62.8304C86.6457 63.729 87.1103 64.5023 87.5598 65.2509C87.7057 65.4945 87.856 65.7457 87.9917 65.9929C88.7041 67.2947 89.3812 69.9598 89.2209 71.5788C89.211 71.6795 89.2411 71.7802 89.3044 71.8582C89.3677 71.9362 89.4591 71.9861 89.5585 71.9961C89.5708 71.9981 89.5832 71.9992 89.5956 71.9992Z" fill="#3A3A3A"/>
<path d="M53.9872 72C54.0491 72 54.11 71.9849 54.1647 71.9557C54.2194 71.926 54.266 71.8837 54.3006 71.8313C54.3352 71.7795 54.3565 71.7196 54.3628 71.6577C54.3691 71.5952 54.3601 71.5323 54.3367 71.4744C53.6079 69.6541 53.2573 67.7018 53.3069 65.739C53.315 65.444 53.332 65.1409 53.349 64.8485C53.3861 64.1996 53.4251 63.5285 53.3685 62.8569C53.2302 61.2113 52.5399 59.7091 51.8728 58.2562C51.3761 57.1749 50.8618 56.0553 50.5959 54.9055C50.3061 53.656 50.2992 52.3839 50.2922 51.0382C50.2872 50.1039 50.2815 49.1368 50.1722 48.1869C50.015 46.8302 49.644 45.5047 49.2857 44.2235C49.214 43.9653 49.1417 43.7075 49.0713 43.4492C47.9773 39.4395 46.9336 34.1378 47.287 31.2831C47.2958 31.1846 47.2665 31.0865 47.2051 31.0094C47.1438 30.9324 47.0552 30.8825 46.9582 30.8701C46.8611 30.8579 46.7632 30.8842 46.6849 30.9435C46.6067 31.0029 46.5543 31.0907 46.5389 31.1883C46.1716 34.1543 47.2304 39.5714 48.3439 43.6521C48.4151 43.9124 48.4872 44.1717 48.5601 44.4314C48.9103 45.6834 49.2725 46.9787 49.4227 48.2755C49.5277 49.1842 49.5327 50.1286 49.5378 51.0423C49.5447 52.3713 49.5523 53.7461 49.8609 55.0797C50.1451 56.306 50.6783 57.4608 51.1888 58.5774C51.8577 60.0333 52.4896 61.4096 52.6166 62.9214C52.6688 63.5381 52.6335 64.1527 52.5958 64.8037C52.5788 65.1022 52.5613 65.4108 52.5525 65.7174C52.5008 67.7849 52.8702 69.8413 53.6376 71.7584C53.6653 71.8293 53.7134 71.8908 53.7757 71.9335C53.838 71.9768 53.9117 72 53.9872 72Z" fill="#3A3A3A"/>
<path d="M60.4139 24.9148C60.5079 24.9153 60.5988 24.8801 60.6685 24.8164C60.7383 24.7526 60.782 24.6648 60.7911 24.5701C60.9062 23.3833 61.3049 22.2425 61.953 21.2462C61.9835 21.2045 62.0054 21.157 62.0172 21.1065C62.029 21.056 62.0305 21.0036 62.0216 20.9525C62.0127 20.9015 61.9936 20.8528 61.9655 20.8094C61.9373 20.766 61.9007 20.7289 61.8579 20.7003C61.8151 20.6717 61.767 20.6523 61.7165 20.6431C61.666 20.634 61.6142 20.6354 61.5642 20.6472C61.5143 20.659 61.4673 20.681 61.426 20.7119C61.3847 20.7427 61.3501 20.7817 61.3243 20.8265C60.6086 21.9263 60.1684 23.1859 60.0417 24.4964C60.0321 24.5971 60.0623 24.6975 60.1259 24.7756C60.1894 24.8537 60.281 24.9031 60.3806 24.9129C60.3917 24.9141 60.4028 24.9147 60.4139 24.9148Z" fill="#3A3A3A"/>
<path d="M44.0743 40.9834C44.156 40.9839 44.2356 40.9572 44.3008 40.9079C44.366 40.8581 44.4138 40.7886 44.4372 40.7096C44.4601 40.6305 44.4571 40.5459 44.4287 40.4684C44.3998 40.3914 44.3476 40.3255 44.2789 40.2806C41.3683 38.3903 40.5381 34.4095 40.3539 31.4028C40.1588 28.2232 41.0756 24.6234 41.8844 21.4469L42.0412 20.8307C42.0536 20.7822 42.0566 20.7317 42.0496 20.6821C42.0427 20.6325 42.0262 20.5847 42.0009 20.5416C41.9755 20.4984 41.9426 20.4607 41.9028 20.4305C41.863 20.4003 41.8182 20.3784 41.7704 20.3659C41.7221 20.3533 41.6724 20.3505 41.6231 20.3575C41.5743 20.3645 41.527 20.3812 41.4842 20.4066C41.4414 20.4321 41.4041 20.4658 41.3747 20.5058C41.3449 20.5459 41.323 20.5914 41.3105 20.64L41.1543 21.2555C40.331 24.4866 39.3988 28.1482 39.6014 31.4486C39.796 34.6314 40.6949 38.8585 43.8713 40.924C43.932 40.9628 44.0027 40.9834 44.0743 40.9834Z" fill="#3A3A3A"/>
<path d="M46.2196 41.169C46.2506 41.169 46.2814 41.165 46.3114 41.1575C48.4591 40.6143 50.4904 39.3925 52.1854 37.6255C53.8031 35.9257 55.0229 33.8803 55.7553 31.6403C57.1541 27.3797 56.692 22.4437 54.4872 18.1054C54.3928 17.9198 54.2947 17.7328 54.1967 17.5446C53.4869 16.1869 52.7506 14.7828 53.0593 13.3984C53.0713 13.3491 53.0734 13.2979 53.0655 13.2477C53.0576 13.1975 53.0399 13.1495 53.0134 13.1063C52.987 13.0632 52.9523 13.0258 52.9113 12.9964C52.8703 12.9671 52.8241 12.9462 52.775 12.9352C52.726 12.9241 52.6753 12.9231 52.6259 12.9321C52.5765 12.9411 52.5294 12.96 52.4873 12.9877C52.4452 13.0154 52.409 13.0513 52.3808 13.0933C52.3526 13.1354 52.333 13.1826 52.3231 13.2324C51.9566 14.8909 52.7922 16.4902 53.5296 17.9013C53.6265 18.087 53.7233 18.2714 53.8163 18.4546C55.9288 22.6116 56.3745 27.33 55.0392 31.3999C53.5673 35.88 50.0717 39.4182 46.1284 40.4174C46.0392 40.4396 45.9612 40.4945 45.9092 40.5715C45.8571 40.648 45.8345 40.7416 45.8457 40.8338C45.8569 40.9259 45.9011 41.011 45.97 41.0729C46.0389 41.1348 46.1276 41.1685 46.2196 41.169Z" fill="#3A3A3A"/>
<path d="M11.1957 31.1564C11.2594 31.1563 11.3226 31.1396 11.3789 31.1081C11.4346 31.0765 11.4819 31.031 11.5157 30.9759C11.5496 30.9208 11.5685 30.8579 11.572 30.7931C11.575 30.7283 11.5615 30.6638 11.5332 30.6057C11.0892 29.6982 11.3694 28.4525 12.1618 27.8292C12.2016 27.7988 12.2354 27.7606 12.2608 27.7168C12.2862 27.6731 12.3026 27.6247 12.3091 27.5745C12.3156 27.5242 12.3121 27.4732 12.2991 27.4243C12.2857 27.3754 12.2633 27.3296 12.2324 27.2897C12.2016 27.2497 12.1633 27.2164 12.1195 27.1916C12.0757 27.1668 12.0279 27.1511 11.9781 27.1453C11.9283 27.1396 11.8776 27.1438 11.8298 27.158C11.7815 27.1721 11.7367 27.1958 11.6979 27.2277C10.6238 28.0766 10.2555 29.7077 10.8597 30.944C10.8906 31.0073 10.9384 31.0608 10.9976 31.0983C11.0573 31.1358 11.1255 31.1559 11.1957 31.1564Z" fill="white"/>
<path d="M21.1037 21.1155H21.139C21.2385 21.1062 21.3301 21.0572 21.3943 20.9795C21.458 20.9018 21.4889 20.8016 21.4799 20.7009C21.4097 19.9964 21.1594 19.3226 20.7533 18.7459C20.3476 18.1692 19.7996 17.7096 19.1641 17.4126C19.0735 17.3745 18.972 17.3736 18.8809 17.4099C18.7893 17.4464 18.7161 17.5173 18.6753 17.6077C18.635 17.6981 18.631 17.8009 18.6644 17.8942C18.6977 17.9875 18.7654 18.0641 18.8535 18.1076C19.8733 18.5737 20.6263 19.644 20.7284 20.7702C20.7373 20.8647 20.7806 20.9524 20.8503 21.0162C20.9195 21.0801 21.0101 21.1155 21.1037 21.1155Z" fill="white"/>
<path d="M52.9583 13.4874C53.2062 13.4875 53.4485 13.4133 53.6547 13.274C53.8608 13.1348 54.0215 12.9369 54.1164 12.7053C54.2114 12.4737 54.2362 12.2188 54.1879 11.9729C54.1395 11.727 54.0202 11.5011 53.8449 11.3239C53.6696 11.1466 53.4463 11.0258 53.2032 10.977C52.9601 10.9281 52.7081 10.9532 52.4791 11.0492C52.2501 11.1452 52.0544 11.3077 51.9168 11.5163C51.7792 11.7248 51.7058 11.9699 51.7059 12.2206C51.7064 12.5565 51.8385 12.8784 52.0733 13.1158C52.308 13.3533 52.6263 13.4869 52.9583 13.4874ZM52.9583 11.7164C53.0569 11.7162 53.1534 11.7457 53.2354 11.801C53.3175 11.8564 53.3815 11.9351 53.4193 12.0272C53.4572 12.1194 53.4671 12.2208 53.448 12.3187C53.4288 12.4165 53.3814 12.5064 53.3117 12.577C53.242 12.6476 53.1531 12.6957 53.0564 12.7152C52.9597 12.7347 52.8594 12.7248 52.7682 12.6866C52.6771 12.6484 52.5992 12.5838 52.5444 12.5009C52.4896 12.4179 52.4604 12.3204 52.4604 12.2206C52.4605 12.0871 52.513 11.959 52.6063 11.8645C52.6997 11.7699 52.8262 11.7167 52.9583 11.7164Z" fill="#3A3A3A"/>
<path d="M45.1938 42.2211C45.4416 42.2211 45.6838 42.1466 45.8899 42.0076C46.096 41.8682 46.2565 41.6704 46.3514 41.4388C46.4462 41.2072 46.471 40.9525 46.4227 40.7063C46.3743 40.4606 46.255 40.2346 46.0798 40.0574C45.9046 39.8802 45.6813 39.7594 45.4382 39.7106C45.1952 39.6617 44.9432 39.6869 44.7142 39.783C44.4854 39.8787 44.2898 40.0413 44.152 40.2497C44.0141 40.4581 43.9409 40.7033 43.9409 40.9535C43.9419 41.2893 44.0743 41.611 44.3092 41.8486C44.5437 42.0862 44.8618 42.2201 45.1938 42.2211ZM45.1938 40.4496C45.2924 40.4496 45.3888 40.4793 45.4707 40.5346C45.5527 40.59 45.6166 40.6686 45.6544 40.7607C45.6921 40.8528 45.702 40.9545 45.6827 41.0522C45.6635 41.1498 45.616 41.2399 45.5463 41.3104C45.4766 41.3809 45.3877 41.4287 45.291 41.4483C45.1943 41.468 45.0941 41.4579 45.0029 41.4197C44.9119 41.3814 44.834 41.317 44.7792 41.2339C44.7244 41.1508 44.6952 41.0537 44.6952 40.9535C44.6955 40.8201 44.7482 40.6922 44.8416 40.5976C44.9351 40.5034 45.0617 40.4501 45.1938 40.4501V40.4496Z" fill="#3A3A3A"/>
<path d="M15.3966 32.4097C15.4812 32.4099 15.5629 32.3817 15.6296 32.3295C15.6957 32.2773 15.743 32.2041 15.7639 32.1215C15.7843 32.039 15.7769 31.9518 15.743 31.874C15.7092 31.7961 15.6505 31.7319 15.5758 31.6917C15.523 31.6631 14.2748 30.984 14.0155 30.8561C13.241 30.4746 12.8762 30.2666 12.8762 30.0167C12.8762 29.7319 13.021 28.9942 13.68 28.9853C14.0409 29.0444 16.2806 30.1058 18.2535 31.1054C18.2983 31.1297 18.3471 31.1448 18.3973 31.1496C18.4476 31.1545 18.4984 31.1491 18.5466 31.1338C18.5944 31.1185 18.6392 31.0935 18.6775 31.0604C18.7164 31.0273 18.7477 30.9867 18.7706 30.941C18.793 30.8953 18.8064 30.8455 18.8094 30.7945C18.8129 30.7435 18.8059 30.6924 18.7895 30.6442C18.7726 30.5959 18.7467 30.5515 18.7129 30.5137C18.679 30.4758 18.6377 30.4452 18.5919 30.4237C18.5815 30.418 17.5094 29.8749 16.3915 29.3427C14.0652 28.2253 13.8209 28.2253 13.688 28.2253C12.6687 28.2253 12.1162 29.15 12.1162 30.0199C12.1162 30.7741 12.808 31.1143 13.679 31.5461C13.9249 31.6676 15.2 32.3614 15.2135 32.3684C15.2697 32.3979 15.3329 32.4121 15.3966 32.4097Z" fill="white"/>
<path d="M42.429 12.0281C42.301 12.0281 42.197 11.9231 42.197 11.7935C42.197 11.6639 42.301 11.5588 42.429 11.5588C42.5569 11.5588 42.6609 11.6639 42.6609 11.7935C42.6609 11.9231 42.5569 12.0281 42.429 12.0281Z" fill="#3A3A3A"/>
<path d="M42.4319 12.4066C42.4767 12.4069 42.5215 12.4025 42.5658 12.3933C42.7166 12.3592 42.849 12.268 42.9356 12.1382C43.0222 12.0085 43.0565 11.8501 43.0311 11.6956C43.0063 11.5412 42.9231 11.4023 42.8002 11.3077C42.6768 11.213 42.5225 11.1697 42.3682 11.1867C42.2144 11.2037 42.073 11.2796 41.9725 11.3989C41.8725 11.5182 41.8212 11.6718 41.8297 11.8282C41.8376 11.9845 41.9048 12.1317 42.0173 12.2395C42.1293 12.3473 42.2781 12.4076 42.4329 12.4079L42.4319 12.4066ZM42.4319 11.6435C42.4543 11.6434 42.4767 11.6486 42.4971 11.6587C42.517 11.6689 42.5349 11.6836 42.5484 11.7019C42.5623 11.7202 42.5713 11.7414 42.5752 11.7639C42.5792 11.7864 42.5782 11.8096 42.5718 11.8315C42.5658 11.8535 42.5543 11.8737 42.5389 11.8904C42.5235 11.9072 42.5046 11.9201 42.4832 11.928C42.4623 11.936 42.4394 11.9389 42.417 11.9365C42.3941 11.9339 42.3727 11.9262 42.3538 11.9138C42.3219 11.8925 42.299 11.8594 42.291 11.8216C42.2826 11.7836 42.2896 11.7437 42.3105 11.711C42.3314 11.6782 42.3637 11.655 42.4015 11.6467C42.412 11.6443 42.4224 11.6432 42.4329 11.6435H42.4319Z" fill="#3A3A3A"/>
<path d="M39.8752 11.128C39.7468 11.128 39.6428 11.0229 39.6428 10.8933C39.6428 10.7637 39.7468 10.6587 39.8752 10.6587C40.0032 10.6587 40.1072 10.7637 40.1072 10.8933C40.1072 11.0229 40.0032 11.128 39.8752 11.128Z" fill="#3A3A3A"/>
<path d="M39.8708 11.513C39.9763 11.5126 40.0803 11.4844 40.1719 11.4312C40.2635 11.378 40.3396 11.3016 40.3934 11.2095C40.4471 11.1174 40.476 11.0127 40.4775 10.9059C40.479 10.799 40.4531 10.6936 40.4023 10.5999C40.3516 10.5063 40.2774 10.4276 40.1873 10.3717C40.0972 10.3158 39.9942 10.2845 39.8887 10.281C39.7832 10.2775 39.6782 10.3018 39.5846 10.3516C39.491 10.4013 39.4124 10.4748 39.3551 10.5649C39.2964 10.658 39.2636 10.7653 39.2601 10.8756C39.2566 10.9859 39.282 11.0952 39.3347 11.1921C39.387 11.2889 39.4641 11.3698 39.5577 11.4262C39.6513 11.4827 39.7583 11.5127 39.8678 11.513H39.8708ZM39.7493 10.8174L39.9942 10.9757C39.9728 11.0075 39.9399 11.0297 39.9031 11.0374C39.8658 11.0452 39.827 11.038 39.7951 11.0173C39.7633 10.9966 39.7409 10.9641 39.7319 10.9268C39.7234 10.8894 39.7299 10.8501 39.7493 10.8174ZM39.8752 10.75C39.9011 10.7501 39.9265 10.7572 39.9489 10.7706C39.9713 10.7841 39.9897 10.8033 40.0022 10.8264C40.0146 10.8494 40.0206 10.8755 40.0196 10.9017C40.0191 10.928 40.0111 10.9535 39.9972 10.9757L39.7528 10.8174C39.7657 10.7971 39.7832 10.7804 39.8041 10.7687C39.825 10.757 39.8484 10.7505 39.8723 10.75H39.8752Z" fill="#3A3A3A"/>
<g opacity="0.2">
<path d="M44.9971 14.0403C44.3509 13.8625 43.9065 13.4228 44.004 13.0581C44.1021 12.6935 44.7057 12.5419 45.352 12.7197C45.9984 12.8974 46.4429 13.3371 46.3449 13.7018C46.2469 14.0664 45.6434 14.218 44.9971 14.0403Z" fill="#C7B0E3"/>
<path d="M45.529 14.4947C46.1237 14.4947 46.5896 14.2403 46.7078 13.799C46.7914 13.4874 46.6757 13.1472 46.3903 12.8648C46.1206 12.6206 45.7983 12.4435 45.449 12.3474C45.0998 12.2514 44.7332 12.2391 44.3787 12.3115C43.9909 12.4089 43.7207 12.6435 43.6371 12.9545C43.5534 13.2661 43.6694 13.6063 43.9546 13.8886C44.2204 14.1375 44.5429 14.3152 44.8939 14.4057C45.1008 14.4637 45.3143 14.4936 45.529 14.4947ZM44.8204 13.0238C44.9665 13.0259 45.1117 13.0473 45.2523 13.0874C45.4789 13.1442 45.6884 13.256 45.8628 13.413C45.9722 13.5217 45.9822 13.5923 45.9797 13.6038C45.964 13.6616 45.6421 13.8251 45.0952 13.6743C44.8684 13.6177 44.6589 13.5059 44.4847 13.3487C44.3752 13.24 44.3652 13.1694 44.3677 13.158C44.3677 13.1484 44.4145 13.0944 44.5628 13.0556C44.6469 13.0344 44.7335 13.0237 44.8204 13.0238Z" fill="#C7B0E3"/>
</g>
<path d="M72.8005 63.4174C72.4672 63.4174 72.197 63.1441 72.197 62.8073C72.197 62.47 72.4672 62.1967 72.8005 62.1967C73.1338 62.1967 73.4041 62.47 73.4041 62.8073C73.4041 63.1441 73.1338 63.4174 72.8005 63.4174Z" fill="white"/>
<path d="M72.8042 63.8035C72.9983 63.8035 73.1881 63.7456 73.3495 63.6364C73.5109 63.5271 73.6367 63.3726 73.7109 63.1908C73.7852 63.0096 73.8046 62.8098 73.7668 62.6175C73.7289 62.4246 73.6355 62.2479 73.4982 62.109C73.3609 61.9706 73.1861 61.8759 72.9957 61.8377C72.8053 61.7994 72.608 61.819 72.4287 61.894C72.2493 61.9691 72.096 62.0964 71.9882 62.2595C71.8804 62.4226 71.8228 62.6149 71.8228 62.8113C71.823 63.0741 71.9264 63.3268 72.1104 63.513C72.2945 63.6988 72.544 63.8035 72.8042 63.8035ZM72.8042 62.5822C72.8491 62.5822 72.8931 62.5958 72.9304 62.621C72.9677 62.6461 72.9968 62.6819 73.014 62.7242C73.0311 62.766 73.0356 62.8123 73.0268 62.8566C73.018 62.9014 72.9963 62.9422 72.9645 62.9744C72.9327 63.0061 72.8922 63.0282 72.8481 63.0368C72.804 63.0459 72.7584 63.0413 72.7169 63.0237C72.6755 63.0061 72.6401 62.9764 72.6152 62.9386C72.5904 62.9009 72.5771 62.8566 72.5773 62.8113C72.5774 62.7504 72.6014 62.692 72.644 62.6492C72.6865 62.6064 72.7442 62.5822 72.8042 62.5822Z" fill="white"/>
<path d="M27.7248 35.3191C27.8004 35.3185 27.8746 35.2948 27.9368 35.2511C27.999 35.2074 28.0468 35.1458 28.0742 35.0742C28.101 35.0026 28.1065 34.9244 28.0891 34.8497C28.0712 34.7751 28.0324 34.7075 27.9761 34.6558C27.4102 34.1312 27.3097 33.2893 27.2052 32.3971C27.124 31.7026 27.0404 30.9841 26.7318 30.3398C26.1251 29.0757 24.8137 28.4226 23.7391 27.9952C22.8308 27.6342 21.8976 27.34 20.9474 27.1151C19.2054 26.7037 16.2948 27.0515 15.5119 28.5555C15.4875 28.5999 15.4721 28.6488 15.4666 28.6993C15.4612 28.7498 15.4656 28.8009 15.4801 28.8496C15.4945 28.8983 15.5184 28.9436 15.5503 28.9829C15.5821 29.0222 15.6214 29.0546 15.6657 29.0783C15.71 29.102 15.7588 29.1165 15.8086 29.121C15.8588 29.1254 15.9091 29.1197 15.9569 29.1042C16.0047 29.0887 16.049 29.0636 16.0873 29.0305C16.1256 28.9975 16.1565 28.957 16.1789 28.9116C16.7134 27.8858 19.1537 27.4751 20.7757 27.8585C21.6905 28.0747 22.5889 28.3578 23.4634 28.7056C24.41 29.082 25.5607 29.6461 26.053 30.6731C26.3043 31.2009 26.3795 31.8254 26.4561 32.4867C26.5716 33.4781 26.6915 34.5032 27.4675 35.2212C27.5381 35.2854 27.6297 35.3203 27.7248 35.3191Z" fill="#3A3A3A"/>
<path d="M22.794 40.7977C22.887 40.7982 22.9771 40.7635 23.0468 40.7011C23.116 40.6381 23.1603 40.5521 23.1702 40.4584C23.1807 40.3648 23.1563 40.2707 23.1021 40.1941C23.0478 40.1176 22.9672 40.0637 22.8766 40.0436C21.0669 39.6303 19.5026 37.8356 19.2383 35.8695C19.2249 35.7742 19.2149 35.6788 19.204 35.5802C19.1562 35.1395 19.1025 34.639 18.8193 34.2149C18.4146 33.6095 17.7218 33.3939 17.1106 33.2038L16.9648 33.158C16.27 32.938 15.8738 32.641 15.7882 32.2741C15.6872 31.8448 16.0793 31.3838 16.4939 31.2356C16.908 31.0875 17.4366 31.1199 18.1404 31.3399C19.4155 31.741 20.5777 32.4448 21.5293 33.3927C21.5641 33.4282 21.6059 33.4563 21.6522 33.4753C21.698 33.4945 21.7473 33.5042 21.7971 33.504C21.8468 33.5038 21.8956 33.4937 21.9414 33.4742C21.9877 33.4547 22.029 33.4263 22.0638 33.3905C22.0987 33.3547 22.1265 33.3123 22.145 33.2657C22.1639 33.2192 22.1733 33.1693 22.1728 33.119C22.1723 33.0688 22.1619 33.0191 22.1425 32.9729C22.1231 32.9266 22.0947 32.8847 22.0594 32.8496C21.0216 31.8162 19.7545 31.0488 18.3643 30.6112C17.8208 30.4407 17.0106 30.2455 16.2456 30.5152C15.5149 30.7733 14.851 31.586 15.0511 32.4502C15.2029 33.0976 15.7693 33.5803 16.7358 33.8861L16.8856 33.9332C17.4018 34.0934 17.9353 34.2601 18.1906 34.6423C18.3698 34.91 18.4096 35.2782 18.4509 35.6635C18.4624 35.7672 18.4738 35.8708 18.4873 35.9726C18.6331 37.0579 19.1318 38.1412 19.8913 39.0252C20.6677 39.9268 21.6682 40.5511 22.7074 40.7917C22.7357 40.7972 22.7651 40.7992 22.794 40.7977Z" fill="#3A3A3A"/>
</svg>
