<svg width="81" height="80" viewBox="0 0 81 80" fill="none" xmlns="http://www.w3.org/2000/svg">
<path d="M78.4355 41.6095L76.9712 39.4215H73.6766L67.8194 39.7862H62.3283H57.9355L54.2747 38.6922L51.7122 36.5042H49.8819L47.6854 37.5982L46.2212 41.6095L41.8283 45.2562L40.364 52.9143L39.6319 54.7377L38.1676 59.1137H35.6051L32.6765 59.8431L28.6497 58.3844L25.355 56.561L21.6943 56.9257H20.23L18.3997 58.3844L17.3015 62.0311L16.2032 66.7718V71.1479L18.3997 72.6065L21.6943 73.3359L25.7211 74.7946L28.6497 75.8886L31.2122 76.6179H33.7747H37.4354H41.8283L42.9265 76.2533L44.0247 76.6179H45.489L47.6854 75.5239L52.0783 75.1592L55.739 74.0652H57.442L62.3283 74.7946H66.7767H70.3328L74.7779 75.1592L76.9712 66.236V63.4898L76.2391 59.8431L76.9712 56.9257L78.7785 54.6787L79.5337 52.9143L79.1676 51.091L78.4355 48.903V46.3503L79.1676 44.0105L78.4355 41.6095Z" fill="#EFADAD"/>
<path d="M56.8369 33.2242L53.1762 32.4948L51.6441 33.9535L51.3452 35.7769L51.86 37.2356L53.5423 37.9649L56.1048 39.0589L59.0333 39.7883H61.2298H63.4262H65.2566H67.0869L69.2834 39.4236H75.1405H77.3369L77.703 38.6942V37.2356V35.4122V33.9535V32.4948L76.2387 31.7655L74.7744 33.9535L70.0155 34.3182H64.1584H59.7655L56.8369 33.2242Z" fill="#EFADAD"/>
<path d="M67.8597 18.3317H67.898C67.9911 18.3217 68.0764 18.2753 68.1351 18.2026C68.1938 18.1299 68.2211 18.037 68.2111 17.9442C68.1841 17.7168 68.0933 17.5015 67.949 17.3232C67.8047 17.1449 67.6127 17.0108 67.3954 16.9364C67.3065 16.907 67.2095 16.914 67.1258 16.9558C67.042 16.9976 66.9784 17.0709 66.9489 17.1594C66.9194 17.248 66.9265 17.3446 66.9685 17.428C67.0105 17.5114 67.084 17.5748 67.1729 17.6041C67.2616 17.6363 67.3398 17.6921 67.399 17.7653C67.4583 17.8386 67.4963 17.9266 67.5089 18.0198C67.5188 18.1057 67.5599 18.1849 67.6246 18.2424C67.6893 18.2999 67.773 18.3317 67.8597 18.3317Z" fill="#253858"/>
<path d="M64.5534 15.5461C64.6288 15.5468 64.7027 15.5235 64.7639 15.4794C64.8251 15.4353 64.8705 15.3728 64.8934 15.301C64.9163 15.2294 64.9155 15.1522 64.8912 15.081C64.8669 15.0097 64.8202 14.9481 64.7581 14.9053C64.4108 14.662 63.9931 14.5385 63.5687 14.5535C63.4751 14.557 63.3866 14.5974 63.3229 14.6658C63.2591 14.7343 63.2253 14.8252 63.2288 14.9185C63.2324 15.0117 63.2729 15.0999 63.3416 15.1633C63.4103 15.2268 63.5015 15.2605 63.5952 15.257C63.8649 15.2479 64.1303 15.3263 64.3515 15.4804C64.4104 15.5224 64.4809 15.5453 64.5534 15.5461Z" fill="#253858"/>
<path d="M55.2802 33.3771C55.3549 33.3771 55.4277 33.3534 55.4881 33.3096C55.5485 33.2658 55.5933 33.204 55.6162 33.1332C57.3124 27.9099 57.8268 21.7386 58.0464 19.1032C58.0881 18.6049 58.1182 18.2443 58.1411 18.0866C58.3694 16.51 59.2982 15.6951 60.0909 15.4577C60.63 15.2965 61.1209 15.3891 61.4034 15.7051C61.4573 15.7656 61.5304 15.8058 61.6106 15.8188C61.8018 15.8493 62.0549 15.7602 63.2614 15.2859C63.9476 15.0168 64.8022 14.6814 65.5744 14.4246C65.6192 14.4107 65.6608 14.388 65.6967 14.3578C65.7326 14.3277 65.7621 14.2907 65.7835 14.2491C65.8049 14.2074 65.8177 14.162 65.8213 14.1153C65.8248 14.0687 65.819 14.0218 65.8041 13.9774C65.7892 13.933 65.7656 13.8921 65.7347 13.8569C65.7037 13.8217 65.666 13.7931 65.6238 13.7726C65.5816 13.7521 65.5357 13.7402 65.4888 13.7376C65.4419 13.735 65.395 13.7418 65.3507 13.7574C64.5609 14.0201 63.6969 14.359 63.0025 14.6316C62.5393 14.8133 62.0255 15.015 61.7812 15.0912C61.3104 14.6884 60.6042 14.5694 59.8879 14.784C58.8874 15.0836 57.7179 16.0821 57.4419 17.9863C57.416 18.1652 57.3866 18.514 57.3424 19.0452C57.1253 21.6559 56.6156 27.7704 54.9441 32.9168C54.9298 32.9608 54.9243 33.0071 54.928 33.0532C54.9317 33.0993 54.9444 33.1442 54.9655 33.1853C54.9866 33.2265 55.0157 33.2631 55.051 33.2931C55.0863 33.3231 55.1272 33.3458 55.1713 33.3601C55.2065 33.3711 55.2432 33.3768 55.2802 33.3771Z" fill="#253858"/>
<path d="M62.8496 24.1857C63.8173 24.1866 64.7739 23.9804 65.6546 23.5812C65.993 23.4282 66.4092 23.1984 66.6305 22.7827C66.6578 22.7314 66.672 22.674 66.6716 22.6159C66.6713 22.5578 66.6565 22.5006 66.6286 22.4495C66.6007 22.3985 66.5604 22.3551 66.5116 22.3234C66.4627 22.2916 66.4067 22.2723 66.3485 22.2674C64.3225 22.0952 62.3564 21.4956 60.5808 20.5085C60.5405 20.4807 60.4947 20.4617 60.4465 20.4525C60.3983 20.4434 60.3487 20.4443 60.3009 20.4553C60.2531 20.4663 60.2081 20.4871 60.1688 20.5163C60.1295 20.5456 60.0968 20.5827 60.0727 20.6253C60.0486 20.6678 60.0337 20.715 60.0289 20.7636C60.024 20.8123 60.0295 20.8613 60.0448 20.9078C60.0601 20.9542 60.085 20.997 60.1177 21.0333C60.1506 21.0697 60.1906 21.0988 60.2353 21.1188C61.863 22.0238 63.645 22.6202 65.4911 22.8777C65.4475 22.8994 65.4039 22.9199 65.3622 22.9393C64.3912 23.3792 63.3209 23.5564 62.2594 23.4528C62.1661 23.4438 62.073 23.4719 62.0006 23.5312C61.9282 23.5905 61.8824 23.676 61.8733 23.7689C61.8641 23.8618 61.8924 23.9545 61.9519 24.0266C62.0114 24.0987 62.0972 24.1444 62.1905 24.1535C62.41 24.1751 62.6319 24.1857 62.8496 24.1857Z" fill="#253858"/>
<path d="M75.1427 33.6453H75.1503C75.1967 33.6443 75.2424 33.6343 75.2849 33.6156C75.3274 33.5971 75.3658 33.5703 75.3978 33.5369C75.4299 33.5036 75.4551 33.4642 75.4719 33.4211C75.4887 33.3781 75.4968 33.3321 75.4958 33.286L75.4105 29.2505C75.4028 28.9075 75.6077 27.8592 76.6082 27.5503C77.4857 27.2771 78.1796 26.5248 78.4191 25.5873C78.6374 24.7314 78.4332 23.9024 77.8588 23.3126C76.9212 22.3493 75.2486 22.0813 73.968 22.6946C73.9262 22.7146 73.8887 22.7426 73.8577 22.777C73.8268 22.8114 73.8029 22.8515 73.7875 22.8951C73.7722 22.9387 73.7656 22.9848 73.7681 23.031C73.7706 23.0771 73.7822 23.1223 73.8023 23.1639C73.8223 23.2056 73.8504 23.2429 73.885 23.2737C73.9195 23.3046 73.9598 23.3283 74.0036 23.3436C74.0473 23.359 74.0936 23.3656 74.14 23.363C74.1863 23.3605 74.2316 23.349 74.2734 23.329C75.2739 22.8506 76.6276 23.0587 77.3521 23.8021C77.7517 24.2125 77.8912 24.7988 77.7346 25.4138C77.5581 26.1174 77.0431 26.6778 76.3975 26.8795C75.1262 27.2759 74.6907 28.5253 74.7042 29.2687L74.7895 33.3047C74.7925 33.3961 74.8309 33.4827 74.8969 33.5463C74.9628 33.6099 75.051 33.6454 75.1427 33.6453Z" fill="#253858"/>
<path d="M77.614 17.7584C77.531 17.0073 77.2426 16.1227 76.5045 15.9473C76.7594 12.541 75.8895 8.86376 73.3641 6.55556C72.9727 6.19675 72.5319 5.86898 72.0181 5.73476C71.5043 5.60049 70.9034 5.68845 70.5355 6.07127C70.263 6.35503 70.1518 6.75253 70.0565 7.1342C69.8897 7.80259 69.7412 8.47506 69.6109 9.15165C69.528 8.5595 68.6281 8.4305 68.1784 8.82624C67.7288 9.22202 67.6234 9.86867 67.5469 10.462C67.4292 9.95899 66.6682 9.864 66.2827 10.2099C65.8972 10.5558 65.8219 11.1268 65.8443 11.6422C65.8666 12.1576 65.3363 13.6819 65.1968 14.1791C65.8778 14.0999 67.853 13.5694 68.8582 15.5574C68.9465 15.7333 69.0553 15.9168 69.2342 15.9995C69.4503 16.0992 69.7021 16.0177 69.9405 16.0071C70.6079 15.9778 71.1764 16.5348 71.4337 17.1457C71.6908 17.7566 71.7279 18.4396 71.8721 19.0887C72.0163 19.7377 72.3153 20.4119 72.9032 20.7273C73.134 20.8511 73.3958 20.9114 73.6195 21.0469C74.2722 21.4421 73.985 22.2078 74.0479 22.9658C74.0421 22.8902 75.6082 22.3244 76.6858 22.9582C76.9536 22.5478 77.2914 21.9392 77.3991 21.4679C77.5292 20.8962 77.6146 20.3154 77.6545 19.7307C77.6995 19.0733 77.6859 18.4133 77.614 17.7584Z" fill="#253858"/>
<path d="M74.0517 23.3149H74.0811C74.1591 23.3089 74.2327 23.2769 74.2901 23.224C74.5467 23.1038 75.7214 22.7954 76.5101 23.2598C76.5886 23.3059 76.682 23.3201 76.7707 23.2992C76.8595 23.2783 76.9367 23.224 76.9862 23.1478C77.1698 22.8658 77.6101 22.1446 77.7472 21.5443C77.8812 20.9549 77.9693 20.356 78.0109 19.7532C78.0571 19.0759 78.0431 18.3959 77.9691 17.721C77.8561 16.6945 77.4729 15.9933 76.8791 15.7078C76.9786 13.9735 76.7861 12.2609 76.3188 10.7383C75.7638 8.92904 74.8515 7.43517 73.6074 6.2972C73.2437 5.96415 72.7452 5.56078 72.1131 5.39311C71.4297 5.21197 70.7123 5.382 70.285 5.82641C69.9584 6.16584 69.8307 6.59794 69.7183 7.04762C69.6088 7.4856 69.507 7.92705 69.4128 8.37266C69.3787 8.35624 69.3434 8.34157 69.3069 8.32811C68.8461 8.15807 68.2999 8.25185 67.9486 8.56259C67.5884 8.87981 67.413 9.3195 67.3146 9.73518C67.2899 9.72523 67.2646 9.71644 67.2382 9.7082C66.8303 9.57981 66.3553 9.67595 66.0511 9.94741C65.6491 10.308 65.4625 10.8855 65.4961 11.6565C65.5108 11.9941 65.1842 13.0389 65.0088 13.6C64.947 13.7964 64.8946 13.9659 64.861 14.0831C64.8453 14.1388 64.8437 14.1974 64.8562 14.2539C64.8686 14.3103 64.8949 14.3628 64.9326 14.4068C64.9703 14.4507 65.0183 14.4847 65.0723 14.5058C65.1264 14.5268 65.1848 14.5343 65.2424 14.5275C65.3142 14.5193 65.3942 14.507 65.4861 14.4929C66.2789 14.3722 67.7543 14.147 68.5465 15.7148C68.6607 15.9416 68.8155 16.1908 69.0897 16.3175C69.3369 16.4318 69.5853 16.4002 69.7848 16.3761C69.8477 16.3685 69.9066 16.3609 69.9613 16.3585C70.4751 16.3362 70.9195 16.8217 71.1137 17.2819C71.2715 17.6566 71.3391 18.067 71.4109 18.5014C71.4468 18.7189 71.4839 18.9429 71.5328 19.1651C71.7352 20.0744 72.1531 20.7217 72.7416 21.0371C72.8605 21.0983 72.9832 21.152 73.1089 21.1977C73.2238 21.2383 73.335 21.2886 73.4414 21.3478C73.7098 21.5102 73.7262 21.7582 73.7015 22.3316C73.6865 22.5518 73.6855 22.7727 73.6986 22.993C73.7061 23.081 73.7467 23.163 73.8121 23.2226C73.8775 23.2823 73.963 23.3152 74.0517 23.3149ZM74.4049 22.9361C74.4049 22.9402 74.4049 22.9443 74.4049 22.9484C74.4049 22.9525 74.4049 22.9402 74.4049 22.9361ZM71.561 6.02514C71.6866 6.02559 71.8116 6.04216 71.9329 6.07441C72.3096 6.17408 72.6792 6.40329 73.1307 6.81605C75.3365 8.83405 76.4401 12.1513 76.1581 15.9229C76.1519 16.0062 76.1757 16.0891 76.2252 16.1565C76.2747 16.224 76.3467 16.2717 76.4283 16.2911C77.0533 16.4377 77.224 17.3927 77.2681 17.7967C77.3375 18.43 77.3507 19.0682 77.3075 19.7039C77.2684 20.2704 77.1856 20.8332 77.0598 21.3871C76.995 21.6697 76.8126 22.0725 76.5589 22.5011C75.8038 22.1997 74.9481 22.3012 74.4025 22.4477C74.4025 22.4184 74.4025 22.3891 74.4066 22.3604C74.4302 21.8163 74.4596 21.1397 73.8075 20.7445C73.6662 20.6635 73.5179 20.5952 73.3643 20.5405C73.2656 20.5047 73.169 20.463 73.0753 20.4156C72.568 20.1436 72.3314 19.5016 72.2219 19.0115C72.1766 18.808 72.1431 18.6011 72.1072 18.3859C72.0318 17.9298 71.9542 17.459 71.7641 17.0081C71.4698 16.3046 70.7871 15.6157 69.9301 15.6538C69.8483 15.6579 69.7718 15.6673 69.6977 15.6767C69.5712 15.6925 69.4517 15.7078 69.3881 15.6767C69.3004 15.6362 69.2151 15.4679 69.1786 15.3958C68.2716 13.6006 66.639 13.6311 65.7021 13.7495C65.9787 12.8631 66.2206 12.0399 66.2029 11.6236C66.1788 11.0702 66.2871 10.6815 66.5248 10.4681C66.5948 10.4132 66.6772 10.3762 66.7648 10.3602C66.8523 10.3443 66.9426 10.3499 67.0275 10.3766C67.069 10.3855 67.1075 10.4051 67.1393 10.4334C67.1709 10.4616 67.1947 10.4976 67.2081 10.5378C67.2267 10.6183 67.273 10.6898 67.3392 10.7397C67.4053 10.7895 67.4869 10.8146 67.5697 10.8106C67.6525 10.8065 67.7313 10.7736 67.7921 10.7175C67.853 10.6614 67.8921 10.5858 67.9026 10.5038C67.9768 9.92983 68.0721 9.38988 68.4176 9.08617C68.5718 8.95074 68.8496 8.90734 69.065 8.98591C69.1868 9.03106 69.2551 9.10315 69.2686 9.19638C69.2799 9.27911 69.3204 9.35517 69.3828 9.41088C69.4452 9.46663 69.5255 9.49843 69.6093 9.50064C69.6931 9.5028 69.7749 9.47522 69.8402 9.42283C69.9054 9.37044 69.9499 9.2966 69.9655 9.21456C70.0938 8.54798 70.2421 7.87546 70.4069 7.2159C70.4987 6.8483 70.5911 6.52641 70.7983 6.31126C70.9766 6.12424 71.2561 6.02282 71.561 6.02282V6.02514Z" fill="#253858"/>
<path d="M66.4706 35.1012C70.1501 35.1012 73.8097 34.621 76.4299 33.527C76.5133 33.4889 76.5786 33.4201 76.6119 33.335C76.6453 33.2499 76.6441 33.1552 76.6086 33.071C76.5731 32.9868 76.5062 32.9195 76.4219 32.8836C76.3375 32.8477 76.2425 32.8459 76.1568 32.8785C73.5455 33.969 69.5104 34.5125 65.0863 34.3712C60.893 34.237 57.0457 33.5111 54.7915 32.4329C54.7497 32.4129 54.7044 32.4013 54.658 32.3987C54.6117 32.3962 54.5653 32.4028 54.5216 32.418C54.4778 32.4333 54.4375 32.4571 54.4029 32.4879C54.3683 32.5187 54.3402 32.556 54.3201 32.5977C54.3 32.6393 54.2883 32.6845 54.2858 32.7307C54.2832 32.7768 54.2898 32.823 54.3052 32.8666C54.3205 32.9102 54.3444 32.9504 54.3753 32.9848C54.4062 33.0193 54.4437 33.0473 54.4855 33.0673C57.1269 34.3319 61.8128 35.1012 66.4706 35.1012Z" fill="#253858"/>
<path d="M62.7841 40.2332C64.7292 40.2332 66.6714 40.1036 68.5771 39.9765C71.1708 39.8007 73.8528 39.6249 76.4713 39.7796C76.865 39.8027 77.3541 39.8313 77.7661 39.5661C78.3164 39.2145 78.447 38.511 78.3858 37.9705C78.3512 37.7143 78.2979 37.4609 78.2263 37.2124C78.1666 37.006 78.1206 36.7958 78.0886 36.5833C78.0239 36.0762 78.1263 35.5573 78.2351 35.0073C78.2558 34.9019 78.2763 34.7969 78.294 34.6919C78.4211 34.0101 78.5076 33.2162 78.1887 32.4992C77.8579 31.7558 76.9686 31.1508 76.1087 31.4697C76.0653 31.4858 76.0254 31.5103 75.9914 31.5418C75.9575 31.5733 75.93 31.6111 75.9108 31.6531C75.8915 31.6951 75.8807 31.7406 75.879 31.7868C75.8773 31.8329 75.8848 31.879 75.901 31.9223C75.9172 31.9656 75.9418 32.0053 75.9733 32.0391C76.005 32.073 76.0429 32.1003 76.0851 32.1195C76.1273 32.1387 76.1729 32.1495 76.2193 32.1512C76.2656 32.1529 76.3119 32.1454 76.3553 32.1293C76.8103 31.961 77.347 32.3392 77.5448 32.7871C77.7855 33.3288 77.7084 33.9907 77.6037 34.567C77.5848 34.6691 77.5652 34.7715 77.5448 34.8743C77.4306 35.4547 77.3094 36.055 77.3906 36.6748C77.4264 36.9177 77.4783 37.158 77.546 37.3942C77.6086 37.6101 77.6558 37.8301 77.6872 38.0526C77.7231 38.3668 77.6654 38.7986 77.3859 38.9784C77.1681 39.1185 76.8368 39.099 76.516 39.0804C73.8534 38.9231 71.1485 39.103 68.533 39.2773C65.2372 39.4973 61.8236 39.7238 58.523 39.2657C55.9293 38.9056 53.9654 38.1616 52.52 36.9908C51.9944 36.5657 51.7278 36.1759 51.7042 35.7989C51.686 35.5057 51.8113 35.1944 51.9331 34.8931C52.1491 34.3577 52.4716 33.8588 52.813 33.3306C53.1544 32.8023 53.5134 32.2477 53.7547 31.6503C53.8624 31.3841 54.1502 30.7708 54.5027 30.8189C54.5954 30.8321 54.6896 30.8081 54.7646 30.7521C54.8395 30.6962 54.8891 30.6128 54.9024 30.5205C54.9156 30.4281 54.8915 30.3343 54.8353 30.2596C54.7791 30.185 54.6955 30.1356 54.6028 30.1224C54.1743 30.0638 53.5663 30.232 53.0996 31.3882C52.8836 31.9229 52.5612 32.4218 52.2168 32.9501C51.8725 33.4783 51.5165 34.0329 51.2751 34.6304C51.138 34.9693 50.9679 35.3926 50.9962 35.8423C51.0327 36.4285 51.3846 36.9814 52.072 37.5372C53.6217 38.7905 55.6998 39.5837 58.4242 39.962C59.8695 40.1528 61.3263 40.2433 62.7841 40.2332Z" fill="#253858"/>
<mask id="mask0_4910_2289" style="mask-type:alpha" maskUnits="userSpaceOnUse" x="73" y="39" width="9" height="39">
<path d="M73.8888 39.1208H81.0009V77.3487L76.9369 76.8457L73.8888 76.3427V39.1208Z" fill="#D9D9D9"/>
</mask>
<g mask="url(#mask0_4910_2289)">
<path d="M74.7963 75.6691C74.8522 75.6696 74.9074 75.656 74.9572 75.6309C75.007 75.6058 75.0501 75.5691 75.0829 75.5239C75.6514 74.7413 75.7044 73.4553 75.7562 72.2125C75.7991 71.1802 75.8433 70.1128 76.1882 69.507C76.3124 69.3061 76.4552 69.1172 76.6149 68.9434C76.729 68.8103 76.8468 68.6731 76.9551 68.5229C77.6466 67.5675 77.8609 66.2635 77.593 64.648C77.506 64.1256 77.3806 63.6082 77.2593 63.1078C77.0828 62.3845 76.918 61.7008 76.8556 60.9976C76.7088 59.251 77.2138 57.5119 78.274 56.1134C78.3917 55.9592 78.5206 55.804 78.6454 55.6543C78.9273 55.3157 79.2186 54.9651 79.4434 54.5592C80.1326 53.315 80.1397 51.701 79.464 49.762C79.4199 49.6354 79.3734 49.5083 79.3275 49.3817C79.0962 48.7458 78.8778 48.1455 78.8843 47.5271C78.8896 47.0655 79.0215 46.6094 79.1609 46.1267C79.248 45.8253 79.3375 45.5133 79.3963 45.1933C79.786 43.0981 78.8248 41.2219 77.8944 39.4125L77.8355 39.3005C77.8156 39.2573 77.7872 39.2186 77.752 39.187C77.7167 39.1554 77.6754 39.1307 77.6305 39.1152C77.5855 39.0996 77.5378 39.0936 77.4904 39.0966C77.4429 39.1001 77.3966 39.1127 77.3542 39.1343C77.3119 39.1559 77.2743 39.1855 77.2438 39.2222C77.2133 39.2583 77.1905 39.3005 77.1767 39.3457C77.163 39.3914 77.1585 39.4387 77.1637 39.4859C77.169 39.5331 77.1836 39.5788 77.207 39.62L77.2658 39.7325C78.1816 41.5178 79.0462 43.2046 78.7019 45.0627C78.6483 45.3491 78.5671 45.6309 78.4811 45.9292C78.3346 46.4356 78.1833 46.959 78.1769 47.5166C78.1692 48.262 78.4199 48.9512 78.6624 49.6178C78.7072 49.7424 78.7525 49.866 78.7954 49.9896C79.4028 51.7326 79.4123 53.1557 78.8237 54.2161C78.6312 54.5637 78.3729 54.8742 78.0998 55.2032C77.9709 55.3579 77.8373 55.5187 77.7107 55.6839C76.5448 57.2226 75.9893 59.1354 76.1505 61.0563C76.2176 61.8189 76.3977 62.5568 76.5713 63.2731C76.6891 63.7609 76.8127 64.2657 76.8951 64.763C77.0575 65.7416 77.0998 67.1174 76.3812 68.112C76.2894 68.2381 76.1864 68.3587 76.0769 68.4868C75.8872 68.6942 75.7183 68.9193 75.5726 69.1599C75.1435 69.9144 75.0982 71.0165 75.0494 72.1834C75.0023 73.3222 74.9534 74.5001 74.5097 75.111C74.4715 75.1637 74.4486 75.2255 74.4436 75.2903C74.4385 75.3546 74.4515 75.4194 74.481 75.4772C74.5105 75.5349 74.5554 75.5832 74.6109 75.6173C74.6663 75.651 74.7301 75.6691 74.7951 75.6691H74.7963Z" fill="#253858"/>
</g>
<path d="M42.0835 45.5622C42.1431 45.5622 42.2016 45.5471 42.2538 45.5185C42.306 45.4903 42.35 45.4487 42.3819 45.3989C42.9917 44.4395 43.622 43.4479 44.5307 42.7738C44.6861 42.6567 44.8485 42.5532 45.0203 42.4422C45.316 42.2614 45.5961 42.0564 45.8579 41.8299C46.527 41.2221 46.899 40.4033 47.2227 39.6171L47.2986 39.4323C47.5717 38.7632 47.8542 38.0718 48.3068 37.5371C48.8182 36.9332 49.5374 36.619 50.1384 36.7368C50.1847 36.748 50.233 36.7497 50.2801 36.7418C50.3272 36.7339 50.3722 36.7165 50.4123 36.6908C50.4525 36.6651 50.487 36.6315 50.5138 36.5921C50.5406 36.5527 50.559 36.5083 50.5681 36.4616C50.5771 36.4148 50.5766 36.3668 50.5664 36.3203C50.5563 36.2738 50.5368 36.2298 50.5091 36.1911C50.4814 36.1523 50.4461 36.1195 50.4054 36.0947C50.3646 36.0699 50.3192 36.0536 50.2719 36.0468C49.2414 35.8445 48.3009 36.4496 47.7642 37.0833C47.2398 37.7031 46.9355 38.4471 46.6412 39.167L46.5659 39.3504C46.2716 40.0627 45.9397 40.8011 45.3788 41.3105C45.145 41.5109 44.8955 41.6917 44.6325 41.852C44.4559 41.965 44.2794 42.0811 44.1069 42.2091C43.0929 42.9616 42.4002 44.0562 41.7828 45.0237C41.749 45.0769 41.7301 45.1377 41.7281 45.201C41.7262 45.2638 41.7413 45.3261 41.7718 45.3813C41.8023 45.4366 41.847 45.4823 41.9015 45.5145C41.9559 45.5466 42.0179 45.5637 42.0812 45.5637L42.0835 45.5622Z" fill="#253858"/>
<path d="M39.4986 61.2515C39.5244 61.2515 39.55 61.249 39.5751 61.2435C39.6627 61.2244 39.7395 61.1722 39.7901 61.0988C39.8407 61.025 39.8613 60.9351 39.8476 60.8467C39.8255 60.6734 39.8387 60.497 39.8863 60.3288C39.934 60.1605 40.0153 60.0038 40.1252 59.8676C40.2351 59.731 40.3715 59.6185 40.5261 59.5356C40.6808 59.4532 40.8506 59.4025 41.0254 59.3869C41.2002 59.3708 41.3764 59.3904 41.5434 59.4442C41.7104 59.4974 41.8649 59.5843 41.9977 59.6983C42.1304 59.8129 42.2386 59.9525 42.3158 60.1098C42.3931 60.2665 42.4378 60.4378 42.4472 60.6121C42.4497 60.7055 42.4892 60.7939 42.5571 60.8582C42.625 60.9225 42.7159 60.9572 42.8095 60.9547C42.9031 60.9522 42.992 60.913 43.0565 60.8452C43.121 60.7778 43.1559 60.6874 43.1535 60.594C43.1435 60.1836 43.4519 59.8626 43.742 59.7024C44.0322 59.5416 44.4701 59.4517 44.8149 59.6813C44.863 59.7129 44.9183 59.733 44.9759 59.7385C45.0334 59.7446 45.0915 59.736 45.145 59.7144C45.1985 59.6923 45.2459 59.6577 45.2828 59.6135C45.3198 59.5692 45.3453 59.5165 45.357 59.4602C46.0744 56.0183 48.5275 53.0028 51.758 51.5893C51.9405 51.5094 52.1329 51.43 52.3195 51.3547C53.3288 50.9403 54.3729 50.5113 54.9844 49.5624C55.4458 48.846 55.5312 48.0187 55.6141 47.217C55.6683 46.6951 55.7189 46.2023 55.8666 45.7437C56.2351 44.5994 57.2314 43.6108 58.827 42.8061C62.9386 40.7309 68.0854 41.0183 71.9386 43.538C72.0165 43.5817 72.1081 43.5942 72.195 43.5731C72.2818 43.5525 72.3575 43.4993 72.4066 43.4249C72.4557 43.3506 72.4747 43.2602 72.4597 43.1728C72.4447 43.0849 72.3969 43.006 72.3258 42.9517C70.3425 41.6557 67.9889 40.8967 65.5187 40.7591C63.0486 40.6214 60.6256 41.1102 58.5115 42.1771C56.7412 43.0708 55.6277 44.1985 55.1981 45.5282C55.0274 46.0556 54.9703 46.6097 54.915 47.1447C54.8373 47.8956 54.7643 48.6049 54.3935 49.1796C53.9021 49.9416 53.0039 50.3113 52.0535 50.7037C51.864 50.782 51.6674 50.8629 51.4779 50.9453C48.1738 52.3905 45.6348 55.4115 44.7655 58.8961C44.3043 58.7821 43.8167 58.8504 43.4048 59.0865C43.1784 59.2096 42.9784 59.3758 42.8163 59.5758C42.7157 59.4271 42.5971 59.2915 42.4631 59.1724C42.2647 58.984 42.0281 58.8399 41.7693 58.7499C41.5104 58.66 41.2353 58.6259 40.9623 58.6505C40.6893 58.6751 40.4246 58.7575 40.1861 58.8921C39.9476 59.0267 39.7407 59.2106 39.5793 59.4311C39.491 59.5441 39.4139 59.6652 39.3491 59.7923C38.7194 58.8971 37.6804 58.2768 36.5831 58.2094C35.7269 58.1587 34.9196 58.4099 34.14 58.6535C33.5762 58.8293 33.0437 58.9951 32.4961 59.0544C30.7393 59.2452 29.0566 58.3039 27.7879 57.4625C27.689 57.3977 27.5907 57.3314 27.4934 57.2651C26.683 56.721 25.8455 56.1584 24.8536 55.95C23.7215 55.7119 22.2435 56.0962 21.7342 57.2771C21.703 57.3615 21.7055 57.4549 21.7408 57.5373C21.7766 57.6202 21.8427 57.686 21.9254 57.7217C22.0086 57.7573 22.1018 57.7599 22.1866 57.7292C22.2713 57.6981 22.3414 57.6363 22.3812 57.5559C22.7312 56.7487 23.838 56.4553 24.7074 56.6382C25.5656 56.819 26.3452 57.3419 27.099 57.8483C27.1994 57.9151 27.2987 57.9824 27.3981 58.0482C28.6406 58.869 30.2597 59.7832 32.0307 59.7832C32.2127 59.7832 32.3948 59.7732 32.5758 59.7536C33.191 59.6868 33.782 59.5029 34.3528 59.3246C35.1057 59.09 35.8167 58.8685 36.5428 58.9142C37.7303 58.9855 38.8324 59.8636 39.1644 61.0009C39.186 61.0727 39.23 61.136 39.2901 61.1807C39.3503 61.2259 39.4234 61.251 39.4986 61.2515Z" fill="#253858"/>
<path d="M35.0462 77.3484C37.4974 77.3484 39.7859 77.0314 41.6934 76.6331C42.6939 76.4236 43.6467 76.2815 44.2488 76.7974C44.283 76.826 44.3153 76.8561 44.3483 76.8883C44.4784 77.0264 44.6357 77.1364 44.8103 77.2118C45.3335 77.4122 45.8144 77.0882 46.164 76.8511L46.2263 76.8094C47.3222 76.0775 48.737 75.958 50.1054 75.8419C50.412 75.8158 50.7293 75.7887 51.0389 75.7555C53.7461 75.4622 56.4823 74.557 59.1707 73.0585C61.5208 71.7505 63.8355 69.9933 66.0526 67.8363L66.2333 67.6605C66.8159 67.0909 67.4186 66.5012 68.1202 66.1189C68.9441 65.6703 69.8269 65.5909 70.4832 65.9029C70.525 65.923 70.5704 65.9345 70.6167 65.937C70.6631 65.9395 70.7095 65.933 70.7532 65.9174C70.797 65.9024 70.8373 65.8783 70.8718 65.8476C70.9064 65.8165 70.9345 65.7793 70.9545 65.7376C70.9746 65.6959 70.9863 65.6507 70.9887 65.6045C70.9913 65.5583 70.9846 65.5121 70.9692 65.4684C70.9538 65.4247 70.9299 65.385 70.8989 65.3503C70.868 65.3162 70.8304 65.288 70.7886 65.2679C69.9276 64.8575 68.804 64.9449 67.7818 65.5025C66.9936 65.9315 66.3557 66.5579 65.7383 67.1597L65.5588 67.336C60.9093 71.8595 55.8637 74.5294 50.9629 75.0573C50.6616 75.09 50.3485 75.1161 50.0454 75.1422C48.5876 75.2653 47.0803 75.3934 45.8332 76.2262L45.7684 76.2699C45.5212 76.4362 45.2387 76.6251 45.0622 76.5563C44.9766 76.511 44.8994 76.4518 44.8338 76.3804C44.7926 76.3418 44.752 76.3036 44.7097 76.2674C43.7933 75.4793 42.442 75.7616 41.548 75.9479C37.211 76.8526 30.8589 77.3318 25.2243 74.4781C24.9157 74.3219 24.6025 74.1526 24.3 73.9883C23.3585 73.476 22.3798 72.9465 21.2986 72.6868C20.8045 72.5788 20.3047 72.4989 19.8015 72.4487C18.9185 72.3437 18.09 72.2448 17.38 71.8404C17.3397 71.8173 17.2953 71.8022 17.2494 71.7962C17.2035 71.7902 17.1567 71.7932 17.1118 71.8052C17.0669 71.8173 17.025 71.8379 16.9882 71.866C16.9514 71.8941 16.9202 71.9293 16.897 71.9695C16.8738 72.0097 16.8591 72.0539 16.8531 72.0996C16.847 72.1458 16.8501 72.192 16.8622 72.2367C16.8743 72.2814 16.8949 72.3231 16.9232 72.3603C16.9514 72.397 16.9867 72.4276 17.0271 72.4507C17.8611 72.9259 18.8036 73.0369 19.7148 73.1469C20.1898 73.1947 20.6612 73.2695 21.1272 73.371C22.1165 73.6091 23.0106 74.0933 23.9561 74.6062C24.2627 74.7725 24.5798 74.9448 24.8975 75.1055C28.2281 76.7858 31.7817 77.3484 35.0462 77.3484Z" fill="#253858"/>
<path d="M17.1868 72.4677C17.2594 72.4677 17.3295 72.4461 17.389 72.4049C17.4485 72.3637 17.4934 72.3054 17.5186 72.2376C17.5433 72.1703 17.5468 72.0965 17.5287 72.0266C17.51 71.9573 17.4707 71.895 17.4157 71.8483C16.6432 71.1933 16.1757 70.0892 16.1334 68.8148C16.0941 67.6283 16.3926 66.4367 16.6805 65.2849C17.2957 62.8295 17.9316 60.2908 19.347 58.1584C19.6551 57.6932 20.0848 57.1266 20.6742 56.8684C21.1447 56.6599 21.8244 56.6961 22.1416 57.1176C22.1981 57.1924 22.2818 57.2416 22.3746 57.2552C22.4674 57.2683 22.5617 57.2442 22.6363 57.1884C22.7114 57.1321 22.7614 57.0487 22.7745 56.9563C22.7876 56.8644 22.7634 56.7705 22.7074 56.6956C22.1588 55.9667 21.1023 55.91 20.3873 56.2264C19.6309 56.5605 19.1191 57.2291 18.7575 57.7736C17.2755 60.0069 16.5958 62.722 15.9957 65.1181C15.6957 66.3167 15.3846 67.5564 15.4279 68.8419C15.4763 70.3122 16.0346 71.6042 16.9579 72.3878C17.0224 72.4406 17.1036 72.4687 17.1868 72.4677Z" fill="#253858"/>
<path d="M19.451 71.4219C19.4707 71.4219 19.4904 71.4198 19.51 71.4168C19.5559 71.4098 19.5998 71.3937 19.6396 71.3696C19.6795 71.3455 19.7138 71.3134 19.7415 71.2762C19.7687 71.2385 19.7884 71.1958 19.799 71.1506C19.8101 71.1059 19.8116 71.0587 19.804 71.013C19.1369 66.9094 19.8474 62.7009 21.8256 59.0405C21.8675 58.9586 21.8755 58.8637 21.8483 58.7763C21.8206 58.6889 21.7601 58.615 21.6789 58.5718C21.5982 58.5281 21.5034 58.5176 21.4146 58.5427C21.3259 58.5678 21.2507 58.6261 21.2049 58.7054C19.15 62.503 18.4113 66.8703 19.1031 71.1285C19.1172 71.2104 19.1596 71.2847 19.2231 71.3385C19.2867 71.3922 19.3673 71.4219 19.451 71.4219Z" fill="#253858"/>
<path d="M18.9257 58.4135C18.9454 58.4135 18.965 58.4125 18.9842 58.4095C19.0301 58.402 19.0744 58.3859 19.1138 58.3618C19.1536 58.3377 19.1879 58.306 19.2156 58.2688C19.2429 58.2312 19.2625 58.189 19.2731 58.1438C19.2842 58.0991 19.2857 58.0523 19.2787 58.0066C18.9206 55.7672 14.7328 53.8011 12.2307 52.6262C11.9921 52.5142 11.7713 52.4102 11.5736 52.3152C11.3618 52.2138 11.1309 52.1565 10.8959 52.148C10.6609 52.1394 10.4264 52.1796 10.2081 52.266C9.98922 52.3524 9.79105 52.483 9.62565 52.6493C9.46025 52.8161 9.33116 53.015 9.24695 53.2335C8.96507 53.9739 9.06088 54.7686 9.53236 55.5944C9.55506 55.6356 9.58531 55.6718 9.62162 55.7009C9.65843 55.7301 9.70079 55.7517 9.74566 55.7647C9.79105 55.7773 9.83794 55.7813 9.88484 55.7758C9.93123 55.7703 9.97611 55.7552 10.017 55.7321C10.0578 55.709 10.0936 55.6783 10.1223 55.6412C10.1511 55.604 10.1718 55.5618 10.1839 55.5166C10.196 55.4714 10.199 55.4242 10.1924 55.3779C10.1859 55.3317 10.1702 55.287 10.146 55.2468C9.78348 54.6119 9.70381 54.0186 9.90753 53.4832C9.95543 53.3561 10.0296 53.2405 10.1254 53.1436C10.2207 53.0466 10.3362 52.9713 10.4627 52.9216C10.5918 52.8708 10.7295 52.8467 10.8681 52.8517C11.0063 52.8563 11.1425 52.8894 11.2675 52.9492C11.4662 53.0446 11.6886 53.1496 11.9296 53.2621C14.1494 54.3045 18.2822 56.2455 18.5803 58.1171C18.5934 58.1995 18.6352 58.2744 18.6983 58.3281C18.7618 58.3824 18.842 58.4125 18.9257 58.4135Z" fill="#253858"/>
<path d="M11.9134 54.4468C12.4146 54.4468 12.9653 54.2434 13.3001 53.9375C13.3354 53.9063 13.3642 53.8691 13.3848 53.8269C13.4055 53.7848 13.4176 53.7385 13.4201 53.6918C13.4227 53.6451 13.4161 53.5984 13.4 53.5542C13.3843 53.51 13.3596 53.4693 13.3278 53.4346C13.2961 53.4 13.2578 53.3723 13.2149 53.3527C13.172 53.3332 13.1256 53.3226 13.0787 53.3211C13.0313 53.3196 12.9845 53.3276 12.9406 53.3442C12.8967 53.3613 12.8569 53.3864 12.8226 53.4191C12.5069 53.7084 11.7889 53.8435 11.5634 53.6572C11.4913 53.5974 11.3986 53.5687 11.3053 53.5773C11.212 53.5858 11.1258 53.631 11.0657 53.7029C11.0062 53.7747 10.9775 53.8671 10.9861 53.9601C10.9946 54.053 11.04 54.1389 11.1116 54.1982C11.3209 54.3715 11.6063 54.4468 11.9134 54.4468Z" fill="#253858"/>
<path d="M15.8033 69.4133C15.8971 69.4163 15.9884 69.3822 16.0565 69.3184C16.125 69.2546 16.1654 69.1667 16.1684 69.0732C16.1714 68.9798 16.1371 68.8894 16.0731 68.8211C16.009 68.7527 15.9208 68.7131 15.827 68.7096C13.57 68.5553 11.383 67.8636 9.45017 66.6922C8.91515 66.3677 8.25104 65.9141 7.85771 65.2852C7.47801 64.6789 7.41851 63.962 7.70644 63.4577C7.71854 63.4356 7.73215 63.414 7.74527 63.3914C7.82393 63.2608 7.92176 63.0985 7.93537 62.8881C7.96059 62.4872 7.6787 62.218 7.47246 62.0216L7.40742 61.9588C7.01964 61.5785 6.8376 60.9832 6.92181 60.3649C7.00603 59.747 7.33934 59.2206 7.81435 58.9579C7.89503 58.9137 7.95454 58.8398 7.98126 58.7524C8.00799 58.6645 7.99891 58.5701 7.95706 58.4887C7.48003 57.5674 7.88444 56.2875 8.80522 55.8037C8.97616 55.7138 9.12088 55.6751 9.23485 55.6867C9.3483 55.6978 9.48294 55.7696 9.61203 55.8379L13.1852 57.7267C13.2679 57.7704 13.3647 57.7799 13.454 57.7523C13.5437 57.7251 13.6189 57.6634 13.6627 57.581C13.7066 57.4986 13.7157 57.4022 13.6885 57.3132C13.6607 57.2238 13.5992 57.149 13.5165 57.1053L9.94283 55.216C9.7739 55.1271 9.56312 55.0156 9.31452 54.9875C9.05382 54.9578 8.77899 55.0206 8.47594 55.1798C7.30354 55.7947 6.75742 57.2906 7.20117 58.5178C6.67825 58.9172 6.31822 59.5501 6.2219 60.2694C6.10845 61.1063 6.36612 61.9246 6.91223 62.4591C6.93543 62.4822 6.95963 62.5048 6.98434 62.5284C7.09024 62.6294 7.23496 62.7675 7.22992 62.8424C7.21075 62.9087 7.17999 62.9715 7.13965 63.0282C7.12352 63.0548 7.10789 63.082 7.09225 63.1091C6.68027 63.834 6.7428 64.8346 7.25815 65.6564C7.72913 66.4099 8.48148 66.9258 9.08306 67.291C11.1127 68.5207 13.4086 69.247 15.7786 69.4093L15.8033 69.4133Z" fill="#253858"/>
<path d="M10.2335 60.3057C10.3151 60.3057 10.3948 60.277 10.4583 60.2253C10.5214 60.173 10.5647 60.1007 10.5799 60.0203C10.5955 59.94 10.5824 59.8571 10.5431 59.7853C10.5037 59.7134 10.4407 59.6577 10.3646 59.6275C9.43975 59.2588 8.56788 58.7706 7.77166 58.1743C7.69652 58.1185 7.60223 58.0944 7.50945 58.1075C7.41666 58.1205 7.33296 58.1698 7.27699 58.2446C7.22051 58.319 7.1963 58.4129 7.20941 58.5053C7.22252 58.5977 7.27194 58.6811 7.34708 58.7374C8.19322 59.3703 9.11955 59.8892 10.1018 60.2805C10.1437 60.2971 10.1886 60.3057 10.2335 60.3057Z" fill="#253858"/>
<path d="M9.68805 64.0096C9.76923 64.0096 9.84789 63.9825 9.91093 63.9317C9.97396 63.881 10.0178 63.8102 10.0345 63.7308C10.0511 63.6519 10.0405 63.5696 10.0032 63.4977C9.9664 63.4254 9.90589 63.3686 9.83176 63.336C9.33103 63.1145 8.78694 62.8246 8.34974 62.5915C8.09156 62.4544 7.86868 62.3353 7.71388 62.2625C7.62916 62.2223 7.53234 62.2178 7.4441 62.2494C7.35585 62.2806 7.28375 62.3459 7.24391 62.4303C7.20357 62.5147 7.19903 62.6111 7.23029 62.699C7.26206 62.7869 7.32711 62.8588 7.41183 62.8985C7.55151 62.9638 7.76531 63.0788 8.01643 63.2114C8.46421 63.4505 9.02091 63.7469 9.54685 63.979C9.59123 63.9991 9.63913 64.0091 9.68805 64.0096Z" fill="#253858"/>
<path d="M25.8642 75.6762C25.958 75.6792 26.0488 75.6451 26.1174 75.5813C26.1855 75.5175 26.2258 75.4291 26.2288 75.3356C26.2318 75.2427 26.1971 75.1518 26.133 75.084C26.069 75.0156 25.9802 74.976 25.8869 74.9729C20.8887 74.6449 16.7831 74.1235 11.7657 72.5362C11.2715 72.3799 10.9831 71.9384 11.0804 71.4863C11.1288 71.2592 11.15 70.4962 11.1762 69.3579C11.1868 68.8888 11.1989 68.3613 11.21 68.2699C11.2191 68.2237 11.2181 68.1759 11.208 68.1302C11.1979 68.084 11.1787 68.0408 11.1515 68.0021C11.1243 67.964 11.0895 67.9313 11.0491 67.9067C11.0093 67.8816 10.9644 67.865 10.918 67.858C10.8711 67.8504 10.8237 67.8525 10.7778 67.864C10.732 67.8756 10.6886 67.8956 10.6513 67.9243C10.6135 67.9524 10.5817 67.9876 10.558 68.0283C10.5343 68.069 10.5187 68.1142 10.5126 68.1609C10.496 68.2659 10.4874 68.5713 10.4697 69.3414C10.4546 70.0215 10.4289 71.1593 10.3896 71.3391C10.2176 72.1398 10.7168 72.943 11.5524 73.2068C16.6373 74.8152 20.7894 75.3437 25.84 75.6752L25.8642 75.6762Z" fill="#253858"/>
<path d="M38.4146 59.4017C38.4892 59.4017 38.562 59.3781 38.6223 59.3344C38.6827 59.2907 38.7276 59.2294 38.7506 59.1586C39.5458 56.7168 39.9919 55.2168 40.6581 52.7398C40.6725 52.6946 40.6775 52.6469 40.6729 52.5992C40.6683 52.552 40.6541 52.5063 40.6311 52.4646C40.6082 52.4229 40.577 52.3862 40.5395 52.3571C40.502 52.3274 40.4589 52.3058 40.4128 52.2938C40.3667 52.2812 40.3185 52.2787 40.2713 52.2852C40.2241 52.2923 40.1787 52.3083 40.138 52.3329C40.0972 52.3576 40.0619 52.3902 40.0341 52.4289C40.0064 52.4676 39.9868 52.5118 39.9766 52.558C39.3133 55.0204 38.8701 56.5123 38.0785 58.9416C38.0613 58.9943 38.0569 59.0506 38.0657 59.1053C38.0744 59.1601 38.0961 59.2118 38.1289 59.257C38.1616 59.3017 38.2046 59.3384 38.2543 59.3635C38.3039 59.3886 38.3588 59.4017 38.4146 59.4017Z" fill="#253858"/>
<path d="M55.7606 74.1554C55.7795 74.2276 55.8207 74.2921 55.8782 74.3394C55.9358 74.3868 56.0064 74.4148 56.0808 74.4191C58.6443 74.5715 71.7655 75.5131 74.3304 75.5318C74.3778 75.5343 74.4253 75.5271 74.4703 75.5106C74.5148 75.4942 74.5554 75.4689 74.59 75.4362C74.6245 75.4035 74.6521 75.364 74.6708 75.3204C74.69 75.2766 74.7 75.2294 74.7001 75.1818C74.7006 75.134 74.6908 75.0868 74.6726 75.0428C74.6538 74.9988 74.6268 74.959 74.5927 74.9258C74.5586 74.8925 74.5181 74.8666 74.4736 74.8496C74.4292 74.8325 74.3815 74.8247 74.3342 74.8265C71.7841 74.8069 58.6713 73.8661 56.1209 73.714C56.0655 73.7107 56.01 73.7207 55.9592 73.743C55.9084 73.7653 55.8638 73.7993 55.8284 73.8424C55.7934 73.8854 55.7688 73.9363 55.757 73.9907C55.7453 74.0451 55.7465 74.1015 55.7606 74.1554Z" fill="#253858"/>
<path d="M12.0789 52.9998C12.1691 52.9998 12.2564 52.9652 12.3224 52.9029C12.388 52.8406 12.4273 52.7557 12.4319 52.6653C12.511 51.096 12.5549 49.9276 12.5917 48.3538C12.5927 48.3076 12.5847 48.2619 12.568 48.2187C12.5514 48.1755 12.5262 48.1363 12.4944 48.1026C12.4621 48.0695 12.4238 48.0424 12.3814 48.0238C12.3391 48.0052 12.2932 47.9951 12.2468 47.9941H12.2387C12.1465 47.9941 12.0577 48.0298 11.9916 48.0941C11.9261 48.1584 11.8878 48.2458 11.8858 48.3377C11.8484 49.904 11.8051 51.0679 11.7259 52.6301C11.7214 52.7236 11.7541 52.8145 11.8167 52.8838C11.8797 52.9531 11.9674 52.9943 12.0607 52.9988L12.0789 52.9998Z" fill="#253858"/>
<path d="M11.9889 23.5652C12.0479 23.5651 12.1054 23.5505 12.1568 23.5227C12.2083 23.4948 12.2521 23.4547 12.2844 23.4058C12.3162 23.357 12.3353 23.3009 12.3404 23.2428C12.3454 23.1847 12.3358 23.1262 12.3121 23.0727C11.1296 20.3757 9.02286 19.6083 7.44554 19.7865C6.19397 19.9278 5.23033 20.666 5.0488 21.6234C5.03165 21.7151 5.05182 21.8099 5.10426 21.887C5.15721 21.9641 5.2389 22.0171 5.33068 22.0344C5.42296 22.0516 5.51826 22.0317 5.59541 21.9791C5.67307 21.9264 5.72602 21.8453 5.74367 21.7535C5.86671 21.1016 6.58275 20.5921 7.52571 20.4854C8.85242 20.3353 10.6365 21.013 11.6652 23.3541C11.6929 23.4168 11.7383 23.4702 11.7958 23.5077C11.8533 23.5452 11.9203 23.5652 11.9889 23.5652Z" fill="#E5BABA"/>
<path d="M13.0692 20.5775C13.1484 20.5773 13.2245 20.551 13.2866 20.5027C13.3486 20.4543 13.3924 20.3868 13.4116 20.3107C13.8639 18.5037 15.1069 18.1543 16.4225 17.785C17.1804 17.5721 17.9646 17.3517 18.5651 16.8346C19.5071 16.022 20.0366 14.8213 19.973 13.6223C19.9059 12.3278 19.1344 11.1464 18.1784 10.8738C18.1335 10.8592 18.0861 10.8539 18.0387 10.8581C17.9913 10.8622 17.9454 10.8758 17.904 10.898C17.8622 10.9202 17.8249 10.9505 17.7951 10.9873C17.7654 11.024 17.7432 11.0663 17.7306 11.1117C17.7175 11.1571 17.7134 11.2046 17.7195 11.2514C17.725 11.2983 17.7402 11.3435 17.7639 11.3844C17.7876 11.4253 17.8193 11.461 17.8572 11.4894C17.895 11.5178 17.9383 11.5384 17.9842 11.5498C18.6524 11.7403 19.2161 12.6666 19.2681 13.6604C19.32 14.6542 18.8838 15.6327 18.1032 16.304C17.6217 16.7185 16.946 16.9085 16.2304 17.1096C14.8467 17.4983 13.2785 17.9392 12.7263 20.1418C12.7132 20.1938 12.7122 20.248 12.7233 20.3004C12.7344 20.3528 12.7576 20.4019 12.7904 20.4441C12.8236 20.4862 12.866 20.5203 12.9144 20.5438C12.9628 20.5672 13.0158 20.5793 13.0692 20.5792V20.5775Z" fill="#E5BABA"/>
<path d="M18.7116 16.5432C18.7943 16.5431 18.8745 16.514 18.938 16.4611C19.0016 16.4082 19.0439 16.3347 19.0586 16.2535C19.1382 15.786 19.0994 15.3062 18.9456 14.8574C18.7923 14.4086 18.5291 14.0049 18.1801 13.6827C18.1106 13.6206 18.0193 13.5884 17.926 13.5932C17.8327 13.5981 17.7455 13.6394 17.6829 13.7083C17.6199 13.7771 17.5871 13.8679 17.5917 13.9608C17.5957 14.0537 17.6371 14.141 17.7056 14.2039C17.9668 14.4451 18.164 14.7474 18.279 15.0834C18.394 15.4194 18.4227 15.7786 18.3637 16.1286C18.3551 16.1743 18.3556 16.2211 18.3657 16.2664C18.3753 16.3117 18.394 16.3547 18.4207 16.3929C18.4469 16.431 18.4807 16.4635 18.52 16.4887C18.5588 16.5137 18.6027 16.5309 18.6486 16.539C18.6693 16.5424 18.6905 16.5438 18.7116 16.5432Z" fill="#E5BABA"/>
<path d="M33.9595 11.0279C34.016 11.0278 34.0715 11.0142 34.1219 10.9883C34.1718 10.9624 34.2152 10.925 34.2475 10.879C34.2802 10.833 34.3009 10.78 34.309 10.7243C34.3165 10.6686 34.311 10.6118 34.2918 10.5588C32.834 6.48349 34.4905 3.12171 36.5287 1.33473C36.5645 1.30464 36.5948 1.26762 36.6165 1.22583C36.6381 1.18403 36.6513 1.13837 36.6548 1.09145C36.6583 1.04459 36.6523 0.997418 36.6376 0.952811C36.6225 0.908204 36.5988 0.867013 36.5675 0.83175C36.5363 0.796436 36.4985 0.767753 36.4556 0.747359C36.4132 0.726964 36.3668 0.71526 36.32 0.712949C36.2726 0.710638 36.2257 0.717772 36.1813 0.733946C36.1369 0.750121 36.0961 0.774987 36.0618 0.807035C33.8516 2.74652 32.0519 6.3891 33.6287 10.7951C33.6534 10.863 33.6983 10.9218 33.7573 10.9634C33.8163 11.005 33.8869 11.0275 33.9595 11.0279Z" fill="#E5BABA"/>
<path d="M33.7346 5.41543C33.8062 5.41543 33.8758 5.39393 33.9343 5.35374C33.9933 5.31355 34.0387 5.25659 34.0644 5.19028C34.3614 4.42222 35.0089 3.71575 35.5701 3.54868C35.7532 3.49412 35.9004 3.50467 36.0088 3.58148C36.0466 3.6082 36.0895 3.62724 36.1344 3.63749C36.1798 3.64773 36.2267 3.64904 36.2726 3.64131C36.3179 3.63352 36.3618 3.61689 36.4011 3.59228C36.4405 3.56766 36.4743 3.53562 36.501 3.49794C36.5282 3.46027 36.5469 3.41767 36.5575 3.37261C36.5675 3.3276 36.5691 3.28098 36.561 3.23542C36.5534 3.18986 36.5368 3.14631 36.5121 3.10723C36.4874 3.0681 36.4551 3.03424 36.4173 3.00752C36.1228 2.80171 35.7627 2.756 35.3669 2.875C34.5919 3.10954 33.7856 3.95672 33.4053 4.93877C33.3716 5.02577 33.3741 5.12247 33.4119 5.20766C33.4497 5.29286 33.5203 5.35957 33.6075 5.39312C33.6484 5.40844 33.6913 5.41598 33.7346 5.41543Z" fill="#E5BABA"/>
<path d="M44.2392 23.8894C44.3127 23.8895 44.3843 23.8667 44.4442 23.8243C44.5041 23.7819 44.5492 23.7219 44.5732 23.6527C44.5972 23.5835 44.5991 23.5086 44.5783 23.4384C44.5576 23.3682 44.5153 23.3061 44.4575 23.2609C42.9774 22.1017 41.213 21.3578 39.3472 21.1063C39.2543 21.0938 39.1603 21.1185 39.0857 21.1751C39.0112 21.2317 38.9622 21.3155 38.9497 21.408C38.9371 21.5005 38.962 21.5942 39.0187 21.6685C39.0755 21.7427 39.1596 21.7915 39.2525 21.804C40.9931 22.0387 42.639 22.7328 44.0197 23.8144C44.0822 23.8633 44.1596 23.8898 44.2392 23.8894Z" fill="#E5BABA"/>
<path d="M42.8632 25.4816C42.9485 25.4814 43.0307 25.4504 43.0949 25.3945C43.1591 25.3386 43.2007 25.2615 43.2122 25.1773C43.33 24.3295 42.9238 23.4114 42.071 22.5923C41.3295 21.8794 40.3237 21.326 39.3814 21.112C39.3362 21.1017 39.2894 21.1004 39.2437 21.1081C39.1979 21.1159 39.1542 21.1325 39.1149 21.1571C39.0757 21.1817 39.0417 21.2137 39.0148 21.2514C38.988 21.2891 38.9688 21.3317 38.9585 21.3767C38.9482 21.4217 38.9469 21.4683 38.9547 21.5139C38.9624 21.5595 38.9791 21.603 39.0038 21.6421C39.0285 21.6813 39.0607 21.7151 39.0985 21.7419C39.1363 21.7686 39.1791 21.7877 39.2242 21.7979C40.8669 22.1708 42.6967 23.7192 42.5125 25.0812C42.5062 25.127 42.509 25.1736 42.5208 25.2183C42.5326 25.263 42.5531 25.305 42.5812 25.3418C42.6093 25.3786 42.6444 25.4096 42.6845 25.4329C42.7247 25.4561 42.769 25.4713 42.815 25.4775C42.8309 25.48 42.847 25.4814 42.8632 25.4816Z" fill="#E5BABA"/>
<path d="M33.9597 15.7829C34.0278 15.7829 34.0943 15.7633 34.1518 15.7263C34.2088 15.6894 34.2542 15.6368 34.2819 15.5747C34.5366 15.009 35.477 14.0398 36.372 13.81C36.7124 13.7227 36.9832 13.7596 37.2 13.9226C37.2747 13.9788 37.369 14.0031 37.4618 13.9902C37.5545 13.9773 37.6382 13.9282 37.6947 13.8537C37.7512 13.7792 37.7759 13.6854 37.7628 13.5931C37.7497 13.5006 37.7003 13.4171 37.6256 13.3609C37.2369 13.0678 36.7427 12.9886 36.1956 13.1264C35.1361 13.3985 33.998 14.4825 33.6375 15.2852C33.5991 15.3701 33.5961 15.4668 33.6294 15.554C33.6627 15.6411 33.7292 15.7117 33.8145 15.7501C33.8598 15.771 33.9093 15.7822 33.9597 15.7829Z" fill="#E5BABA"/>
<path d="M30.4632 4.13112C30.5257 4.13107 30.5867 4.11444 30.6407 4.083C30.6946 4.05155 30.7395 4.00639 30.7702 3.95214C30.801 3.89784 30.8166 3.83645 30.8156 3.77417C30.8146 3.71188 30.797 3.65094 30.7647 3.5976C30.7062 3.49618 30.6381 3.38657 30.5706 3.27224C29.7985 1.97478 28.7421 0.198295 27.5526 0.0476472C27.133 -0.00570004 26.7463 0.139071 26.4034 0.478544C26.3686 0.510593 26.3403 0.549322 26.3207 0.592372C26.3015 0.635421 26.2909 0.681937 26.2899 0.729155C26.2889 0.776374 26.297 0.823342 26.3146 0.867195C26.3323 0.911098 26.3585 0.950983 26.3918 0.984539C26.4251 1.01809 26.4649 1.04462 26.5088 1.0625C26.5526 1.08038 26.6 1.08932 26.6474 1.08872C26.6948 1.08812 26.7417 1.07802 26.7851 1.05898C26.8285 1.04 26.8673 1.01247 26.9001 0.978059C27.1446 0.73654 27.3383 0.73006 27.4628 0.743572C28.31 0.851422 29.3457 2.59038 29.9629 3.62929C30.0315 3.74654 30.0976 3.8562 30.1601 3.95937C30.1914 4.01167 30.2357 4.05502 30.2887 4.08511C30.3416 4.11525 30.4016 4.13107 30.4632 4.13112Z" fill="#E5BABA"/>
<path d="M7.48651 11.4343C7.55509 11.4344 7.62267 11.4145 7.68015 11.3769C7.73814 11.3393 7.78352 11.2857 7.81075 11.2228C7.83849 11.1598 7.84656 11.0903 7.83496 11.0226C7.82336 10.955 7.79209 10.8923 7.74469 10.8422C7.57778 10.6663 7.38365 10.4388 7.17791 10.2002C6.25007 9.12083 5.09381 7.77821 4.02327 7.88666C3.58003 7.93182 3.21494 8.2074 2.9376 8.70747C2.89222 8.7891 2.88113 8.88534 2.90735 8.97501C2.93306 9.06467 2.99357 9.14043 3.07577 9.18558C3.15746 9.23079 3.25428 9.24164 3.34404 9.21587C3.4343 9.19011 3.51044 9.12978 3.55532 9.0481C3.79434 8.6178 4.02075 8.5949 4.09488 8.58731C4.80084 8.51578 5.90819 9.80501 6.64188 10.6587C6.85266 10.9031 7.05386 11.1342 7.23035 11.3229C7.26313 11.3579 7.30297 11.3858 7.34684 11.4049C7.39071 11.4241 7.43861 11.4341 7.48651 11.4343Z" fill="#E5BABA"/>
<path d="M8.59712 12.5993C8.66519 12.5994 8.73175 12.5798 8.78924 12.5429C8.84622 12.5059 8.89161 12.4534 8.91984 12.3913C8.94758 12.3293 8.95666 12.2606 8.94657 12.1934C8.93598 12.1263 8.90623 12.0636 8.86084 12.013C8.33087 11.4203 7.22957 10.1855 6.93912 9.34595C6.66077 8.53776 6.65421 7.66124 6.91995 6.84893C7.044 6.50287 7.19074 6.16541 7.35916 5.83875C7.48321 5.58487 7.61129 5.32281 7.72072 5.0508C8.05655 4.21357 8.10799 3.47545 7.87149 2.85688C7.85485 2.81323 7.83014 2.77324 7.79837 2.73918C7.76661 2.70508 7.72828 2.67765 7.68593 2.65841C7.64357 2.63917 7.59768 2.62857 7.55078 2.62711C7.50439 2.62571 7.4575 2.63349 7.41413 2.65007C7.37026 2.6667 7.33042 2.69171 7.29663 2.72381C7.26285 2.75586 7.23562 2.79429 7.21696 2.83684C7.1978 2.87943 7.18772 2.9253 7.18671 2.97181C7.1862 3.01833 7.19427 3.06454 7.21142 3.10784C7.38287 3.55516 7.33345 4.12149 7.06518 4.78989C6.96483 5.03789 6.84785 5.2777 6.7243 5.53152C6.54126 5.88632 6.38241 6.25297 6.24929 6.62906C5.93514 7.5876 5.9427 8.62199 6.27097 9.57577C6.60832 10.5484 7.72979 11.8037 8.33087 12.4808C8.36415 12.5183 8.40499 12.5482 8.45088 12.5687C8.49677 12.5891 8.54669 12.5995 8.59712 12.5993Z" fill="#E5BABA"/>
<path d="M6.74197 6.33002C6.83173 6.33023 6.91796 6.29637 6.98351 6.23539C7.04906 6.1744 7.0889 6.09087 7.09495 6.0017C7.12067 5.55358 7.03041 5.10646 6.83274 4.70324C6.63456 4.30002 6.33604 3.95432 5.96491 3.69933C5.92659 3.67256 5.88322 3.65367 5.83733 3.64378C5.79195 3.63383 5.74455 3.63313 5.69816 3.64162C5.65227 3.65011 5.6084 3.66764 5.56907 3.69321C5.52974 3.71872 5.49645 3.75183 5.47023 3.79051C5.44401 3.82919 5.42535 3.87264 5.41628 3.9184C5.4072 3.96416 5.4072 4.01133 5.41628 4.05709C5.42586 4.1028 5.44401 4.14631 5.47023 4.18494C5.49645 4.22356 5.53024 4.25657 5.56957 4.28209C5.83733 4.469 6.05265 4.72047 6.19636 5.01302C6.34008 5.30558 6.40664 5.62958 6.39 5.95479C6.38697 6.0009 6.39303 6.04721 6.40765 6.09102C6.42278 6.13477 6.44597 6.17526 6.47673 6.21002C6.50699 6.24483 6.5443 6.27326 6.58565 6.29376C6.6275 6.31425 6.67289 6.32636 6.71877 6.32942L6.74197 6.33002Z" fill="#E5BABA"/>
<path d="M28.8214 18.5872C28.8945 18.5873 28.9656 18.5647 29.0256 18.5227C31.2726 16.9368 31.0573 15.189 30.9539 14.3489C30.852 13.5246 30.5102 12.6697 29.9081 11.7364C29.8839 11.6964 29.8511 11.6617 29.8133 11.6344C29.775 11.607 29.7316 11.5876 29.6857 11.5771C29.6398 11.5666 29.5924 11.5654 29.546 11.5735C29.4996 11.5816 29.4558 11.5988 29.4159 11.6242C29.3766 11.6495 29.3423 11.6825 29.3156 11.7211C29.2893 11.7598 29.2707 11.8033 29.2611 11.8492C29.2515 11.8951 29.2515 11.9424 29.2606 11.9884C29.2697 12.0344 29.2878 12.0781 29.3146 12.1169C29.8577 12.9594 30.1647 13.7175 30.256 14.4345C30.3553 15.2465 30.5233 16.6038 28.6197 17.9481C28.5587 17.9913 28.5128 18.0527 28.4891 18.1235C28.4649 18.1944 28.4644 18.2709 28.4871 18.3421C28.5098 18.4133 28.5546 18.4755 28.6157 18.5195C28.6762 18.5636 28.7493 18.5873 28.8239 18.5872H28.8214Z" fill="#E5BABA"/>
<path d="M38.9165 49.0195C40.0542 49.0195 40.9764 48.9743 41.6727 48.8854C42.7738 48.7442 43.267 48.4966 43.3206 48.058C43.3865 47.5351 42.695 47.185 42.0099 46.9112C41.2777 46.6183 40.2213 46.3009 38.8694 45.9673C36.1767 45.3033 32.5798 44.6377 28.7404 44.0947C28.6481 44.0826 28.5548 44.1067 28.4807 44.163C28.406 44.2192 28.3571 44.3021 28.344 44.394C28.3309 44.486 28.3546 44.5789 28.4106 44.6537C28.466 44.7281 28.5492 44.7773 28.641 44.7914C32.2439 45.3012 35.6724 45.9261 38.2932 46.55C41.4166 47.296 42.3018 47.7812 42.5437 47.9666C42.2618 48.0972 41.2324 48.3835 37.7071 48.2991C34.7088 48.2273 30.828 47.9068 26.7798 47.3975C22.7311 46.8876 18.8932 46.2351 15.9705 45.5614C12.5375 44.7703 11.6112 44.2383 11.3692 44.0414C11.6379 43.9284 12.5325 43.7109 15.4002 43.748C17.7758 43.7812 20.94 43.9867 24.3089 44.3267C24.3573 44.3373 24.4073 44.3373 24.4562 44.3267C24.5046 44.3162 24.55 44.2961 24.5903 44.267C24.6302 44.2378 24.6634 44.2006 24.6881 44.1574C24.7129 44.1147 24.7285 44.0675 24.733 44.0183C24.7381 43.9691 24.733 43.9193 24.7174 43.8726C24.7018 43.8254 24.6765 43.7827 24.6433 43.746C24.6095 43.7094 24.5691 43.6802 24.5238 43.6606C24.4784 43.6405 24.429 43.6305 24.3795 43.631C20.7741 43.2663 17.4425 43.0583 14.9973 43.0448C13.7281 43.0378 12.7297 43.0825 12.0267 43.1784C11.354 43.2703 10.6577 43.4321 10.5936 43.9364C10.5346 44.3755 10.9537 44.7381 11.9849 45.147C12.7806 45.4635 13.9268 45.8016 15.3947 46.1517C18.3895 46.866 22.3983 47.5587 26.6901 48.0967C30.9818 48.6352 35.0375 48.9622 38.1167 49.0124C38.3933 49.0175 38.6599 49.0195 38.9165 49.0195Z" fill="#253858"/>
<path d="M25.49 42.6142C25.5682 42.6142 25.6438 42.588 25.7058 42.5403C25.7673 42.4931 25.8117 42.4263 25.8314 42.3509C26.0462 41.5291 25.9801 40.6591 25.6438 39.879C25.6272 39.8343 25.6014 39.7931 25.5687 39.7584C25.5354 39.7238 25.4956 39.6961 25.4517 39.6771C25.4073 39.6585 25.3599 39.6489 25.312 39.6489C25.2636 39.6489 25.2162 39.6585 25.1723 39.6776C25.1279 39.6966 25.0886 39.7243 25.0553 39.7589C25.0226 39.7936 24.9968 39.8348 24.9807 39.88C24.9641 39.9247 24.957 39.9724 24.9595 40.0201C24.9625 40.0679 24.9747 40.1146 24.9963 40.1578C25.2701 40.7937 25.3241 41.502 25.1491 42.1721C25.1254 42.2625 25.139 42.3585 25.1864 42.4389C25.2338 42.5192 25.311 42.5775 25.4018 42.6011C25.4305 42.6091 25.4602 42.6137 25.49 42.6142Z" fill="#E5BABA"/>
<path d="M26.977 42.6729C27.0708 42.6729 27.1605 42.6362 27.2266 42.5699C27.2931 42.5041 27.33 42.4147 27.33 42.3212V41.4356C27.33 41.3422 27.2931 41.2528 27.2266 41.1865C27.1605 41.1207 27.0708 41.0835 26.977 41.0835C26.8832 41.0835 26.7934 41.1207 26.7274 41.1865C26.6613 41.2528 26.624 41.3422 26.624 41.4356V42.3212C26.624 42.4147 26.6613 42.5041 26.7274 42.5699C26.7934 42.6362 26.8832 42.6729 26.977 42.6729Z" fill="#E5BABA"/>
<path d="M26.0172 35.3638C26.0752 35.3642 26.1322 35.3504 26.1836 35.3236C26.2351 35.2969 26.2789 35.2579 26.3117 35.2102C27.1306 34.0154 27.1906 32.372 26.462 31.1203C26.4403 31.0782 26.4095 31.041 26.3727 31.011C26.3359 30.981 26.2935 30.9587 26.2477 30.9454C26.2018 30.9322 26.1539 30.9284 26.1065 30.9341C26.0596 30.9398 26.0137 30.955 25.9723 30.9787C25.9315 31.0025 25.8952 31.0343 25.8669 31.0722C25.8382 31.1102 25.8175 31.1535 25.8064 31.1996C25.7948 31.2457 25.7928 31.2936 25.8009 31.3404C25.8084 31.3872 25.8256 31.432 25.8513 31.472C26.4398 32.4781 26.3868 33.8512 25.7283 34.8139C25.692 34.8669 25.6708 34.9289 25.6673 34.9929C25.6637 35.057 25.6778 35.1209 25.7086 35.1775C25.7389 35.2342 25.7837 35.2815 25.8392 35.3143C25.8947 35.3471 25.9582 35.3643 26.0223 35.3638H26.0172Z" fill="#E5BABA"/>
<path d="M46.4147 25.9781C44.9883 25.1578 44.146 23.951 44.5333 23.2828C44.9206 22.6145 46.3908 22.7379 47.8172 23.5582C49.2435 24.3786 50.0858 25.5853 49.6986 26.2536C49.3112 26.9218 47.841 26.7985 46.4147 25.9781Z" fill="#E5BABA"/>
<path d="M48.6764 27.0342C49.3079 27.0342 49.774 26.8232 50.0029 26.428C50.2625 25.9801 50.1642 25.3885 49.7263 24.7612C49.342 24.2106 48.7258 23.6748 47.9925 23.2526C47.2592 22.8305 46.4846 22.5673 45.8149 22.511C45.0497 22.4465 44.4865 22.6581 44.2258 23.1061C43.9651 23.554 44.0645 24.1456 44.5024 24.7729C44.8867 25.3234 45.5029 25.8593 46.2363 26.2814C46.9696 26.7036 47.7441 26.9668 48.4139 27.0231C48.5069 27.0307 48.5922 27.0342 48.6764 27.0342ZM45.5535 23.2034C45.6177 23.2034 45.6848 23.2034 45.7548 23.2116C46.324 23.2597 46.9908 23.4907 47.6382 23.8618C48.2856 24.2329 48.8206 24.6938 49.1466 25.1628C49.4115 25.5421 49.5033 25.8839 49.3915 26.0762C49.2796 26.2685 48.9371 26.3606 48.4745 26.3219C47.9054 26.2744 47.2386 26.0434 46.5912 25.6722C45.9437 25.3011 45.4105 24.8386 45.0839 24.3713C44.819 23.992 44.7278 23.6502 44.8391 23.4578C44.9327 23.2943 45.194 23.2034 45.5535 23.2034Z" fill="#E5BABA"/>
<path d="M41.322 28.4881C40.7045 28.2076 40.548 27.2283 40.9725 26.3009C41.397 25.3734 42.2418 24.8489 42.8593 25.1294C43.4768 25.4099 43.6333 26.3891 43.2088 27.3166C42.7843 28.244 41.9396 28.7685 41.322 28.4881Z" fill="#E5BABA"/>
<path d="M41.6801 28.9159C41.9816 28.9096 42.2754 28.8195 42.5282 28.6556C42.9402 28.3982 43.2998 27.9749 43.5334 27.4642C44.0466 26.3432 43.8159 25.1776 43.009 24.8112C42.6047 24.6277 42.1133 24.684 41.6601 24.9654C41.2481 25.2228 40.8885 25.6461 40.6548 26.1568C40.1417 27.2778 40.3717 28.4433 41.1793 28.8097C41.3366 28.8806 41.5074 28.9168 41.6801 28.9159ZM42.5041 25.4069C42.5769 25.4063 42.649 25.4215 42.7153 25.4515C43.1397 25.6438 43.2215 26.4482 42.8919 27.1722C42.7153 27.5527 42.4493 27.8758 42.1557 28.0581C42.0097 28.149 41.7266 28.2844 41.4729 28.1695C41.0486 27.9766 40.9674 27.1728 41.2964 26.4487C41.4729 26.0677 41.7383 25.7452 42.0326 25.5623C42.1732 25.4695 42.3362 25.416 42.5047 25.4075L42.5041 25.4069Z" fill="#E5BABA"/>
<path d="M38.8379 16.2322C37.6275 15.536 36.9916 14.376 37.4172 13.6413C37.8428 12.9066 39.1695 12.8754 40.3799 13.5716C41.5903 14.2678 42.2264 15.4277 41.8006 16.1624C41.3747 16.8971 40.0483 16.9283 38.8379 16.2322Z" fill="#E5BABA"/>
<path d="M40.5462 17.0884C41.2359 17.0884 41.8116 16.8352 42.0993 16.3392C42.6291 15.4222 41.9499 14.0731 40.5497 13.2676C39.1496 12.462 37.6366 12.5494 37.1051 13.4664C36.8348 13.9319 36.8696 14.5216 37.1974 15.1208C37.4964 15.6661 38.0137 16.1691 38.6546 16.5379C39.2955 16.9067 39.9623 17.0884 40.5462 17.0884ZM38.6629 13.4182C39.1019 13.4182 39.6422 13.5578 40.1972 13.8768C41.3254 14.5258 41.7757 15.4919 41.4884 15.9874C41.2013 16.4828 40.1348 16.5772 39.0083 15.9288C38.4786 15.6239 38.0555 15.217 37.8176 14.7837C37.7001 14.5651 37.5236 14.1488 37.7173 13.8181C37.8625 13.5666 38.2109 13.4182 38.6623 13.4182H38.6629Z" fill="#E5BABA"/>
<path d="M38.3455 6.74978C36.726 5.90954 35.9388 4.22242 36.5878 2.98147C37.2363 1.74052 39.0752 1.41572 40.6948 2.25596C42.3144 3.0962 43.1014 4.78337 42.4527 6.02432C41.8039 7.26522 39.9651 7.59008 38.3455 6.74978Z" fill="#E5BABA"/>
<path d="M40.1778 7.56732C41.2996 7.56732 42.2965 7.08187 42.7621 6.18898C43.1276 5.48954 43.1199 4.65698 42.7409 3.84382C42.376 3.06229 41.7062 2.38807 40.854 1.94597C39.0642 1.01787 37.008 1.41014 36.2703 2.82133C35.5331 4.23191 36.3883 6.13503 38.1785 7.06374C38.7949 7.38859 39.4805 7.56134 40.1778 7.56732ZM38.8424 2.14123C39.4306 2.14821 40.0086 2.29534 40.5279 2.57036C41.2424 2.94269 41.7992 3.49846 42.1005 4.14049C42.3854 4.75082 42.3948 5.3629 42.1359 5.86357C41.5785 6.93062 39.9494 7.18917 38.5051 6.4399C37.061 5.69062 36.3394 4.21202 36.8966 3.14613C37.239 2.4918 37.9843 2.14123 38.8424 2.14123Z" fill="#E5BABA"/>
<path d="M24.3954 7.208C23.1398 6.78193 22.624 4.96877 23.2427 3.15823C23.8619 1.34774 25.3818 0.225393 26.6374 0.651468C27.893 1.07754 28.4093 2.89064 27.7901 4.70118C27.1709 6.51172 25.651 7.63402 24.3954 7.208Z" fill="#E5BABA"/>
<path d="M24.9562 7.6512C25.4856 7.6512 26.0308 7.45599 26.5451 7.07548C27.243 6.56014 27.8052 5.75692 28.1275 4.81415C28.4502 3.87138 28.4971 2.89405 28.2601 2.05858C28.01 1.17916 27.4749 0.560036 26.7544 0.315553C26.0343 0.07107 25.232 0.236386 24.4948 0.780458C23.7964 1.2964 23.2346 2.09907 22.9119 3.04179C22.5892 3.98456 22.5423 4.96249 22.7793 5.79736C23.0294 6.67678 23.5644 7.2959 24.285 7.54038C24.5008 7.61372 24.7277 7.65115 24.9562 7.6512ZM26.0802 0.908853C26.232 0.908551 26.3832 0.933316 26.5274 0.982142C27.0216 1.14982 27.3963 1.60071 27.5808 2.25087C27.779 2.948 27.7362 3.77524 27.4598 4.58549C27.183 5.39575 26.709 6.07761 26.125 6.50855C25.5799 6.91132 25.0066 7.04087 24.5129 6.87319C23.4439 6.51031 23.0254 4.89332 23.5811 3.26929C24.0606 1.86805 25.113 0.910611 26.0802 0.910611V0.908853Z" fill="#E5BABA"/>
<path d="M15.2428 12.4322C13.5289 12.4322 12.1391 11.5188 12.1391 10.392C12.1391 9.26517 13.5289 8.35168 15.2428 8.35168C16.9573 8.35168 18.347 9.26517 18.347 10.392C18.347 11.5188 16.9573 12.4322 15.2428 12.4322Z" fill="#E5BABA"/>
<path d="M15.2375 12.7853C16.1351 12.7853 16.9838 12.5508 17.6272 12.1298C18.316 11.6772 18.6947 11.0605 18.6947 10.3932C18.6947 9.72606 18.316 9.1093 17.6272 8.6567C16.9838 8.23394 16.1351 8.00061 15.2375 8.00061C14.3399 8.00061 13.4913 8.23515 12.8483 8.6567C12.1595 9.1093 11.7798 9.72606 11.7798 10.3932C11.7798 11.0605 12.1595 11.6772 12.8483 12.1298C13.4928 12.5526 14.3399 12.7853 15.2375 12.7853ZM15.2375 8.70417C16.7291 8.70417 17.9887 9.47806 17.9887 10.3932C17.9887 11.3085 16.7291 12.0818 15.2375 12.0818C13.7464 12.0818 12.4863 11.3085 12.4863 10.3932C12.4863 9.47806 13.7464 8.70417 15.2375 8.70417Z" fill="#E5BABA"/>
<path d="M0.794517 12.4754C0.0769572 12.0646 -0.0919688 11.0167 0.416828 10.1346C0.925624 9.25263 1.91952 8.87056 2.63708 9.28131C3.35464 9.69202 3.52356 10.74 3.01477 11.6221C2.50597 12.504 1.51208 12.8861 0.794517 12.4754Z" fill="#E5BABA"/>
<path d="M1.74579 12.9198C2.4573 12.9198 3.2026 12.483 3.63676 11.7337C4.24238 10.689 4.01747 9.42666 3.13603 8.91951C2.25408 8.41241 1.04487 8.84979 0.439259 9.89392C-0.165851 10.9387 0.0590513 12.201 0.93999 12.7081C1.18506 12.8482 1.46341 12.9212 1.74579 12.9198ZM2.32216 9.40968C2.48353 9.40737 2.64236 9.44786 2.78305 9.52692C3.32714 9.84002 3.43607 10.6708 3.0251 11.3796C2.61463 12.0884 1.83757 12.4097 1.29348 12.0966C0.748877 11.7836 0.640459 10.9528 1.05143 10.2439C1.35499 9.72218 1.85976 9.40968 2.32216 9.40968Z" fill="#E5BABA"/>
<path d="M2.84356 25.3988C2.8012 23.3845 3.88434 21.7283 5.26299 21.6996C6.64163 21.6708 7.79336 23.2804 7.83571 25.2946C7.87807 27.3088 6.79493 28.965 5.41628 28.9938C4.03764 29.0225 2.88591 27.413 2.84356 25.3988Z" fill="#E5BABA"/>
<path d="M5.37982 29.3487H5.4247C6.21134 29.3322 6.93294 28.8832 7.45535 28.084C7.95053 27.3265 8.21123 26.3345 8.18954 25.2904C8.16786 24.2462 7.86531 23.2659 7.33836 22.5301C6.78266 21.7533 6.04343 21.3346 5.25628 21.3511C4.46863 21.3675 3.74855 21.8166 3.22563 22.6157C2.72994 23.3732 2.46924 24.3652 2.49193 25.4094C2.51412 26.4535 2.81567 27.4338 3.34211 28.1702C3.88772 28.9312 4.6083 29.3487 5.37982 29.3487ZM5.29964 22.0535C5.83567 22.0535 6.35505 22.3665 6.7635 22.9376C7.20826 23.5596 7.46442 24.4003 7.48308 25.3044C7.5214 27.1219 6.59155 28.6205 5.40957 28.6463C4.86547 28.6568 4.33348 28.3438 3.91747 27.7622C3.47221 27.1401 3.21705 26.2993 3.19739 25.3953C3.15957 23.5778 4.08993 22.0798 5.2714 22.0535H5.29964Z" fill="#E5BABA"/>
<path d="M38.8146 5.42057C38.9082 5.42057 38.998 5.38349 39.0643 5.31754C39.1305 5.25158 39.1677 5.16207 39.1677 5.06879V2.98337C39.1677 2.89004 39.1305 2.80057 39.0643 2.73462C38.998 2.66866 38.9082 2.63159 38.8146 2.63159C38.721 2.63159 38.6311 2.66866 38.5649 2.73462C38.4987 2.80057 38.4615 2.89004 38.4615 2.98337V5.06879C38.4615 5.16207 38.4987 5.25158 38.5649 5.31754C38.6311 5.38349 38.721 5.42057 38.8146 5.42057Z" fill="white"/>
<path d="M40.1658 5.41681C40.2566 5.41691 40.3439 5.3822 40.4097 5.31986C40.4754 5.25752 40.5146 5.17238 40.519 5.08206L40.5672 4.01029C40.5694 3.96413 40.5625 3.91791 40.5469 3.87441C40.5312 3.83086 40.5071 3.79082 40.4759 3.75656C40.4446 3.72236 40.407 3.69453 40.365 3.67479C40.323 3.65504 40.2775 3.64374 40.2311 3.64153C40.1848 3.63927 40.1384 3.6462 40.0947 3.66178C40.051 3.6774 40.0108 3.70146 39.9765 3.73255C39.9421 3.7636 39.9142 3.80117 39.8944 3.84297C39.8746 3.88481 39.8632 3.93012 39.861 3.97628L39.8086 5.04745C39.8063 5.09361 39.8132 5.13977 39.8287 5.18328C39.8444 5.22683 39.8685 5.26686 39.8996 5.30107C39.9307 5.33533 39.9684 5.36311 40.0103 5.3829C40.0523 5.40264 40.0977 5.414 40.1441 5.41621L40.1658 5.41681Z" fill="white"/>
<path d="M26.1982 5.08972C26.2527 5.08967 26.3066 5.07711 26.355 5.05305C26.4039 5.02899 26.4463 4.99403 26.4791 4.95088C26.5124 4.90773 26.5345 4.85765 26.5451 4.8044C26.5552 4.7512 26.5532 4.69635 26.5386 4.64411L25.8603 2.204C25.8336 2.11654 25.7731 2.0431 25.6924 1.9992C25.6122 1.9553 25.5174 1.9444 25.4292 1.96881C25.3405 1.99322 25.2648 2.05104 25.2184 2.12996C25.172 2.20887 25.1584 2.30276 25.1801 2.39162L25.8583 4.83173C25.879 4.90587 25.9234 4.97122 25.9849 5.01784C26.0459 5.06441 26.121 5.08967 26.1982 5.08972Z" fill="white"/>
<path d="M24.8405 5.41717C24.897 5.41722 24.953 5.40376 25.0029 5.37789C25.0533 5.35202 25.0962 5.31454 25.129 5.26858C25.1617 5.22262 25.1829 5.16952 25.1905 5.11376C25.1985 5.058 25.1925 5.00124 25.1738 4.94814L24.8077 3.90571C24.7921 3.86211 24.7684 3.82198 24.7371 3.78757C24.7064 3.75316 24.6686 3.72518 24.6267 3.70524C24.5849 3.68524 24.5395 3.67374 24.4931 3.67128C24.4467 3.66882 24.4003 3.67545 24.3564 3.69087C24.3126 3.70624 24.2722 3.7301 24.2379 3.76099C24.2031 3.79194 24.1754 3.82931 24.1552 3.87105C24.1351 3.9128 24.1235 3.95801 24.1209 4.00422C24.1184 4.05038 24.1255 4.09665 24.1406 4.14025L24.5067 5.18323C24.5314 5.25185 24.5768 5.31118 24.6363 5.35307C24.6963 5.39502 24.7674 5.41737 24.8405 5.41717Z" fill="white"/>
<path d="M40.1912 16.4061C40.2403 16.4061 40.2888 16.3959 40.3337 16.3762C40.3761 16.3575 40.4145 16.3307 40.4465 16.2972C40.4785 16.2638 40.5036 16.2243 40.5203 16.1812C40.5371 16.1381 40.5451 16.0921 40.544 16.0459C40.5429 15.9996 40.5326 15.9541 40.5138 15.9118L39.6209 13.8997C39.5831 13.8142 39.5127 13.7471 39.4252 13.7133C39.3819 13.6966 39.3357 13.6885 39.2893 13.6895C39.2428 13.6906 39.197 13.7007 39.1545 13.7194C39.112 13.7381 39.0736 13.7649 39.0415 13.7983C39.0094 13.8318 38.9842 13.8712 38.9675 13.9144C38.9506 13.9575 38.9425 14.0035 38.9436 14.0498C38.9446 14.0961 38.9548 14.1417 38.9736 14.184L39.8663 16.1968C39.8942 16.2594 39.9398 16.3125 39.9975 16.3497C40.0552 16.3869 40.1225 16.4065 40.1912 16.4061Z" fill="white"/>
<path d="M48.6129 25.7083C48.6754 25.7082 48.7369 25.6915 48.7908 25.6599C48.8448 25.6285 48.8894 25.5832 48.92 25.5288C48.9507 25.4745 48.9663 25.4131 48.9653 25.3507C48.9643 25.2884 48.9466 25.2274 48.9142 25.1741L48.1973 23.9975C48.1487 23.9177 48.0703 23.8605 47.9793 23.8383C47.8883 23.8162 47.7922 23.8309 47.7121 23.8793C47.632 23.9278 47.5745 24.0059 47.5523 24.0966C47.5301 24.1872 47.5449 24.283 47.5935 24.3627L48.311 25.5394C48.3425 25.591 48.3868 25.6337 48.4397 25.6633C48.4926 25.6928 48.5522 25.7083 48.6129 25.7083Z" fill="white"/>
<path d="M47.2178 25.9773C47.2781 25.9772 47.3373 25.9617 47.3899 25.9323C47.4425 25.9029 47.4866 25.8606 47.5181 25.8094C47.5496 25.7582 47.5674 25.6999 47.5699 25.6398C47.5723 25.5798 47.5593 25.5202 47.5321 25.4667L46.4563 23.3525C46.4139 23.2692 46.34 23.2061 46.251 23.1771C46.1619 23.1481 46.0649 23.1555 45.9813 23.1977C45.8977 23.2399 45.8344 23.3135 45.8053 23.4022C45.7761 23.491 45.7835 23.5876 45.8259 23.6709L46.9024 25.785C46.932 25.843 46.9771 25.8916 47.0328 25.9256C47.0885 25.9596 47.1525 25.9774 47.2178 25.9773Z" fill="white"/>
<path d="M42.0962 27.4011C42.152 27.4009 42.207 27.3876 42.2568 27.3624C42.2981 27.3413 42.3348 27.3124 42.3649 27.2771C42.3949 27.2419 42.4177 27.2011 42.4319 27.1571C42.4461 27.1131 42.4515 27.0668 42.4477 27.0208C42.4439 26.9747 42.431 26.9298 42.4099 26.8887L42.0885 26.2631C42.0452 26.1811 41.9713 26.1195 41.8826 26.0915C41.7939 26.0635 41.6977 26.0715 41.615 26.1138C41.5322 26.156 41.4695 26.229 41.4405 26.317C41.4115 26.4051 41.4184 26.5009 41.4599 26.5838L41.7813 27.2094C41.8109 27.2672 41.856 27.3157 41.9116 27.3495C41.9672 27.3833 42.0311 27.4012 42.0962 27.4011Z" fill="white"/>
<path d="M14.3089 10.7394C14.3941 10.7393 14.4763 10.7085 14.5408 10.6527L15.6734 9.66594C15.7364 9.60265 15.7727 9.51806 15.7752 9.42919C15.7778 9.34033 15.7465 9.25378 15.688 9.18692C15.629 9.12006 15.5468 9.07787 15.4581 9.06882C15.3693 9.05983 15.2806 9.0846 15.209 9.13825L14.0769 10.125C14.0224 10.1722 13.9841 10.235 13.9665 10.3047C13.9488 10.3744 13.9534 10.4478 13.9791 10.515C14.0048 10.5822 14.0502 10.64 14.1097 10.6805C14.1697 10.721 14.2403 10.7424 14.3124 10.7418L14.3089 10.7394Z" fill="white"/>
<path d="M15.6626 11.2924C15.7478 11.2923 15.83 11.2618 15.894 11.2063L16.5284 10.6581C16.5632 10.6278 16.5919 10.5909 16.6126 10.5496C16.6333 10.5082 16.6459 10.4632 16.6489 10.4171C16.6525 10.371 16.6464 10.3248 16.6318 10.281C16.6171 10.2371 16.594 10.1966 16.5632 10.1618C16.5329 10.1268 16.4961 10.0983 16.4543 10.0777C16.4129 10.057 16.368 10.0448 16.3217 10.0415C16.2753 10.0383 16.2289 10.0442 16.185 10.0588C16.1406 10.0735 16.1003 10.0966 16.065 10.1268L15.4306 10.675C15.3762 10.7221 15.3378 10.7845 15.3202 10.854C15.3025 10.9235 15.3066 10.9967 15.3318 11.0639C15.357 11.1311 15.4019 11.189 15.4614 11.2298C15.5204 11.2707 15.5905 11.2925 15.6626 11.2924Z" fill="white"/>
<path d="M6.17404 26.387C6.2406 26.3871 6.30666 26.3679 6.36263 26.3319C6.4418 26.2819 6.49777 26.2027 6.51794 26.1116C6.53862 26.0206 6.52198 25.9252 6.47156 25.8464L5.11157 23.7106C5.06064 23.6335 4.98147 23.5794 4.8907 23.56C4.79993 23.5406 4.70564 23.5575 4.62748 23.6069C4.54882 23.6564 4.49335 23.7345 4.47268 23.8244C4.4515 23.9143 4.46713 24.0089 4.51554 24.0876L5.87552 26.2234C5.90729 26.2735 5.95116 26.3148 6.0036 26.3434C6.05554 26.372 6.11454 26.387 6.17404 26.387Z" fill="white"/>
<path d="M5.49694 27.6934C5.55997 27.6929 5.622 27.6755 5.67595 27.6431C5.72991 27.6107 5.77428 27.5644 5.80453 27.5091C5.83479 27.4537 5.84941 27.3915 5.84689 27.3286C5.84437 27.2657 5.82521 27.2046 5.79142 27.1517L4.75518 25.5423C4.73097 25.5019 4.6987 25.4668 4.66088 25.4391C4.62256 25.4113 4.57919 25.3914 4.5333 25.3807C4.48691 25.3699 4.43951 25.3684 4.39261 25.3764C4.34622 25.3843 4.30185 25.4015 4.26201 25.4269C4.22217 25.4523 4.18788 25.4854 4.16116 25.5242C4.13443 25.5631 4.11578 25.6069 4.1062 25.653C4.09712 25.6992 4.09712 25.7467 4.1062 25.7928C4.11578 25.839 4.13443 25.8828 4.16116 25.9216L5.19691 27.531C5.22867 27.5812 5.27355 27.6224 5.32599 27.6508C5.37844 27.6792 5.43693 27.6939 5.49694 27.6934Z" fill="white"/>
<path d="M1.96364 11.9027C2.05138 11.9031 2.1366 11.8707 2.20164 11.8119C2.2672 11.7531 2.30804 11.6721 2.31662 11.5849L2.46134 10.1145C2.46689 10.068 2.46336 10.0208 2.45025 9.97578C2.43714 9.93077 2.41545 9.88873 2.3862 9.85226C2.35645 9.81574 2.32015 9.78545 2.2788 9.76315C2.23745 9.74089 2.19206 9.72708 2.14517 9.72251C2.09827 9.71794 2.05138 9.72271 2.00599 9.73657C1.96111 9.75044 1.91977 9.77309 1.88346 9.80318C1.84766 9.83332 1.8179 9.87029 1.79672 9.91198C1.77504 9.95363 1.76244 9.99919 1.75841 10.0459L1.61318 11.5163C1.60864 11.5623 1.61317 11.6087 1.62679 11.653C1.6404 11.6972 1.66259 11.7383 1.69184 11.7741C1.72109 11.8098 1.75739 11.8394 1.79824 11.8612C1.83959 11.8829 1.88447 11.8964 1.93035 11.9009L1.96364 11.9027Z" fill="white"/>
<path d="M63.3084 17.2588C63.467 17.2588 63.6195 17.1987 63.7352 17.0908C63.851 16.9829 63.9213 16.8353 63.9318 16.6777C63.9424 16.5202 63.8925 16.3645 63.7922 16.2422C63.6919 16.12 63.5488 16.0402 63.3916 16.0191C63.2346 15.998 63.0753 16.0372 62.9461 16.1286C62.8169 16.2201 62.7274 16.3571 62.6958 16.5118C62.6641 16.6665 62.6926 16.8274 62.7755 16.962C62.8585 17.0965 62.9896 17.1947 63.1425 17.2365C63.1965 17.2514 63.2524 17.2589 63.3084 17.2588Z" fill="#253858"/>
<path d="M66.1011 19.1248C66.2379 19.1246 66.3709 19.0798 66.4797 18.997C66.5884 18.9143 66.6669 18.7983 66.7031 18.6669C66.7272 18.5874 66.7352 18.5038 66.7264 18.4212C66.7176 18.3386 66.6923 18.2585 66.6519 18.1859C66.6116 18.1132 66.557 18.0492 66.4915 17.9979C66.4259 17.9465 66.3507 17.9087 66.2703 17.8868C66.1898 17.8649 66.1058 17.8592 66.0231 17.8701C65.9405 17.8811 65.8608 17.9085 65.7889 17.9506C65.717 17.9927 65.6543 18.0487 65.6045 18.1153C65.5547 18.182 65.5188 18.2578 65.499 18.3386C65.456 18.4974 65.4779 18.6667 65.5598 18.8094C65.6418 18.9523 65.7771 19.057 65.9363 19.1007C65.9898 19.1162 66.0453 19.1243 66.1011 19.1248Z" fill="#253858"/>
<g opacity="0.2">
<path d="M68.7149 21.8028C68.0657 21.466 67.7039 20.8782 67.9069 20.4899C68.1099 20.1016 68.8008 20.0599 69.45 20.3967C70.0992 20.7336 70.461 21.3213 70.258 21.7096C70.055 22.0979 69.3642 22.1396 68.7149 21.8028Z" fill="#E5BABA"/>
<path d="M69.5629 22.3824C70.0132 22.3824 70.391 22.2066 70.5635 21.8735C70.8613 21.3042 70.4405 20.5192 69.6053 20.0859C69.2611 19.8999 68.8732 19.8086 68.4818 19.8215C68.0698 19.8467 67.7414 20.0314 67.586 20.3287C67.2882 20.8979 67.709 21.683 68.5442 22.1162C68.8577 22.2845 69.2069 22.3758 69.5629 22.3824ZM68.5842 20.5222C68.8281 20.5298 69.0667 20.5942 69.281 20.7103C69.7995 20.9789 70.0202 21.3928 69.939 21.5487C69.8578 21.7047 69.3905 21.761 68.872 21.4901C68.3535 21.2192 68.1328 20.8071 68.214 20.6517C68.2516 20.5796 68.3682 20.5309 68.5265 20.5215C68.5453 20.5227 68.5648 20.5222 68.5842 20.5222Z" fill="#E5BABA"/>
</g>
<path d="M26.9103 46.486C27.0591 46.486 27.2088 46.4819 27.3576 46.4749C27.6662 46.4604 27.9612 46.3448 28.1967 46.1454C28.4322 45.9465 28.595 45.6752 28.6601 45.3743C29.0277 43.6403 28.8956 41.1045 28.3565 39.6021C28.2809 39.3926 28.1962 39.1816 28.114 38.9767C27.7993 38.1959 27.5028 37.4578 27.6828 36.7489C27.7903 36.3285 28.0615 35.9528 28.348 35.5541C28.6914 35.0792 29.0454 34.5873 29.1528 33.9711C29.299 33.128 28.9566 32.2621 28.6258 31.4248C28.3742 30.7875 28.1362 30.1854 28.1195 29.6355C28.1014 29.0146 28.2859 28.5215 28.6495 28.2084C29.0065 27.9042 29.5431 27.7734 30.0478 27.8672C32.1264 28.2542 33.5827 28.1217 34.4989 27.4609C35.0536 27.0617 35.3854 26.4789 35.4857 25.7296C35.7414 23.8669 36.2416 22.651 36.9824 22.1134C37.5764 21.6813 38.2539 21.7405 38.7983 21.788C38.9354 21.8003 39.066 21.8114 39.1878 21.8143C39.5645 21.9117 39.7464 21.8917 39.8729 21.7428C39.9166 21.6911 39.9446 21.6282 39.9539 21.5613C39.9631 21.4944 39.9533 21.4262 39.9253 21.3647C39.8435 21.1888 39.674 21.1196 39.285 21.1126C37.649 20.6898 35.5009 21.2931 34.7026 23.0473C34.5261 23.4348 34.4213 23.8588 34.3199 24.2686C34.1363 25.0079 33.9629 25.7062 33.4092 26.0198C32.9801 26.2637 32.2464 26.1154 31.3977 25.9442C30.3191 25.7267 28.9768 25.4558 27.5936 25.8674C27.3374 25.9436 27.2769 25.8574 27.2406 25.8087C26.7888 25.1714 27.4211 22.4481 28.3001 21.255C28.94 20.3832 29.8542 19.7846 30.8214 19.1508C31.6312 18.6231 32.4693 18.0726 33.144 17.3433C34.2261 16.1671 34.811 14.6207 34.7773 13.0259C34.7465 11.7407 34.3128 10.5177 33.8494 9.38734C32.9221 7.12938 31.7759 4.96686 30.4275 2.93052C30.3786 2.85397 30.302 2.79916 30.2132 2.77756C30.125 2.75596 30.0317 2.76928 29.9525 2.81469C29.8738 2.8601 29.8159 2.93409 29.7901 3.02124C29.7649 3.10835 29.7745 3.20188 29.8164 3.2823C30.1789 4.01279 30.5228 4.61553 30.8224 5.14669C31.5828 6.48756 32.1324 7.4567 32.4945 9.42015L32.5318 9.6248C32.794 11.0325 33.1515 12.9672 32.8142 14.243C32.379 15.8846 30.8062 16.7447 29.1407 17.6576C27.411 18.6056 25.6224 19.5859 25.1283 21.5329C25.0753 21.7399 25.034 21.9586 24.9931 22.1702C24.8106 23.1347 24.6523 23.7292 23.9982 23.8546C23.8863 23.8748 23.7728 23.8796 23.6599 23.8687C22.7769 23.7907 21.8864 23.5597 21.0246 23.3363C19.8679 23.0362 18.6707 22.726 17.4348 22.7595C17.164 22.767 16.8857 22.7894 16.6164 22.8111C15.6931 22.8849 14.8217 22.9547 14.1894 22.4775C13.4164 21.8911 13.3957 20.7186 13.4244 20.2425C13.4456 19.8714 13.5001 19.5055 13.5586 19.118C13.6403 18.5698 13.7255 18.004 13.7053 17.4236C13.6498 15.8436 12.1991 14.7343 10.9188 13.7552C10.6783 13.5711 10.4483 13.397 10.2385 13.2246C9.07622 12.2795 7.80045 10.8835 7.36174 10.2521C7.32342 10.1935 7.28762 10.1378 7.25283 10.0815C7.20442 10.0031 7.12727 9.94669 7.03801 9.92428C6.94826 9.90188 6.85345 9.91529 6.77378 9.96171C6.69411 10.0081 6.63561 10.0837 6.61141 10.1724C6.5867 10.2611 6.5983 10.3558 6.64318 10.4362C6.66788 10.4802 6.70218 10.5294 6.73596 10.5845C7.26594 11.4024 8.11107 12.2549 9.0021 13.1543C9.66167 13.8203 10.3439 14.5092 10.8961 15.1887C11.3993 15.8072 11.8683 16.482 11.8965 17.2255C11.9253 17.9824 11.7604 18.6718 11.5859 19.4018C11.4316 20.0467 11.2728 20.7127 11.2491 21.4444C11.2002 22.9805 11.9555 24.2586 13.2268 24.7763C14.1965 25.1732 15.0436 25.1996 15.9397 25.2278C16.2206 25.2359 16.5115 25.2453 16.8171 25.2658C18.7736 25.3961 20.713 25.7072 22.6115 26.1951C23.2393 26.3563 23.9826 26.6143 24.1672 27.1842C24.265 27.485 24.1893 27.8373 24.1082 28.2102C24.0638 28.4016 24.0295 28.5951 24.0048 28.79C23.908 29.6495 24.1863 30.4621 24.4561 31.2484C24.7254 32.0345 24.9856 32.7921 24.8469 33.5314C24.7319 34.1429 24.3558 34.694 23.9574 35.2779C23.4279 36.0507 22.8848 36.8498 22.9569 37.8371C23.0018 38.4339 23.2706 38.9455 23.5303 39.4408C23.6286 39.6272 23.7209 39.803 23.8011 39.9823C24.2902 41.0704 24.3779 43.1711 23.9937 44.5696C23.9433 44.7534 23.9312 44.9458 23.9579 45.1342C23.9851 45.3231 24.0502 45.5044 24.15 45.6672C24.2478 45.8284 24.3784 45.9676 24.5332 46.0761C24.6881 46.1846 24.864 46.2599 25.0491 46.2971C25.6618 46.4227 26.285 46.486 26.9103 46.486ZM29.7175 27.1297C29.1613 27.1243 28.6213 27.3158 28.1932 27.6702C27.82 27.9886 27.3823 28.5907 27.4141 29.6531C27.4342 30.3255 27.7086 31.0133 27.9683 31.6787C28.2774 32.4602 28.5693 33.1989 28.4569 33.8479C28.3767 34.307 28.0842 34.7128 27.7746 35.1425C27.4655 35.5722 27.1382 36.0254 26.9986 36.5754C26.7631 37.5076 27.1161 38.3882 27.4579 39.2394C27.5417 39.4463 27.6208 39.6423 27.6934 39.8392C28.1861 41.213 28.3112 43.6312 27.9713 45.2296C27.939 45.3788 27.8578 45.513 27.7408 45.6114C27.6238 45.7094 27.4771 45.7661 27.3238 45.7727C26.6103 45.8073 25.8953 45.7521 25.1958 45.6084C25.1051 45.5898 25.0194 45.5531 24.9437 45.4999C24.8681 45.4472 24.804 45.3788 24.7561 45.3C24.7062 45.2196 24.6734 45.1297 24.6603 45.0362C24.6467 44.9423 24.6533 44.8469 24.6785 44.756C25.1142 43.1731 25.0133 40.9503 24.45 39.6955C24.3608 39.4961 24.2589 39.3027 24.1606 39.1153C23.9251 38.6637 23.6992 38.2358 23.6649 37.7849C23.61 37.0427 24.0633 36.3778 24.5438 35.6743C24.9659 35.0569 25.4011 34.4178 25.5443 33.6615C25.7167 32.741 25.4172 31.8669 25.1278 31.0232C24.8721 30.2775 24.6301 29.5733 24.7092 28.8703C24.7274 28.7062 24.7637 28.5373 24.8015 28.3591C24.8928 27.9329 24.9957 27.4504 24.8408 26.9708C24.5509 26.0743 23.5923 25.7225 22.7895 25.5162C20.8486 25.0174 18.8654 24.6993 16.8655 24.5658C16.5473 24.5447 16.2498 24.5353 15.9629 24.5265C15.0961 24.4996 14.3472 24.4761 13.496 24.1279C12.5067 23.7233 11.9167 22.7044 11.9565 21.469C11.9772 20.8089 12.1214 20.2056 12.2742 19.5671C12.4507 18.8231 12.6358 18.0539 12.6035 17.2008C12.5828 16.662 12.3907 16.1643 12.1285 15.7105C12.6232 16.2381 12.9777 16.8116 12.9999 17.4506C13.0185 17.9647 12.9414 18.476 12.8607 19.0166C12.8017 19.4024 12.7427 19.8016 12.72 20.205C12.6494 21.4515 13.0301 22.485 13.7653 23.0403C14.612 23.6799 15.6608 23.5961 16.6754 23.5146C16.9472 23.4929 17.2054 23.4724 17.4565 23.4653C18.5926 23.4343 19.6883 23.7186 20.8486 24.0194C21.7387 24.2498 22.6584 24.4884 23.5994 24.5717C23.7774 24.5886 23.9569 24.5806 24.1329 24.5477C25.3058 24.3231 25.5186 23.2033 25.689 22.3033C25.7288 22.0928 25.7667 21.8929 25.8146 21.7076C26.2336 20.0572 27.8119 19.1919 29.4836 18.2761C31.2056 17.3322 32.9866 16.356 33.4985 14.4253C33.8414 13.1314 33.566 11.3496 33.3078 9.9273C33.7022 10.9175 34.0476 11.9717 34.0728 13.044C34.1005 14.4563 33.5812 15.825 32.6221 16.8655C32.0053 17.5315 31.2041 18.0556 30.4306 18.5628C29.4533 19.2024 28.4428 19.8643 27.7272 20.8388C26.8891 21.9803 25.8882 25.1187 26.6632 26.2139C26.809 26.4197 27.1498 26.7357 27.7953 26.5434C29.009 26.1822 30.2031 26.4261 31.257 26.6354C32.2454 26.8347 33.0981 27.0071 33.7582 26.6354C34.5347 26.1951 34.7702 25.3784 34.9734 24.5681C34.9028 24.8936 34.8403 25.2482 34.7883 25.6352C34.7132 26.1934 34.4843 26.6038 34.0874 26.8899C33.3467 27.424 32.0326 27.5195 30.1794 27.1748C30.0271 27.1456 29.8728 27.1305 29.7175 27.1297Z" fill="#E6BABA"/>
<path d="M42.9711 48.0148C42.9711 48.0148 41.4485 49.7468 26.0211 47.6572C10.5933 45.568 10.9453 43.9841 10.9453 43.9841C10.906 44.9968 10.9887 46.0095 10.9453 47.0217C10.9382 47.202 10.9357 47.3964 11.0396 47.5461C11.144 47.6953 29.1036 53.3591 41.558 51.1036C41.751 51.0685 41.9476 51.0117 42.0989 50.8896C42.2601 50.759 42.3472 50.5631 42.4231 50.3732C42.6891 49.7187 42.8216 48.701 42.9711 48.0148Z" fill="#253858"/>
<path d="M35.0403 51.9799C37.2974 51.9799 39.5343 51.8262 41.6236 51.4474C41.8143 51.4128 42.0945 51.3455 42.3234 51.1606C42.5523 50.9763 42.6636 50.7251 42.753 50.5016C42.9543 50.0027 43.0797 49.3291 43.1903 48.7298C43.2333 48.4953 43.2739 48.2798 43.3157 48.0899C43.3522 47.9226 43.2798 47.7307 43.1203 47.6664C42.9608 47.6021 42.8054 47.6358 42.713 47.7709C42.6212 47.8297 42.0068 48.1778 39.8291 48.2983C36.7639 48.4651 32.1333 48.1326 26.0651 47.3108C12.9856 45.5396 11.4496 44.1305 11.2923 43.9306C11.2797 43.8497 11.2394 43.7759 11.1778 43.7216C11.1163 43.6674 11.0377 43.6362 10.9555 43.6332C10.8733 43.6307 10.7931 43.6563 10.728 43.7066C10.663 43.7563 10.6171 43.8271 10.5989 43.907C10.5924 43.9361 10.5894 43.9658 10.5899 43.9949C10.5707 44.5038 10.5813 45.0151 10.5899 45.5104C10.5979 46.0062 10.611 46.5126 10.5899 47.0079C10.5823 47.2023 10.5702 47.4946 10.7462 47.7468C10.8203 47.8528 10.8405 47.8814 11.7618 48.1708C12.2005 48.3084 12.9468 48.5334 14.0052 48.8228C15.693 49.2834 18.3807 49.961 21.5973 50.5734C25.3646 51.2862 30.2484 51.9799 35.0403 51.9799ZM42.4923 48.6213C42.3881 49.1809 42.2704 49.8108 42.098 50.2403C42.0356 50.3941 41.9726 50.5382 41.8785 50.6141C41.8002 50.6779 41.6789 50.7221 41.4971 50.7557C35.1719 51.901 27.4311 50.9436 22.0522 49.9394C16.4609 48.8951 12.0527 47.5509 11.3069 47.2756C11.2968 47.1952 11.2948 47.1139 11.3009 47.0335C11.321 46.5166 11.3099 45.9967 11.3009 45.4938C11.2958 45.2638 11.2908 45.0312 11.2888 44.7976C13.0547 45.8269 18.1608 46.9476 25.9708 48.0055C32.3935 48.8755 37.2172 49.202 40.3065 48.9705C41.3688 48.8911 42.0533 48.7565 42.4923 48.6213Z" fill="#253858"/>
<path d="M35.6971 51.3434C38.2654 51.3434 41.0968 50.8622 41.2169 50.8416C41.3058 50.8225 41.3838 50.7698 41.4348 50.6949C41.4859 50.6201 41.5058 50.5281 41.4906 50.4387C41.4755 50.3498 41.4264 50.2694 41.3534 50.2157C41.2805 50.1614 41.1895 50.1373 41.0992 50.1484C41.0703 50.1534 38.2059 50.6397 35.6981 50.6397H35.6487C35.5549 50.6397 35.4651 50.6768 35.3991 50.7426C35.333 50.8089 35.2957 50.8983 35.2957 50.9918C35.2957 51.0847 35.333 51.1741 35.3991 51.2404C35.4651 51.3062 35.5549 51.3434 35.6487 51.3434H35.6971Z" fill="white"/>
<path d="M33.4538 51.3452C33.5476 51.3452 33.6373 51.308 33.7034 51.2422C33.7699 51.1759 33.8073 51.0865 33.8073 50.9936C33.8073 50.9001 33.7699 50.8107 33.7034 50.7444C33.6373 50.6786 33.5476 50.6415 33.4538 50.6415C32.8275 50.6354 32.2017 50.5962 31.5794 50.5244C31.4867 50.5129 31.3929 50.539 31.3187 50.5962C31.2451 50.6535 31.1972 50.7379 31.1856 50.8303C31.174 50.9228 31.2002 51.0162 31.2577 51.09C31.3152 51.1634 31.3999 51.2111 31.4927 51.2226C32.1437 51.2985 32.7982 51.3397 33.4538 51.3452Z" fill="white"/>
</svg>
