<svg width="24" height="24" viewBox="0 0 24 24" fill="none" xmlns="http://www.w3.org/2000/svg">
<g clip-path="url(#clip0_3742_470)">
<path d="M1 10H21C21.5523 10 22 10.4477 22 11V23H1V10Z" fill="#EAE6FF"/>
<path d="M4 12H10C10.5523 12 11 12.4477 11 13V20H4V12Z" fill="white"/>
<path d="M4 13H9C9.55228 13 10 13.4477 10 14V20H4V13Z" fill="#EAE6FF"/>
<path d="M22.5 24H1.5C0.673 24 0 23.327 0 22.5V9.5C0 8.673 0.673 8 1.5 8H22.5C23.327 8 24 8.673 24 9.5V22.5C24 23.327 23.327 24 22.5 24ZM1.5 9C1.225 9 1 9.225 1 9.5V22.5C1 22.775 1.225 23 1.5 23H22.5C22.775 23 23 22.775 23 22.5V9.5C23 9.225 22.775 9 22.5 9H1.5Z" fill="#283754"/>
<circle cx="2.5" cy="3.5" r="1.5" fill="#EAE6FF"/>
<path d="M10.5031 21H4.49707C3.67007 21 2.99707 20.327 2.99707 19.5V12.5C2.99707 11.673 3.67007 11 4.49707 11H10.5031C11.3301 11 12.0031 11.673 12.0031 12.5V19.5C12.0031 20.327 11.3301 21 10.5031 21ZM4.49707 12C4.22207 12 3.99707 12.225 3.99707 12.5V19.5C3.99707 19.775 4.22207 20 4.49707 20H10.5031C10.7781 20 11.0031 19.775 11.0031 19.5V12.5C11.0031 12.225 10.7781 12 10.5031 12H4.49707Z" fill="#283754"/>
<path d="M22.5 6H9.5C8.673 6 8 5.327 8 4.5V1.5C8 0.673 8.673 0 9.5 0H22.5C23.327 0 24 0.673 24 1.5V4.5C24 5.327 23.327 6 22.5 6ZM9.5 1C9.225 1 9 1.225 9 1.5V4.5C9 4.775 9.225 5 9.5 5H22.5C22.775 5 23 4.775 23 4.5V1.5C23 1.225 22.775 1 22.5 1H9.5Z" fill="#283754"/>
<path d="M3 6C1.346 6 0 4.654 0 3C0 1.346 1.346 0 3 0C4.654 0 6 1.346 6 3C6 4.654 4.654 6 3 6ZM3 1C1.897 1 1 1.897 1 3C1 4.103 1.897 5 3 5C4.103 5 5 4.103 5 3C5 1.897 4.103 1 3 1Z" fill="#283754"/>
<path d="M20.5 13H14.5C14.224 13 14 12.776 14 12.5C14 12.224 14.224 12 14.5 12H20.5C20.776 12 21 12.224 21 12.5C21 12.776 20.776 13 20.5 13Z" fill="#283754"/>
<path d="M20.5 16H14.5C14.224 16 14 15.776 14 15.5C14 15.224 14.224 15 14.5 15H20.5C20.776 15 21 15.224 21 15.5C21 15.776 20.776 16 20.5 16Z" fill="#283754"/>
<path d="M20.5 19H14.5C14.224 19 14 18.776 14 18.5C14 18.224 14.224 18 14.5 18H20.5C20.776 18 21 18.224 21 18.5C21 18.776 20.776 19 20.5 19Z" fill="#283754"/>
<path d="M9 2H21C21.5523 2 22 2.44772 22 3V5H9V2Z" fill="#EAE6FF"/>
</g>
<defs>
<clipPath id="clip0_3742_470">
<rect width="24" height="24" fill="white"/>
</clipPath>
</defs>
</svg>
