<svg xmlns="http://www.w3.org/2000/svg" width="21.982" height="24" viewBox="0 0 21.982 24">
  <g id="Sales" transform="translate(-832 -468)">
    <g id="Group_221524" data-name="Group 221524" transform="translate(-12.926 101.479)">
      <rect id="Rectangle_7192" data-name="Rectangle 7192" width="13.091" height="16.364" rx="6.545" transform="translate(850.3 367.044)" fill="#a7c9ff"/>
      <g id="support" transform="translate(844.925 366.521)">
        <g id="Group_89305" data-name="Group 89305">
          <path id="Path_102327" data-name="Path 102327" d="M37.421,9.921h-.059V8.465a8.466,8.466,0,0,0-16.931,0V9.921h-.356a2.419,2.419,0,0,0-2.317,2.5v3.713a2.347,2.347,0,0,0,2.286,2.405h2.229a.564.564,0,0,0,.537-.59V10.634c0-.356-.208-.713-.535-.713h-.653V8.465a7.277,7.277,0,1,1,14.555,0V9.921H35.52c-.327,0-.535.356-.535.713v7.277a.564.564,0,0,0,.5.621H36.2l-.059.089a4.693,4.693,0,0,1-3.77,1.879A2.938,2.938,0,1,0,29.52,24a3.059,3.059,0,0,0,2.139-.921,2.614,2.614,0,0,0,.713-1.426A5.881,5.881,0,0,0,37.1,19.306l.564-.832a2.022,2.022,0,0,0,2.079-2.05V12.713C39.737,11.436,38.787,9.921,37.421,9.921Zm-15.8,7.426H20.074a1.158,1.158,0,0,1-1.13-1.186V12.416a1.232,1.232,0,0,1,1.129-1.307h1.545Zm9.178,4.9a1.753,1.753,0,0,1-1.277.564,1.812,1.812,0,0,1-1.782-1.753,1.752,1.752,0,0,1,3.5,0h0a1.574,1.574,0,0,1-.44,1.19Zm7.753-5.822c0,.8-.772.921-1.129.921h-1.25V11.109h1.248c.653,0,1.129.921,1.129,1.6Z" transform="translate(-17.756)" fill="#253858"/>
        </g>
      </g>
      <path id="Icon_feather-check" data-name="Icon feather-check" d="M14.364,9l-5.75,5.75L6,12.136" transform="translate(846.075 364.771)" fill="none" stroke="#253858" stroke-linecap="round" stroke-linejoin="round" stroke-width="1.5"/>
    </g>
  </g>
</svg>
