<svg xmlns="http://www.w3.org/2000/svg" width="12.129" height="12.129" viewBox="0 0 12.129 12.129">
  <path id="Path_220523" data-name="Path 220523" d="M14.48,3H9.757a.677.677,0,0,0-.675.675V9.748l2.024-2.024H14.48a.677.677,0,0,0,.675-.675V3.675A.677.677,0,0,0,14.48,3Zm-.52,8.273-1.714-.2a1.343,1.343,0,0,0-1.107.385L9.9,12.7A10.153,10.153,0,0,1,5.451,8.257L6.7,7.008A1.343,1.343,0,0,0,7.084,5.9l-.2-1.7A1.351,1.351,0,0,0,5.546,3.007H4.378a1.339,1.339,0,0,0-1.35,1.4A11.466,11.466,0,0,0,13.751,15.126a1.339,1.339,0,0,0,1.4-1.35V12.609A1.337,1.337,0,0,0,13.961,11.273Z" transform="translate(-3.026 -3)" fill="#0065ff"/>
</svg>
