<svg xmlns="http://www.w3.org/2000/svg" width="21.216" height="23.847" viewBox="0 0 21.216 23.847">
    <g id="prefix__noun_Call_Center_169018" data-name="noun_Call Center_169018" transform="translate(-34 -19.9)">
        <path id="prefix__Path_2711" d="M55.216 32.809a2.064 2.064 0 0 0-1.6-2.008v-.4a1.971 1.971 0 0 0-1.476-1.925c0-.083.018-.165.018-.257a8.246 8.246 0 0 0-.477-2.76c0-.018-.138-.376-.138-.385a8.154 8.154 0 0 0-1.043-1.846 8.251 8.251 0 0 0-6.635-3.328 8.376 8.376 0 0 0-6.675 3.374 8.544 8.544 0 0 0-1.018 1.806.343.343 0 0 0-.064.11 8.349 8.349 0 0 0-.559 3.016 2.4 2.4 0 0 0-.009.257A2.012 2.012 0 0 0 34 30.4v4.823a2.017 2.017 0 0 0 4.034 0v-4.834a2 2 0 0 0-1.559-1.944c0-.083-.009-.165-.009-.248a7.24 7.24 0 0 1 .358-2.274l1.724.633a.509.509 0 0 0 .156.028.46.46 0 0 0 .431-.3 5.233 5.233 0 0 1 9.81 0 .451.451 0 0 0 .587.266l1.394-.513a7.408 7.408 0 0 1 .339 2.173 2.154 2.154 0 0 1-.009.238 2 2 0 0 0-1.577 1.944v4.832a1.971 1.971 0 1 0 3.942 0V35a5.284 5.284 0 0 1-.825 3.622c-1.027 1.467-2.9 2.356-5.593 2.641a1.9 1.9 0 1 0 .064.917c3-.312 5.116-1.329 6.308-3.035a6.414 6.414 0 0 0 .917-4.749 2.063 2.063 0 0 0 .724-1.587zM37.117 30.4v4.823a1.1 1.1 0 0 1-2.2 0v-4.834a1.093 1.093 0 0 1 .944-1.064.8.8 0 0 0 .147.018.466.466 0 0 0 .156-.028 1.1 1.1 0 0 1 .953 1.085zm12.506-4.85a6.148 6.148 0 0 0-11.176 0l-1.274-.468a7.67 7.67 0 0 1 .752-1.265 7.443 7.443 0 0 1 5.941-2.989 7.309 7.309 0 0 1 5.9 2.961 7.217 7.217 0 0 1 .825 1.4zm3.077 9.671a1.055 1.055 0 1 1-2.109 0v-4.832a1.072 1.072 0 0 1 .954-1.064.38.38 0 0 0 .147.028.46.46 0 0 0 .11-.018 1.053 1.053 0 0 1 .9 1.064zm-7.3 7.609a.99.99 0 1 1 .99-.99.986.986 0 0 1-.99.99zm8.224-8.976v-2.081a1.157 1.157 0 0 1 0 2.081z" data-name="Path 2711" style="fill:#4c5a6f"/>
    </g>
</svg>
