<svg xmlns="http://www.w3.org/2000/svg" width="42" height="38" fill="none" xmlns:v="https://vecta.io/nano"><g clip-path="url(#B)"><g fill="#59606d"><path d="M34.871 26.478c-.206-.001-.408-.051-.591-.147l-2.466-1.297-2.466 1.297a1.29 1.29 0 0 1-.835.116 1.3 1.3 0 0 1-.729-.423c-.119-.141-.205-.306-.254-.484s-.057-.365-.025-.546l.467-2.747-1.995-1.945a1.27 1.27 0 0 1 .7-2.167l2.757-.4 1.233-2.498a1.27 1.27 0 0 1 2.278 0l1.234 2.499 2.757.4a1.27 1.27 0 0 1 .7 2.165l-1.995 1.945.467 2.747a1.27 1.27 0 0 1-1.236 1.485zm-3.057-2.988a.73.73 0 0 1 .336.083l2.487 1.318-.475-2.77a.72.72 0 0 1 .025-.345c.036-.111.099-.212.183-.294l2.012-1.961-2.782-.404c-.116-.017-.226-.062-.321-.131a.72.72 0 0 1-.223-.265l-1.243-2.52-1.238 2.514c-.052.105-.128.196-.223.265s-.205.114-.321.131l-2.782.404 2.012 1.962c.084.082.146.183.183.294a.71.71 0 0 1 .025.345l-.48 2.775 2.487-1.309a.73.73 0 0 1 .336-.083m.001 7.528a10.06 10.06 0 0 1-5.586-1.694c-1.654-1.104-2.942-2.675-3.703-4.512s-.96-3.859-.572-5.809 1.346-3.742 2.752-5.148a10.05 10.05 0 0 1 5.148-2.751 10.06 10.06 0 0 1 10.321 4.275 10.05 10.05 0 0 1 1.694 5.586c-.003 2.666-1.063 5.221-2.948 7.106s-4.44 2.945-7.106 2.948zm0-18.663a8.61 8.61 0 0 0-6.088 14.696 8.61 8.61 0 0 0 14.696-6.088 8.62 8.62 0 0 0-8.609-8.609zm6.368 17.098a.72.72 0 0 0-.723.723l.025 5.904-5.238-3.835c-.008-.007-.018-.011-.027-.016a.76.76 0 0 0-.067-.04l-.062-.029-.063-.022a.7.7 0 0 0-.072-.019c-.02 0-.041-.006-.061-.008s-.051 0-.077 0h-.062a.72.72 0 0 0-.075.011c-.021 0-.041.009-.061.015s-.049.016-.073.026a.49.49 0 0 0-.055.026l-.072.042c-.008 0-.018.009-.026.015l-5.213 3.852v-5.912a.72.72 0 0 0-.723-.723.72.72 0 0 0-.723.723v5.909a1.43 1.43 0 0 0 1.546 1.427 1.43 1.43 0 0 0 .729-.274l4.81-3.523 4.809 3.522a1.43 1.43 0 0 0 2.276-1.152v-5.918a.72.72 0 0 0-.723-.723m-17.509-3.848H2.638A2.64 2.64 0 0 1 0 22.98V2.74A2.64 2.64 0 0 1 2.638.101h31.05a2.64 2.64 0 0 1 2.638 2.638v6.747a.72.72 0 0 1-.723.723.72.72 0 0 1-.511-.212c-.135-.136-.212-.319-.212-.511V2.74a1.19 1.19 0 0 0-.35-.843 1.2 1.2 0 0 0-.843-.35H2.638a1.19 1.19 0 0 0-.843.35 1.2 1.2 0 0 0-.35.843v20.24a1.19 1.19 0 0 0 .351.841c.224.223.527.348.842.348h18.035a.72.72 0 0 1 .723.723.72.72 0 0 1-.212.511c-.136.136-.32.212-.512.212z"/></g><g clip-path="url(#C)"><mask id="A" maskUnits="userSpaceOnUse" x="23" y="12" width="18" height="18"><path d="M41 12H23V30H41V12Z" fill="#fff"/></mask><g mask="url(#A)"><path d="M31.929 29.858A8.93 8.93 0 0 1 23 20.929 8.93 8.93 0 0 1 31.929 12a8.93 8.93 0 0 1 8.929 8.929 8.93 8.93 0 0 1-8.929 8.929z" fill="#0065ff"/><path d="M26.643 18.685l.501.005h1.171a.07.07 0 0 1 .089.09v.724.097l.023.01.054-.073a2.05 2.05 0 0 1 1.058-.865c.211-.081.436-.117.662-.106a1.64 1.64 0 0 1 1.493 1.173 3.76 3.76 0 0 1 .198 1.599 3.41 3.41 0 0 1-.421 1.514c-.166.319-.425.579-.744.746a1.76 1.76 0 0 1-1.037.186 1.88 1.88 0 0 1-1.151-.546c-.035-.038-.067-.078-.097-.119l-.03.017v2.375h-.889c0-.024-.006-.049-.006-.071l.004-5.62c0-.142-.011-.284-.034-.424-.007-.102-.05-.198-.123-.271a.42.42 0 0 0-.27-.124 2.89 2.89 0 0 0-.35-.04c-.061-.004-.08-.026-.081-.084a1.68 1.68 0 0 0-.018-.172l-.004-.02zm1.76 2.657l.003 1.347a.19.19 0 0 0 .018.071c.01.022.026.042.045.058.324.257.708.426 1.116.491a1 1 0 0 0 .464-.022c.151-.044.289-.123.404-.23a1.42 1.42 0 0 0 .374-.673 4.26 4.26 0 0 0 .067-1.919c-.051-.331-.174-.646-.36-.924-.106-.175-.269-.309-.461-.38a.9.9 0 0 0-.598-.009c-.425.126-.794.394-1.044.761-.019.035-.028.074-.025.113v1.319m3.414-4.668v-.275h1.759v3.2l.352-.419a1.88 1.88 0 0 1 1.97-.531c.224.071.43.19.604.347s.313.35.406.566c.176.359.275.751.292 1.151a3.92 3.92 0 0 1-.236 1.751 2.13 2.13 0 0 1-.9 1.099c-.358.198-.769.281-1.176.239a2 2 0 0 1-1.102-.476l-.177-.165c-.02-.018-.045-.028-.071-.03-.01 0-.025.038-.029.06l-.097.491c-.005.025-.035.065-.053.065l-.698.003v-.108-6.085a5.7 5.7 0 0 0-.044-.581.23.23 0 0 0-.06-.14.22.22 0 0 0-.135-.07l-.502-.082c-.033-.005-.067-.006-.104-.01m1.761 4.674v1.347a.14.14 0 0 0 .01.055.16.16 0 0 0 .031.047 2.5 2.5 0 0 0 1.09.49c.285.073.587.031.842-.116a1.12 1.12 0 0 0 .52-.672 3.22 3.22 0 0 0 .165-1.002 4.7 4.7 0 0 0-.127-1.38 1.41 1.41 0 0 0-.394-.712 1.11 1.11 0 0 0-1.01-.227 1.85 1.85 0 0 0-1.062.67.27.27 0 0 0-.069.192v1.31" fill="#fff"/></g></g><g fill="#59606d"><path d="M25.02 8.051H7.545c-.182-.013-.353-.094-.478-.228a.72.72 0 0 1 0-.986c.125-.134.296-.215.478-.228H25.02a.72.72 0 0 1 .723.723.72.72 0 0 1-.723.723m-6.138 5.525H7.546a.72.72 0 0 1-.723-.723.72.72 0 0 1 .723-.723h11.338a.72.72 0 0 1 .723.723.72.72 0 0 1-.212.511c-.136.136-.321.212-.512.212zm-2.998 5.079H7.546a.72.72 0 0 1-.723-.723.72.72 0 0 1 .723-.723h8.338a.73.73 0 0 1 .277.055c.088.036.167.09.234.157a.72.72 0 0 1 .212.511.73.73 0 0 1-.055.277.72.72 0 0 1-.157.234.74.74 0 0 1-.234.157.72.72 0 0 1-.277.055z"/></g></g><defs><clipPath id="B"><path fill="#fff" d="M0 0h42v38H0z"/></clipPath><clipPath id="C"><path fill="#fff" transform="translate(23 12)" d="M0 0h18v18H0z"/></clipPath></defs></svg>