<svg xmlns="http://www.w3.org/2000/svg" width="22.209" height="22.213" viewBox="0 0 22.209 22.213"><path d="M472.149,48.768A11.11,11.11,0,0,1,478.959,29h.231a11.106,11.106,0,0,1,10.49,14.492.5.5,0,0,1-.648.347.513.513,0,0,1-.332-.663,10.242,10.242,0,0,0-3.051-11.106,10.7,10.7,0,0,0-14.677,1.589A10.651,10.651,0,0,0,472.587,48.3,10.446,10.446,0,0,0,486.81,46.89c.215-.253.665-.994.293-1.354a2.25,2.25,0,0,0-.987-.547,5.126,5.126,0,0,0,.409-.949,3.476,3.476,0,0,1,1.264.725,1.378,1.378,0,0,1,.463.864,1.515,1.515,0,0,1-.154.795,3.97,3.97,0,0,1-.733,1.111,11.117,11.117,0,0,1-15.217,1.234Zm4.32-6.412a9.7,9.7,0,0,1-2.522-4.324,5.1,5.1,0,0,1-.059-2.357,2.279,2.279,0,0,1,1.514-1.821,2.243,2.243,0,0,1,1.319.026.445.445,0,0,1,.218.158c.4.564,1.165,2.018,1.165,2.018a.791.791,0,0,1-.1.724c-.239.366-.76.65-.748.92a1.216,1.216,0,0,0,.2.477,9.656,9.656,0,0,0,1.39,1.952,11.668,11.668,0,0,0,2.044,1.635c.215.131.315.153.37.147.221,0,.575-.536.934-.809a.952.952,0,0,1,.4-.177.9.9,0,0,1,.58.133c.258.159,1.339.827,1.8,1.156a.448.448,0,0,1,.168.244,2.3,2.3,0,0,1-.3,1.766,2.369,2.369,0,0,1-1.356,1.1,4.438,4.438,0,0,1-1.151.148C480.371,45.476,478.246,44.278,476.469,42.357ZM475.63,34.7c-.471.126-.745.543-.886,1.165a4.405,4.405,0,0,0,.05,1.937,9.2,9.2,0,0,0,2.664,4.287c1.921,1.868,3.9,2.892,5.79,2.387a1.555,1.555,0,0,0,.829-.7,1.5,1.5,0,0,0,.208-.956c-.507-.345-1.591-1.007-1.6-1-.436.437-.665.841-1.327.966a1.434,1.434,0,0,1-.932-.266h-.005a12.362,12.362,0,0,1-2.2-1.772,10.35,10.35,0,0,1-1.519-2.116,2.15,2.15,0,0,1-.325-.913c-.039-.546.478-1,.86-1.4-.1-.193-.638-1.171-.933-1.63a1.625,1.625,0,0,0-.311-.03A1.4,1.4,0,0,0,475.63,34.7Z" transform="translate(-468 -29)" fill="#4c5a6f"/></svg>