<svg xmlns="http://www.w3.org/2000/svg" width="12.862" height="12.876" viewBox="0 0 12.862 12.876"><path d="M431.7,334.984a6.408,6.408,0,1,1,5.549,3.2h0a6.416,6.416,0,0,1-3.06-.777l-3.395.887Zm2.838,1.379a5.33,5.33,0,0,0,2.709.739h0a5.321,5.321,0,0,0,5.323-5.3,5.314,5.314,0,0,0-5.321-5.307,5.3,5.3,0,0,0-4.511,8.125l.127.2-.538,1.957,2.015-.526Zm3.756-1.593a9.223,9.223,0,0,1-.912-.336,7.123,7.123,0,0,1-2.734-2.407,3.1,3.1,0,0,1-.653-1.649,1.785,1.785,0,0,1,.56-1.33.589.589,0,0,1,.427-.2c.107,0,.213,0,.307.006h.036c.093,0,.209,0,.324.273.133.319.453,1.1.493,1.184a.293.293,0,0,1,.013.279,1.089,1.089,0,0,1-.16.266c-.08.093-.168.208-.24.279s-.163.166-.07.325a4.808,4.808,0,0,0,.89,1.1,4.375,4.375,0,0,0,1.287.791c.16.08.253.066.347-.04s.4-.466.507-.625.213-.133.36-.08.933.439,1.093.519.267.12.307.186a1.329,1.329,0,0,1-.093.758,1.648,1.648,0,0,1-1.08.758,2.618,2.618,0,0,1-.388.031A2.037,2.037,0,0,1,438.294,334.77Z" transform="translate(-430.791 -325.415)" fill="#455a64"/></svg>